<svg xmlns="http://www.w3.org/2000/svg" width="60.008" height="51.772" viewBox="0 0 60.008 51.772">
  <g id="Group_19" data-name="Group 19" transform="translate(-82.991 -164)">
    <g id="Group_18" data-name="Group 18" transform="translate(73 149.886)">
      <path id="Path_5377" data-name="Path 5377" d="M46.366,36.88l-1.884-7.537a10.47,10.47,0,0,0-1.47-2.94c-.735-.735-12.5-4.409-12.5-4.409s-5.144-1.47-6.614-2.94l-2.94-2.94s-10.289,4.41-8.819,13.964a16.142,16.142,0,0,1,6.614,5.88c2.94,4.409,4.41,6.614,8.085,6.614s8.084,2.205,11.024,4.41c2.2,1.47,5.145.735,5.88,0s0-3.675-2.94-5.145-9.555-5.144-9.555-7.349,3.675-2.94,3.675-2.94,2.94.735,3.675,1.47c.624.624,1.779,3.9,2.113,4.873" fill="none" stroke="#004876" stroke-linecap="round" stroke-linejoin="round" stroke-width="4"/>
      <path id="Path_5378" data-name="Path 5378" d="M35.5,38.821l32.5-5.8V56.536l-41.157,7.35V44.117" fill="none" stroke="#004876" stroke-linecap="round" stroke-linejoin="round" stroke-width="4"/>
      <line id="Line_55" data-name="Line 55" y1="7.35" x2="41.157" transform="translate(26.843 50.426)" fill="none" stroke="#004876" stroke-linejoin="round" stroke-width="5"/>
    </g>
  </g>
</svg>
