<svg xmlns="http://www.w3.org/2000/svg" width="60" height="51.158" viewBox="0 0 60 51.158">
  <g id="Group_33" data-name="Group 33" transform="translate(-10 -14.421)">
    <path id="Path_5395" data-name="Path 5395" d="M68,53.754,12,63.579V26.246l56-9.825Z" fill="none" stroke="#004876" stroke-linecap="round" stroke-linejoin="round" stroke-width="4"/>
    <g id="Group_32" data-name="Group 32">
      <rect id="Rectangle_106" data-name="Rectangle 106" width="40" height="9.953" transform="translate(20 35.024)" fill="#004876"/>
      <path id="Path_5396" data-name="Path 5396" d="M27.042,37.444h2.942v1.125l-1.618,0v.836h1.4v1.1h-1.4v.927h1.618v1.122H27.042Z" fill="#fff"/>
      <g id="Group_29" data-name="Group 29">
        <path id="Path_5397" data-name="Path 5397" d="M36.024,37.438s-1.7,2.883-1.869,3.142a1.532,1.532,0,0,1-1.256.782,1.328,1.328,0,0,1-1.431-1.374,1.375,1.375,0,0,1,1.35-1.372,2.146,2.146,0,0,1,1.507.806L35,38.338a2.755,2.755,0,0,0-2.17-1A2.684,2.684,0,0,0,30.1,39.964a2.642,2.642,0,0,0,2.42,2.686,2.9,2.9,0,0,0,2.424-.867s-.011,0,.042,0c.317,0,1.15,0,1.15,0v.767h1.273V37.438Zm.136,3.276h-.682l.682-1.158Z" fill="#fff"/>
      </g>
      <path id="Path_5398" data-name="Path 5398" d="M38.71,42.559V38.664H37.683V37.441h3.376v1.223H40.033v3.894Z" fill="#fff"/>
      <path id="Path_5399" data-name="Path 5399" d="M44.014,40.6H42.654v1.957H41.332V37.442h1.322v1.943h1.361V37.442h1.322v5.116H44.014Z" fill="#fff"/>
      <path id="Path_5400" data-name="Path 5400" d="M45.74,42.557V37.443h1.315v3.984H48.6v1.13Z" fill="#fff"/>
      <g id="Group_30" data-name="Group 30">
        <path id="Path_5401" data-name="Path 5401" d="M48.631,38.087a2.719,2.719,0,0,1,3.763.006,2.586,2.586,0,0,1,.806,1.874,2.66,2.66,0,0,1-2.677,2.7,2.6,2.6,0,0,1-1.944-.811,2.656,2.656,0,0,1-.739-1.908,2.554,2.554,0,0,1,.791-1.86m1.892,3.3a1.367,1.367,0,0,0,1.358-1.431,1.365,1.365,0,0,0-2.729,0,1.414,1.414,0,0,0,1.371,1.431" fill="#fff"/>
      </g>
      <path id="Path_5402" data-name="Path 5402" d="M53.078,42.558V37.442h1.195l1.987,2.841V37.442h1.325v5.115H56.42L54.4,39.708v2.85Z" fill="#fff"/>
      <g id="Group_31" data-name="Group 31">
        <path id="Path_5403" data-name="Path 5403" d="M22.421,42.558V37.442h1.848a2.722,2.722,0,0,1,2.021.611,2.533,2.533,0,0,1,.79,1.972,2.492,2.492,0,0,1-.784,1.9,2.364,2.364,0,0,1-1.846.633Zm3.344-2.575a1.326,1.326,0,0,0-1.5-1.441h-.525v2.892h.531c1.012,0,1.49-.445,1.49-1.451" fill="#fff"/>
      </g>
    </g>
  </g>
</svg>
