<?xml version="1.0" encoding="UTF-8"?>
<svg width="55px" height="55px" viewBox="0 0 55 55" version="1.1" xmlns="http://www.w3.org/2000/svg" xmlns:xlink="http://www.w3.org/1999/xlink">
    <title>sports_picto/climbing</title>
    <g id="sports_picto/climbing" stroke="none" stroke-width="1" fill="none" fill-rule="evenodd">
        <path d="M32.5231995,15.9089271 C32.7022671,17.2033573 31.7058301,18.0464621 30.9619612,18.2896257 C30.6163644,18.4025994 27.2565963,19.5116333 27.2565963,19.5116333 L27.6839083,17.256287 L32.5231995,15.9089271 Z M27.3626676,39.3207907 C27.6478066,37.9168728 29.7564079,27.5347529 29.9165959,26.7525457 C30.1834317,25.4497207 29.3783124,24.9122423 28.3190396,25.0589373 C27.3945899,25.186993 24.1195636,25.8659731 24.1195636,25.8659731 L26.6065487,19.800399 L27.3422748,15.6886 C27.3422748,15.6886 34.8915749,12.3316897 35.3397121,12.1319227 C35.8800133,11.8910356 36.3825553,11.3164922 36.4308351,10.5345695 L37.3956381,15.6638426 L33.5242483,21.9356575 L33.5698619,36.2292403 L27.3626676,39.3207907 Z M34.1012277,22.0945889 L38,15.7783813 L35.9759964,5.00085371 L35.3896493,5 L36.3260608,9.97823843 L27.0144047,12.6253642 C27.0816361,11.8139176 27.1582352,10.9008801 27.1864825,10.5582598 C27.2512639,9.77256666 26.9769338,9.04969195 26.5107818,8.50346304 L27.9873503,7.80527463 L27.5072187,7.21813902 L26.3811469,7.29191336 C26.3811469,7.29191336 24.8924003,5.69157219 22.5526325,6.57686428 C20.4149192,7.38560748 20.3390407,9.76580817 21.2495829,11.3098048 L21.5996474,11.1364315 C21.6268137,11.2787157 21.7076644,11.4877312 21.7709325,11.6156446 C21.9913621,12.0613498 23.583586,13.4151125 23.583586,13.4151125 C23.583586,13.4151125 23.4024287,13.4602877 23.3068059,13.4841203 C21.8739053,13.8408978 20.9354761,14.7734283 20.2689269,17.4055431 C19.3811555,20.9116384 18.7923584,23.6268471 18.7923584,23.6268471 C18.7923584,23.6268471 18.2368527,24.6427561 17.8154495,25.4298721 C17.3939021,26.2170592 16.3579766,28.4268035 17.5674932,30.7660975 C18.7770097,33.1053915 21.4411888,38.1788891 21.4411888,38.1788891 C21.4411888,38.1788891 20.5722248,45.9338742 20.4525342,47.2936129 C20.3327715,48.6533515 20.8460505,49.9239491 22.0087284,50 C24.0268952,41.1490711 24.0235084,41.1659318 24.537652,38.8531027 C24.8162336,37.5999349 24.8171704,37.2708316 24.4982356,36.1005443 C24.2234732,35.092461 22.9810255,30.5336763 22.9810255,30.5336763 L26.1690042,29.5249527 C26.1690042,29.5249527 25.6407369,35.8905329 25.5866203,36.6500458 C25.484296,38.0853373 25.9895763,39.1822771 27.1224938,39.4404517 L25.484296,40.2563091 L28.0866482,50 L28.6826512,50 L26.1576188,40.5470668 L34.1474898,36.5702955 L34.1012277,22.0945889 Z" id="picto" fill="#007DBC"></path>
    </g>
</svg>