<?xml version="1.0" encoding="UTF-8"?>
<svg width="55px" height="55px" viewBox="0 0 55 55" version="1.1" xmlns="http://www.w3.org/2000/svg" xmlns:xlink="http://www.w3.org/1999/xlink">
    <title>sports_picto/aquagym</title>
    <g id="sports_picto/aquagym" stroke="none" stroke-width="1" fill="none" fill-rule="evenodd">
        <path d="M30.0609881,26.6153532 C30.0325491,27.3443718 29.880899,29.3959781 29.880899,30.7140385 C29.880899,31.4442255 29.1562583,31.8833599 28.4049514,31.8833599 L26.3362167,31.8833599 C26.3362167,31.8833599 23.1234213,29.5084999 22.4606078,28.438849 C22.0626094,27.7963575 21.9617063,27.0059302 21.9932477,26.2073247 C21.9939864,26.1881208 21.9959808,26.169501 21.997015,26.1504432 C21.8920492,26.1259089 21.7881914,26.0923933 21.6862542,26.0493123 C20.6216011,25.5988599 20.1696795,24.2841584 20.6767802,23.1128655 C21.183881,21.9415726 22.4580963,21.357204 23.5227493,21.8075833 C23.9665456,21.9953874 24.3035294,22.333683 24.5092505,22.7488673 C25.0530634,22.5275476 25.6403105,22.4175815 26.2234948,22.4395601 C28.2662281,22.517325 30.1495553,24.3407478 30.0609881,26.6153532 L30.0609881,26.6153532 Z M23.6097653,32.6964961 L18.3160471,26.8993229 C18.3160471,26.8993229 16.6132522,20.2878452 15.7413935,17.373012 C17.0716004,16.0187343 18.5991814,14.9275429 20.3172668,14.1090763 C24.970775,11.8920097 28.7285652,11.8315503 33.5086823,14.1090763 C35.4139481,15.0166987 37.084906,16.259915 38.5122488,17.8253628 C37.5295148,20.7762673 35.5941111,26.7520442 35.5941111,26.7520442 L30.2265253,32.6964961 L23.6097653,32.6964961 Z M32.6651148,43.0738399 C32.8242255,42.1676049 33.4467074,40.7449816 33.5831408,39.3815036 C33.7398139,37.8149605 33.6632132,36.5099704 33.6632132,36.5099704 C33.6632132,36.5099704 38.105534,29.7735577 38.581832,29.0133601 C39.0671418,28.2387778 39.3442929,27.5897146 39.5233478,26.7294814 C39.6046021,26.3384663 40.1572792,23.5817915 40.7115813,20.8124845 C41.1488033,21.5490241 41.5501258,22.3310543 41.9138496,23.1593054 L44.3751904,22.2214533 C43.5602835,20.3661213 42.5739301,18.7099843 41.422852,17.2569853 C41.7152936,15.7946399 41.9222705,14.7589427 41.9222705,14.7589427 C41.9222705,14.7589427 40.8067966,14.6745331 39.83337,15.482631 C38.3426489,14.0130568 36.635939,12.8167915 34.7197408,11.9039118 C29.4554219,9.39579265 24.4979488,9.33511412 19.1062822,11.9039118 C17.2886233,12.7698405 15.659696,13.8910425 14.2245233,15.2583176 C13.3527384,14.7533933 12.4751919,14.8256818 12.4751919,14.8256818 C12.4751919,14.8256818 12.603943,15.6059596 12.7971067,16.7746968 C11.4755423,18.3399985 10.3572614,20.1577259 9.45083262,22.2214533 L11.9121734,23.1593054 C12.3510205,22.1599715 12.8445296,21.2278149 13.3902631,20.3620322 C13.9091827,23.49782 14.4668827,26.8604769 14.525829,27.1857752 C14.6413579,27.8227173 14.9442148,28.4705391 15.2973756,28.9838606 C16.5917568,30.8651142 21.1730963,37.0339525 21.1730963,37.0339525 C21.1730963,37.0339525 21.8661956,38.4765099 21.7333078,40.9753556 C18.2618283,40.4328997 14.0493833,40.0347288 8,40.0347288 L8,40.9109531 C17.7034634,40.9109531 22.6369296,41.945482 27.4081088,42.9459111 C32.2237562,43.9557597 37.2035373,45 47,45 L47,44.1237757 C40.5771423,44.1237757 36.244441,43.6704026 32.6651148,43.0738399 L32.6651148,43.0738399 Z" id="picto" fill="#007DBC"></path>
    </g>
</svg>