<?xml version="1.0" encoding="UTF-8"?>
<svg width="55px" height="55px" viewBox="0 0 55 55" version="1.1" xmlns="http://www.w3.org/2000/svg" xmlns:xlink="http://www.w3.org/1999/xlink">
    <title>sports_picto/badminton</title>
    <g id="sports_picto/badminton" stroke="none" stroke-width="1" fill="none" fill-rule="evenodd">
        <path d="M24.2326689,9.38571264 L24.4101626,9.33377483 L24.4338958,9.32682966 L24.6257841,10.0025042 L24.6021104,10.0094494 L24.4245572,10.0613872 C24.392556,10.0707481 24.3604358,10.0752172 24.328732,10.0752172 C24.1784215,10.0752172 24.0396505,9.97478394 23.9959909,9.8209635 C23.9429926,9.63471212 24.0492866,9.43940183 24.2326689,9.38571264 L24.2326689,9.38571264 Z M25.6731396,8.234626 C25.6774817,8.23057968 25.683073,8.22840554 25.6887833,8.22840554 C25.6909246,8.22840554 25.6930065,8.22870751 25.6951478,8.22931144 C25.702821,8.23154597 25.7087691,8.23758525 25.7110295,8.24537592 C25.768013,8.4458196 25.6753999,8.68485427 25.6461348,8.75273577 L25.9001816,8.93083412 C25.9008359,8.93125687 25.9011928,8.9318004 25.9016686,8.93222315 C25.9025608,8.93288747 25.9031557,8.93367258 25.9039289,8.93445769 C25.905297,8.93590711 25.9063677,8.93747733 25.9072599,8.93922872 C25.9075573,8.93977225 25.9079737,8.94007422 25.9082711,8.94067814 C25.9083306,8.94098011 25.9083306,8.94128207 25.9084495,8.94158404 C25.9093418,8.94418093 25.9100555,8.94677782 25.910115,8.94955588 C25.910115,8.94967667 25.910115,8.94979746 25.910234,8.94985785 C25.910234,8.95239435 25.9098176,8.95511202 25.9090444,8.95758813 L25.7976349,9.29349284 L26.0680987,9.5175501 C26.0724408,9.52117367 26.075058,9.52612588 26.0760097,9.53138005 C26.0760692,9.53174241 26.0762477,9.53192359 26.0763072,9.53228594 C26.0763666,9.53282948 26.0761287,9.5334938 26.0761882,9.53409773 C26.0763666,9.5360303 26.0763072,9.53790247 26.0758313,9.53989544 C26.0756529,9.54092211 26.0755339,9.54194879 26.075177,9.54297547 C26.0749391,9.54363979 26.0749391,9.54430411 26.0747012,9.54490804 L25.9530609,9.83304205 C26.0133754,9.8745923 26.2170411,10.0270237 26.2740246,10.227407 C26.276285,10.2353184 26.2742031,10.243713 26.2689092,10.2497523 C26.2645076,10.2545837 26.2583215,10.2573618 26.2518379,10.2573618 C26.2504699,10.2573618 26.2490423,10.257241 26.2476147,10.2569995 L24.8581795,9.9961026 L24.6339331,9.206648 L25.6731396,8.234626 Z M24.328732,10.3036831 C24.3821467,10.3036831 24.4353829,10.2960132 24.4869536,10.280915 L24.6643878,10.2289772 L24.7412978,10.2064507 L26.2067507,10.4816003 C26.2204315,10.4842575 26.2362537,10.4858278 26.2518379,10.4858278 C26.3211937,10.4858278 26.3878728,10.4560541 26.4348039,10.4040559 C26.4356367,10.40315 26.4364694,10.4023045 26.4372427,10.4013382 C26.4943452,10.3360536 26.5140337,10.2470347 26.490003,10.1633302 C26.4420012,9.99447199 26.3287479,9.85774271 26.2273314,9.76316759 L26.2815194,9.6348933 C26.2822926,9.63314191 26.2830064,9.63139052 26.2836607,9.62957873 C26.2871701,9.62070099 26.2902037,9.61121933 26.2926424,9.60167726 C26.2944269,9.59479249 26.2959734,9.58784731 26.297282,9.58066057 C26.3000182,9.5653812 26.3013268,9.54986025 26.3012078,9.53427891 C26.3012673,9.52709216 26.3010294,9.51996581 26.3004346,9.51283947 L26.300494,9.51283947 C26.2999587,9.50661901 26.299126,9.50039855 26.2981743,9.49423849 C26.29752,9.49043374 26.2967467,9.48668939 26.2959734,9.48294503 C26.2952596,9.47980461 26.2944864,9.47666418 26.2937131,9.47352376 C26.2806271,9.42146517 26.2515405,9.37484193 26.2106765,9.34084079 L26.0605445,9.21649203 L26.1222866,9.03054262 C26.130852,9.00463411 26.1351941,8.97751775 26.1351941,8.94985785 C26.1351941,8.94158404 26.1347778,8.93324983 26.1338855,8.9250968 C26.1321606,8.90800564 26.1287106,8.89115605 26.1235952,8.87460843 C26.1224055,8.87050172 26.1210375,8.8664554 26.1196694,8.86246948 C26.1177065,8.8572153 26.1156246,8.85190074 26.1133048,8.84676735 C26.1095575,8.83813118 26.1050369,8.8295554 26.1000999,8.82128159 C26.0914155,8.80654575 26.0803519,8.79156834 26.0679202,8.77810075 C26.0626858,8.77230304 26.0570945,8.76680729 26.0512653,8.76155312 C26.0442465,8.75509109 26.0367518,8.74905181 26.0292571,8.74373725 L25.914933,8.66353562 C25.9512169,8.52855772 25.9753071,8.35136527 25.9271863,8.18202388 C25.9035125,8.09813829 25.8396886,8.033518 25.7565925,8.00954206 C25.7339894,8.00314043 25.7114458,8 25.6887833,8 C25.6263274,8 25.5666671,8.02361358 25.5206877,8.06655286 L24.4246762,9.09172052 L24.3478257,9.11430742 L24.1703915,9.16624523 C24.0238878,9.20906372 23.902545,9.30744358 23.8287281,9.44314618 C23.7548517,9.57890918 23.737483,9.73556809 23.7797745,9.88431554 C23.8499036,10.1312013 24.075637,10.3036831 24.328732,10.3036831 L24.328732,10.3036831 Z M22.8628627,19.7832378 C22.2488321,18.6992476 22.7488361,17.39579 23.6847226,16.8492956 C24.6200739,16.3032843 25.9792329,16.6042216 26.5851739,17.6740799 C26.779263,18.016809 27.4631847,19.2243629 27.8139488,19.8436306 C27.9634861,20.1076679 27.682613,20.2930134 27.3789585,20.5517965 C27.0361649,20.8439769 26.7289414,21.106142 26.7289414,21.106142 C26.7289414,21.106142 24.2260664,20.9895839 23.7050059,20.6746355 C23.3592977,20.465616 23.0755101,20.1587602 22.8628627,19.7832378 L22.8628627,19.7832378 Z M34.1534015,33.7080531 L34.1632015,33.7080531 L34.1703015,33.7184531 L34.1534015,33.7080531 Z M17.5343645,16.8294263 C17.3823291,16.8632463 17.2333867,16.8849273 17.0878347,16.8953753 L17.0244866,16.6762098 L17.609728,16.5031241 L17.6915749,16.7863059 L17.5343645,16.8294263 Z M16.4143223,16.8567239 L16.8732244,16.7209005 L16.9257468,16.9024412 C16.7493833,16.9046154 16.5786705,16.8892152 16.4143223,16.8567239 L16.4143223,16.8567239 Z M14.9040796,15.8202628 C14.8787998,15.7834232 14.8545312,15.7455569 14.830679,15.7073282 L14.969688,15.6662008 L15.0816327,16.0537413 C15.0198311,15.9804848 14.9605278,15.9026989 14.9040796,15.8202628 L14.9040796,15.8202628 Z M15.2751865,11.1893434 L15.3221176,11.3517396 L15.0100761,11.4440198 C15.0923394,11.3513773 15.1809078,11.266465 15.2751865,11.1893434 L15.2751865,11.1893434 Z M17.5457256,15.7131863 L18.1309669,15.5401006 L18.3020961,16.1324331 L17.7168547,16.3055189 L17.5457256,15.7131863 Z M16.809222,15.9310232 L17.3944634,15.7579374 L17.5655925,16.3502095 L16.9803511,16.5233557 L16.809222,15.9310232 Z M16.0726589,16.1487996 L16.6579598,15.9757742 L16.8290889,16.5681067 L16.2438475,16.7411925 L16.0726589,16.1487996 Z M15.9214562,16.1935506 L16.0869345,16.7662555 C15.8309249,16.6743376 15.5939494,16.5363401 15.3797555,16.3537727 L15.9214562,16.1935506 Z M15.7061916,15.4484243 L15.8773207,16.0406965 L15.2920198,16.2138426 L15.1208907,15.6214497 L15.7061916,15.4484243 Z M14.9056261,14.8763234 L15.490927,14.7031773 L15.6620561,15.2955098 L15.0767552,15.4685955 L14.9056261,14.8763234 Z M14.7543639,14.9210141 L14.9255525,15.5133466 L14.7472261,15.5660695 C14.6489027,15.3890582 14.5650928,15.1990021 14.495856,14.9974714 L14.7543639,14.9210141 Z M14.8450736,12.4675569 L15.0162028,13.0599498 L14.4309614,13.2330959 L14.3378129,12.91084 C14.3572634,12.8030388 14.3808182,12.6983177 14.4085367,12.5966767 L14.8450736,12.4675569 Z M16.0586212,11.1339028 L15.4733203,11.3069886 L15.4098533,11.08734 C15.578841,10.9692721 15.7641268,10.8749989 15.9640452,10.8066343 L16.0586212,11.1339028 Z M16.9463275,10.8713753 L16.8953516,10.6948472 C17.0291262,10.7075297 17.1617111,10.7319888 17.2925116,10.7689492 L16.9463275,10.8713753 Z M17.8980957,11.3987252 L17.7719348,10.9619041 C17.9399709,11.0509835 18.1025941,11.1620459 18.2587338,11.2920111 L17.8980957,11.3987252 Z M18.6986612,11.9708261 L18.1133603,12.1438515 L17.9422907,11.5515794 L18.3995272,11.4163599 C18.4661468,11.4787457 18.5318148,11.5437887 18.5955198,11.6137839 L18.6986612,11.9708261 Z M19.4957172,14.1616351 L19.3245881,13.569363 L19.563586,13.4987034 C19.6094464,13.7075417 19.6371055,13.914085 19.6463251,14.1171256 L19.4957172,14.1616351 Z M18.4974938,16.2405966 L18.9290937,16.1129262 C18.8147102,16.2247133 18.6879545,16.3264752 18.5484102,16.4167624 L18.4974938,16.2405966 Z M18.8674705,15.3223242 L19.0385996,15.9145963 L18.4533583,16.0877424 L18.2822291,15.4953495 L18.8674705,15.3223242 Z M18.066905,14.7502233 L18.6522059,14.5770771 L18.823335,15.16947 L18.2380936,15.3424954 L18.066905,14.7502233 Z M17.3304015,14.9679997 L17.9157023,14.7949139 L18.0868314,15.3872464 L17.5015901,15.5603322 L17.3304015,14.9679997 Z M16.5938979,15.1858365 L17.1791987,15.0126903 L17.3503279,15.6050832 L16.7650865,15.778169 L16.5938979,15.1858365 Z M16.4426952,15.2305271 L16.6138243,15.8229201 L16.0285234,15.9960058 L15.8573943,15.4036733 L16.4426952,15.2305271 Z M16.2274305,14.4853405 L16.3985597,15.0777334 L15.8132588,15.2508191 L15.6421297,14.6584866 L16.2274305,14.4853405 Z M15.4268651,13.9132999 L16.0121659,13.7402142 L16.183295,14.3324863 L15.5979942,14.5055721 L15.4268651,13.9132999 Z M15.2756029,13.9579906 L15.4467915,14.5503231 L14.8614906,14.7234089 L14.6903615,14.1310763 L15.2756029,13.9579906 Z M15.2314674,13.8051968 L14.646226,13.9782222 L14.4750969,13.3858897 L15.0603382,13.2128039 L15.2314674,13.8051968 Z M15.7527063,12.842113 L15.167465,13.0151987 L14.9962763,12.4228662 L15.5815772,12.2497805 L15.7527063,12.842113 Z M16.2738858,11.8790895 L15.688585,12.0521752 L15.5174558,11.4598427 L16.1027567,11.2868174 L16.2738858,11.8790895 Z M17.0103894,11.6612527 L16.4250885,11.8343384 L16.2539594,11.2420663 L16.8392603,11.0689806 L17.0103894,11.6612527 Z M17.3769162,12.3617487 L17.2057276,11.7693558 L17.7910285,11.5963304 L17.9621576,12.1886026 L17.3769162,12.3617487 Z M18.1774222,12.9338496 L17.5921808,13.1069354 L17.4210517,12.5146028 L18.0062931,12.3414567 L18.1774222,12.9338496 Z M18.3286249,12.8890986 L18.1575553,12.296766 L18.7427967,12.1236803 L18.9139258,12.7160128 L18.3286249,12.8890986 Z M18.543949,13.6342852 L18.3728199,13.0420131 L18.9580613,12.868867 L19.1292499,13.4611995 L18.543949,13.6342852 Z M17.8516404,14.0049762 L18.4368818,13.8318905 L18.6080109,14.424223 L18.0227696,14.5973087 L17.8516404,14.0049762 Z M17.1151368,14.222813 L17.7004377,14.0497273 L17.8715668,14.6420598 L17.286266,14.8151455 L17.1151368,14.222813 Z M16.9639341,14.2675641 L17.1350632,14.8598362 L16.5497624,15.0329823 L16.3786333,14.4405894 L16.9639341,14.2675641 Z M16.74861,13.522317 L16.9197986,14.1147099 L16.3344978,14.2877353 L16.1633686,13.6954631 L16.74861,13.522317 Z M15.948104,12.9502161 L16.5333454,12.7771907 L16.7044745,13.3694628 L16.1192332,13.542609 L15.948104,12.9502161 Z M15.9679709,13.5872996 L15.3827296,13.7604458 L15.2116004,13.1680529 L15.7968418,12.9949671 L15.9679709,13.5872996 Z M16.4891504,12.6242762 L15.9039685,12.7973619 L15.7327799,12.2050898 L16.3180213,12.0319436 L16.4891504,12.6242762 Z M16.6404126,12.5795855 L16.4692835,11.987253 L17.0545249,11.8141068 L17.225654,12.4064998 L16.6404126,12.5795855 Z M16.8556773,13.3247722 L16.6846076,12.7324397 L17.2697895,12.5592935 L17.4409186,13.1516864 L16.8556773,13.3247722 Z M17.6363758,13.2597895 L18.2215577,13.0867038 L18.3927463,13.6789759 L17.8074455,13.852122 L17.6363758,13.2597895 Z M17.6562427,13.8968731 L17.0710014,14.0699588 L16.8998722,13.4775659 L17.4851136,13.3045406 L17.6562427,13.8968731 Z M19.38865,14.3592403 L19.5597791,14.9516332 L18.9745972,15.124719 L18.8034086,14.5323261 L19.38865,14.3592403 Z M18.7592137,14.3794719 L18.5880845,13.7871394 L19.1733854,13.6140536 L19.3445145,14.2063862 L18.7592137,14.3794719 Z M17.5817715,10.8717981 L17.746893,11.4434763 L17.1615921,11.6165016 L16.990463,11.0242295 L17.5497703,10.8587533 C17.5604176,10.8631619 17.5711838,10.8672686 17.5817715,10.8717981 L17.5817715,10.8717981 Z M19.1773112,15.8265436 L19.0187327,15.2775731 L19.5259935,15.127497 C19.4465853,15.3849515 19.3292872,15.6185508 19.1773112,15.8265436 L19.1773112,15.8265436 Z M19.6407933,14.5198248 C19.6379977,14.5550338 19.6330607,14.5889745 19.6291944,14.6235192 L19.5398527,14.3144893 L19.6496561,14.2820583 C19.6492992,14.3618976 19.64692,14.4413141 19.6407933,14.5198248 L19.6407933,14.5198248 Z M19.5028551,13.2551393 C19.5113015,13.2847921 19.5184988,13.3142034 19.5262314,13.3437959 L19.2804526,13.4165088 L19.1093235,12.8241159 L19.3259562,12.7600996 C19.3953714,12.9221334 19.4551507,13.087972 19.5028551,13.2551393 L19.5028551,13.2551393 Z M18.9542545,12.0733731 C19.0684595,12.2434392 19.1707682,12.4252819 19.2599909,12.613647 L19.065069,12.6712618 L18.8940589,12.0789896 L18.9471166,12.0632875 C18.9494364,12.0667299 18.9519347,12.0699307 18.9542545,12.0733731 L18.9542545,12.0733731 Z M16.7285052,10.6853655 L16.7951248,10.916066 L16.2098239,11.0892121 L16.114891,10.7607357 C16.3066008,10.7095831 16.498846,10.6839765 16.6897825,10.6839765 C16.7027496,10.6839765 16.7155976,10.685124 16.7285052,10.6853655 L16.7285052,10.6853655 Z M14.8382927,11.6607091 L15.3662531,11.5045334 L15.5373822,12.0969263 L14.9521409,12.270012 L14.7946925,11.7250879 C14.8090277,11.7034069 14.8234223,11.6818466 14.8382927,11.6607091 L14.8382927,11.6607091 Z M14.68364,11.9086216 L14.8009381,12.3147631 L14.46326,12.4145924 C14.5234556,12.2340783 14.597213,12.0650993 14.68364,11.9086216 L14.68364,11.9086216 Z M14.2783311,13.4441083 L14.3238347,13.4306407 L14.4949638,14.0229732 L14.296473,14.081675 C14.2745243,13.8692736 14.2683381,13.6550604 14.2783311,13.4441083 L14.2783311,13.4441083 Z M14.3953913,14.6572788 C14.361903,14.5214554 14.33585,14.3823104 14.3159831,14.2417763 L14.5390993,14.175767 L14.7102284,14.7681599 L14.4473189,14.8459458 C14.42882,14.7839224 14.4112729,14.7212347 14.3953913,14.6572788 L14.3953913,14.6572788 Z M17.8436104,16.7445141 L17.7609902,16.458373 L18.3462316,16.2852873 L18.4088659,16.5019162 C18.2443392,16.5944984 18.0650016,16.673311 17.8709125,16.7370254 L17.8436104,16.7445141 Z M41.0742253,38.7331073 C40.9273648,37.2308969 40.8431386,37.0497789 40.1523765,35.7981383 C39.5914037,34.781788 35.1460912,26.7269596 35.1460912,26.7269596 L32.8497965,22.2519744 L33.6360269,20.6681734 C33.6360269,20.6681734 35.8436937,18.8899077 36.1362252,18.6575162 C36.264111,18.5559355 36.5365377,18.2709419 36.8399543,17.843059 C37.0177454,17.5923081 40.0001626,13.3858293 40.5612543,12.5952876 C41.1222866,11.8046856 40.5435883,10.9358145 40.3267771,10.8969215 L34.5238522,17.2799566 L29.5878149,19.6926487 C29.5878149,19.6926487 29.206834,19.884577 28.9870488,20.0804308 C28.33608,20.6605036 26.5613217,22.1991307 26.2711695,22.4605711 C25.913565,22.7825855 25.6475624,23.407349 25.6475624,23.407349 L24.1821689,26.3303601 C24.1821689,26.3303601 21.7909413,24.6792212 20.6541847,23.8937525 C20.2260347,23.0356313 19.9397488,22.6079296 19.5874382,22.5294189 L19.360753,21.9359993 L19.2632029,21.962693 L18.1018803,17.6020313 L18.1655853,17.584457 L18.0110516,17.0043239 C19.1504849,16.6140052 19.82828,15.7502675 19.9214879,14.5672935 C19.9565822,14.1215947 19.9059037,13.6560266 19.7708205,13.183453 C19.6413882,12.7306279 19.4347484,12.2854122 19.1730285,11.8958183 C18.3561055,10.6792659 17.1777712,10.1426759 16.0209097,10.4602212 C14.8639888,10.7778269 14.1124958,11.8443636 14.010663,13.3131164 C13.978067,13.783999 14.020537,14.2743281 14.1334929,14.7310184 C14.2515048,15.2085442 14.438813,15.6365479 14.6902425,16.0034945 C15.3579851,16.9775095 16.3722092,17.3766454 17.5500677,17.1309676 L17.7045419,17.7112819 L17.768247,17.6937076 L18.929629,22.0543088 L18.8321978,22.0810628 L18.931354,22.7127715 C18.5707158,23.0102663 18.6381682,23.5414814 18.7913338,23.8394594 C18.9697792,24.186718 19.5019033,24.491762 19.5019033,24.491762 C19.5019033,24.491762 23.9215791,28.9454889 24.1888308,29.2168337 C24.7321376,29.7685219 25.2291674,29.7761313 25.6087803,29.31159 C26.0746417,28.7415424 27.0334287,27.5821216 27.0334287,27.5821216 L26.0560833,26.6289421 L26.1850994,26.3778893 L29.0737732,28.4024973 L30.6034071,30.8987126 L27.7949741,38.7872796 L23.0970425,47.537833 C23.0970425,47.537833 24.2864405,48.6606558 25.6159181,46.8135422 C26.9453362,44.9664286 34.5873192,34.3490132 34.5873192,34.3490132 L37.8528103,38.2142728 C37.8528103,38.2142728 39.4366321,44.5224812 39.8405134,46.2521308 C40.2443948,47.98172 41.5349713,48.1159128 42,47.9437933 C42,47.9437933 41.2099628,40.1225039 41.0742253,38.7331073 L41.0742253,38.7331073 Z" id="picto" fill="#007DBC"></path>
    </g>
</svg>