<?xml version="1.0" encoding="UTF-8"?>
<svg width="55px" height="55px" viewBox="0 0 55 55" version="1.1" xmlns="http://www.w3.org/2000/svg" xmlns:xlink="http://www.w3.org/1999/xlink">
    <title>sports_picto/baseball</title>
    <g id="sports_picto/baseball" stroke="none" stroke-width="1" fill="none" fill-rule="evenodd">
        <path d="M39.0447897,27.3150746 C39.5723682,27.3150746 40,26.8889862 40,26.363248 C40,25.8376372 39.5723682,25.4114851 39.0447897,25.4114851 C38.5172111,25.4114851 38.0895793,25.8376372 38.0895793,26.363248 C38.0895793,26.8889862 38.5172111,27.3150746 39.0447897,27.3150746 L39.0447897,27.3150746 Z M22.2860435,17.775046 C22.0088747,18.9780968 22.9720681,20.0631715 22.9720681,20.0631715 L23.4253731,20.0454815 C23.9128452,20.6932046 24.4733775,21.3375552 24.4733775,21.3375552 C24.4733775,21.3375552 24.9729198,21.3906254 25.4103228,21.4398139 C25.7975926,21.4833391 26.1179972,21.5595081 26.201978,21.2779308 C26.3990616,20.6172901 26.783266,19.3288435 26.8923453,18.9632066 C26.9453522,18.7855425 26.9728775,18.6073057 26.977795,18.4318051 L28.0429149,18.3691263 L28.0397856,18.1350195 L26.9447136,17.4186997 C26.9316215,16.4535737 25.6299503,15.8432669 24.6027654,15.857139 C23.5754529,15.871011 22.5631484,16.5719316 22.2860435,17.775046 L22.2860435,17.775046 Z M38.089707,47.8758783 C37.5948267,48.0494699 36.5669394,48.2247795 35.7455237,46.7727317 C34.938605,45.3463281 31.6081096,39.4612042 31.6081096,39.4612042 L27.0534736,34.315499 L22.5367726,39.9602164 C22.5367726,39.9602164 19.2753779,46.4883546 19.0767615,46.8859353 C18.8781452,47.2835797 18.5416471,48.1505195 17.240806,47.977437 C17.5663835,46.2256764 19.8569213,38.7274489 19.8569213,38.7274489 L23.0693964,30.7036741 L22.2378902,27.2434236 L21.4521743,27.4705307 L18.2290978,25.5780134 L18.3429669,25.897007 L19.767512,27.0688775 C19.767512,27.0688775 19.3230202,27.4835119 19.2737813,27.5258917 C18.5180813,28.1622245 18.0988157,27.2758129 18.0988157,27.2758129 L16.7168038,24.6646213 L16.2140683,24.3530727 L16.0496191,24.6345227 C16.0496829,24.6345227 16.0497468,24.6345227 16.0498107,24.6345864 C16.0494913,24.6350954 16.0490443,24.6355409 16.048725,24.6359863 L16.0464259,24.6398679 L16.0457872,24.6397407 C15.9537595,24.7691707 15.8092358,24.8608027 15.638528,24.8790654 C15.3221469,24.9132365 15.0377616,24.6855566 15.0034029,24.370381 C14.9853294,24.2048708 15.04038,24.0486511 15.1416679,23.9323295 L15.3163992,23.6228172 C14.7932911,22.9756668 15.0081926,22.4029036 15.340859,22.0932004 C15.6071709,21.8452852 15.9590602,21.8218681 16.2949836,21.8896376 C16.2949836,21.8896376 17.6506837,19.6286835 24.4396574,8.28738763 C24.6136862,7.99658354 24.9952083,7.85264506 25.5640428,8.21637289 C26.1328135,8.58010072 26.2151339,8.8412517 25.9395618,9.26288581 C19.8991353,18.5049834 17.3730679,22.3701961 17.3730679,22.3701961 L18.0200717,23.2759522 L19.3589755,23.9359566 C19.3589755,23.9359566 20.2476398,22.5340518 20.4194334,22.2630376 C20.7350481,21.7651709 21.1639571,21.5276915 21.946416,21.6092693 C22.5663416,21.6739844 26.8146231,22.1169993 27.9367733,22.2340209 C30.209557,22.4710548 29.3260657,25.3201077 29.2019784,25.8395461 L29.5345809,30.325756 L34.1175724,37.9489593 L38.089707,47.8758783 Z" id="picto" fill="#007DBC"></path>
    </g>
</svg>