<?xml version="1.0" encoding="UTF-8"?>
<svg width="55px" height="55px" viewBox="0 0 55 55" version="1.1" xmlns="http://www.w3.org/2000/svg" xmlns:xlink="http://www.w3.org/1999/xlink">
    <title>sports_picto/basketball</title>
    <g id="sports_picto/basketball" stroke="none" stroke-width="1" fill="none" fill-rule="evenodd">
        <path d="M22.4199542,26.3338866 C21.7935075,26.301942 21.1789349,26.461052 20.6472068,26.7924858 L21.4904081,27.9225346 C21.9696291,27.5078678 22.2942118,26.9548652 22.4199542,26.3338866 M21.1133869,28.1993425 L20.2700485,27.0691574 C19.7948769,27.4762638 19.4612342,28.0130557 19.3081058,28.6165976 C19.9229529,28.6766725 20.558391,28.542151 21.1133869,28.1993425 M18.8461812,28.5330921 C19.021891,27.8129422 19.4195717,27.173369 19.9903541,26.694268 L19.5407841,26.0917479 L17.4169603,27.6524018 C17.8054437,28.0936324 18.3064912,28.3908739 18.8461812,28.5330921 M17.1378837,27.2783979 L19.2616388,25.717744 L18.7765836,25.0676134 C18.2065563,25.4322178 17.5505272,25.6240898 16.877133,25.6240898 C16.8206451,25.6240898 16.7639512,25.6212291 16.707326,25.6185046 C16.6771945,26.1871049 16.8172132,26.7671481 17.1378837,27.2783979 M16.7704031,25.156636 C17.380926,25.1774783 17.978614,25.0165293 18.4966834,24.6924516 L17.6890359,23.6102175 C17.2091285,24.0262466 16.8983418,24.5725742 16.7704031,25.156636 M18.0659198,23.3332053 L18.8732927,24.4152351 C19.3352859,24.0179369 19.6637123,23.4972194 19.820753,22.912136 C19.2216923,22.8639807 18.6058157,22.9997282 18.0659198,23.3332053 M20.2851485,22.9865144 C20.1060069,23.6918159 19.7127189,24.3187202 19.1530556,24.7901245 L19.6385913,25.4407999 L21.7624151,23.880146 C21.3624693,23.4258379 20.8431645,23.123488 20.2851485,22.9865144 M22.041629,24.2540818 L19.9176679,25.8148038 L20.3674439,26.4175964 C20.9968419,26.0162115 21.7292636,25.826451 22.4750008,25.8712007 C22.4971704,25.2998759 22.3476111,24.7408794 22.041629,24.2540818 M23.1414626,26.2918614 C22.9999339,27.2333077 22.4975136,28.0637312 21.7265868,28.6301519 C21.0855205,29.1012837 20.336626,29.3285059 19.5941834,29.3285059 C18.4938693,29.3285059 17.4073511,28.8298567 16.7037569,27.8869801 C15.5254029,26.3077315 15.8613793,24.0716774 17.45272,22.9023959 C19.043992,21.7330463 21.2974018,22.0664554 22.4756871,23.6457039 C23.0464695,24.4106035 23.2829228,25.3504151 23.1414626,26.2918614 M25.7700403,14.836077 C25.7700403,14.836077 26.298268,14.7422866 26.8873763,14.6380069 C27.4092207,14.5457149 27.8565944,14.521467 27.8565944,14.1234876 L27.8565944,10.8528098 C27.8565944,9.23991378 26.4785078,8 25.0361086,8 C23.5924054,8 22.1572131,9.14598711 22.1572131,10.7801341 C22.1572131,11.3462824 22.2846713,11.8817121 22.5482361,12.3470543 C22.9454364,13.0485415 25.7700403,14.836077 25.7700403,14.836077 M26.9046041,15.412374 C26.9046041,15.412374 28.6025375,15.1034854 29.7793815,14.8982634 C30.5183236,14.7695996 31.0018688,14.9157002 31.6213146,15.2740382 C32.6345974,15.8595985 36.0626548,17.9076631 38.1127628,19.0855948 C38.7866374,19.47254 39.0554185,20.1834266 38.9906255,20.7883988 C38.8449099,22.1497566 38.3275955,26.1704855 38.2385738,27.1607682 C38.0965646,28.7375648 36.4748178,28.7193107 36.4748178,28.7193107 L36.4748178,21.3346583 L30.8041266,18.988603 L30.8041266,19.5400391 L32.6596498,20.7012833 C32.6596498,20.7012833 33.6132874,23.9008521 34.6454453,27.2530602 C35.3054553,29.3960731 34.9808726,31.4186638 33.8161086,33.1679203 C32.1853705,35.6194813 30.2344424,38.5595427 30.2344424,38.5595427 L30.902277,38.5595427 L32.1978624,36.910343 C32.1978624,36.910343 34.6273252,36.4223193 35.3955066,36.2936555 C37.1545952,35.9987298 37.532234,37.5992294 37.532234,37.5992294 C37.532234,37.5992294 30.3478302,41.0610299 29.1167633,41.7845173 C27.731813,42.5983214 26.0648347,41.2712241 26.4806355,39.86716 C27.4197222,36.6989228 28.5675328,33.0479066 28.5675328,33.0479066 L28.1642925,33.0479066 L26.1156945,36.2361688 L21.62775,36.2361688 L21.379354,36.5780237 L23.8672265,36.8549678 L22.2863873,38.5814067 C22.2863873,38.5814067 21.7633074,42.8426397 21.4379697,45.8703615 C21.1765327,48.299105 19.3310305,47.9869469 19.3310305,47.9869469 L19.3310305,38.7280522 C19.3310305,37.3414248 19.4789425,37.0078796 20.2349065,35.9251687 C21.8276885,33.645046 25.4639209,28.5292097 25.4639209,28.5292097 L25.9963354,27.7815425 L25.9963354,24.3063238 L22.398265,18.6075836 L22.398265,19.4795555 L23.3479903,21.1284828 L22.5777498,22.6590312 C22.5777498,22.6590312 21.8307086,21.8244529 20.4605152,21.7108418 L20.4605152,18.7989107 C20.4605152,17.3418553 21.1317129,16.4585087 22.6019099,16.1784315 C24.0931097,15.8943357 26.9046041,15.412374 26.9046041,15.412374" id="picto" fill="#007DBC"></path>
    </g>
</svg>