<?xml version="1.0" encoding="UTF-8"?>
<svg width="55px" height="55px" viewBox="0 0 55 55" version="1.1" xmlns="http://www.w3.org/2000/svg" xmlns:xlink="http://www.w3.org/1999/xlink">
    <title>sports_picto/bodyboard</title>
    <g id="sports_picto/bodyboard" stroke="none" stroke-width="1" fill="none" fill-rule="evenodd">
        <path d="M47.5262251,39.4738567 C47.0115487,39.1446557 46.3006205,38.7047821 45.4363682,38.205386 C45.4363682,38.205386 38.3128783,34.7000223 36.8771939,34.188676 L34.1270103,34.188676 L34.2262378,32.3487273 L35.4292769,30.8518329 L35.4292769,30.6066637 L35.4292769,30.4621958 L33.5678106,31.841339 L33.4717741,34.188676 L33.2300114,40.0972456 C35.4036723,40.8519344 37.7434216,41.4349818 40.1725972,41.6904267 C44.1783969,40.7272566 46.4053185,39.9384679 47.5262251,39.4738567 L47.5262251,39.4738567 Z M40.2412815,34.1242059 C40.6680512,34.3088629 41.0850956,34.4961841 41.4911232,34.6845708 L42.039382,33.4698378 L40.2412815,34.1242059 Z M22.3630746,26.7835925 C21.8310751,25.2195638 18.7816892,18.1812065 18.7816892,18.1812065 L17.9814866,18.0975552 L17.875497,19.6946181 C19.0049892,22.2663446 20.7598582,26.312892 20.7598582,26.312892 L22.3630746,26.7835925 Z M50,39.5925975 C50,39.5925975 49.4254527,39.9669353 49.1868811,40.1124688 C48.977941,40.2398867 47.2307459,41.3316926 40.3659618,42.9746534 L40.2597442,43 L40.1511713,42.9890393 C37.0487527,42.6755181 34.0921363,41.8497371 31.4237052,40.8087767 C31.190604,40.5636075 31.0258832,40.2952991 30.9107762,40.033765 C30.7742434,39.7235168 30.7077624,39.4236203 30.681246,39.1849971 C30.6782069,39.1576715 30.6757756,39.1311831 30.6737242,39.105456 C30.6760035,39.1064455 30.6782069,39.1073589 30.6804103,39.1082723 L30.227884,33.5346885 L20.3741927,30.8247356 L18.3403318,31.3355492 C19.4329745,32.2803753 21.4804356,33.9438113 24.1811574,35.659615 C25.7007218,36.6249924 27.5589211,37.6874175 29.6599468,38.6546979 C29.7148791,39.3073152 29.8668355,39.8310685 30.0580727,40.2474983 C27.4990503,39.1422961 25.2523743,37.8739014 23.4631632,36.7356648 C20.2090921,34.6653896 17.924427,32.7125611 17.0045587,31.88404 L17.0045587,30.3371374 L18.1576042,30.0475166 C17.8606053,29.720599 17.55107,29.1460765 17.3337723,28.1371608 C16.9773585,26.4816409 15.6620995,22.105664 14.8391794,19.3619918 L7.81354945,18.6194055 L7.30464733,16.9496519 L5,13.8780725 C5,13.8780725 7.40227935,14.8604238 10.5354692,15.3991719 L8.36089654,13 C8.36089654,13 13.117361,14.7618538 17.8659997,14.7618538 L20.9431176,14.7618538 C21.2614664,14.7980088 21.646676,14.9039621 21.7227302,15.3898096 L21.8532607,18.4954128 C23.2555907,20.9249548 26.3262505,25.2333408 26.3262505,25.2333408 L32.8802837,27.1386729 L33.2343422,27.150547 C34.5754337,25.9715885 35.8727618,24.8477378 36.1256933,24.6865244 C38.1486894,23.396589 40.2243384,23.3102736 42.5198683,23.810507 L44.2151703,25.3950109 L45.1308598,25.5451874 L43.5936685,23.9663162 C43.2039762,23.5203534 42.8953527,23.1129052 42.8055464,22.8551008 C42.6037483,22.2763919 42.5682664,21.6456198 42.6820818,21.0055615 C43.0102317,19.1580774 44.847841,18.1485528 46.4645055,18.4363468 C48.0803343,18.7238364 49.3750032,20.4005166 49.051108,22.2239481 C48.9475497,22.8082134 48.5820185,24.8663862 48.3947322,25.9218087 C48.3349373,26.2582408 48.0366468,26.3084773 47.6377612,26.3125114 C48.2430037,27.0120162 48.5700139,27.7020064 48.8394327,28.1878539 C49.5514246,29.420398 48.1809295,30.8264863 48.1809295,30.8264863 L45.290642,34.6595287 L48.8394327,37.1695252 C48.5147018,37.6195983 48.1386856,37.9074685 47.7648727,38.0890809 C48.7727238,38.7028031 50,39.5925975 50,39.5925975 L50,39.5925975 Z M17.9814866,18.0975552 L17.875497,19.6946181 C19.0049892,22.2663446 20.7598582,26.312892 20.7598582,26.312892 L22.3630746,26.7835925 C21.8310751,25.2195638 19.8956059,20.7731798 18.7816892,18.1812065 L17.9814866,18.0975552 Z M18.7816892,18.1812065 C19.8956059,20.7731798 21.8310751,25.2195638 22.3630746,26.7835925 L20.7598582,26.312892 C20.7598582,26.312892 19.0049892,22.2663446 17.875497,19.6946181 L17.9814866,18.0975552 L18.7816892,18.1812065 Z" id="picto" fill="#007DBC"></path>
    </g>
</svg>