<?xml version="1.0" encoding="UTF-8"?>
<svg width="55px" height="55px" viewBox="0 0 55 55" version="1.1" xmlns="http://www.w3.org/2000/svg" xmlns:xlink="http://www.w3.org/1999/xlink">
    <title>sports_picto/boxing</title>
    <g id="sports_picto/boxing" stroke="none" stroke-width="1" fill="none" fill-rule="evenodd">
        <path d="M38.9972339,14.9835906 L38.9595069,15.6161053 C38.9076062,16.4859065 38.137989,17.1559519 37.2492156,17.105163 L36.4322138,17.0585216 C35.7693161,17.7724208 35.0837684,18.500462 34.8801953,18.6799566 C34.2569701,19.229591 34.0791042,19.2830315 33.1084847,19.0845675 C32.1150067,18.8813442 30.1331921,18.2616797 30.1331921,18.2616797 L30.5725068,25.1276901 L32.2513937,27.1045789 L34.6524437,32.8345377 L32.6271353,33.7057667 L32.7295471,34.0508179 L34.0968908,33.6918286 L34.51029,35.1674242 L34.3825878,47.8630673 C32.8459937,48 32.1937262,46.8143154 31.9964063,45.366188 C31.7990864,43.9179925 30.7813602,36.3087111 30.7813602,36.3087111 L29.1452029,32.669593 L27.9285588,36.1194938 L24.7296832,36.0107092 L24.5533459,36.2883139 L26.2586347,36.5156738 L25.7931959,37.824217 L17.9968355,48 C16.6072586,47.2019287 16.8655115,45.6588186 17.5924686,44.3404168 C18.3194258,43.022083 22.5756305,35.9447585 22.5756305,35.9447585 L23.2971683,31.1623818 C23.2971683,31.1623818 22.7694765,29.4433806 22.7694765,28.236551 C22.7694765,27.0297215 23.2540914,25.7169629 23.2540914,25.7169629 C23.2540914,25.7169629 21.2094679,18.5188874 21.1982818,18.4775492 C21.8024004,19.1012251 22.8456948,19.9755817 24.5429241,21.4538289 C24.8213953,21.6962827 25.0956283,21.8249205 25.3639556,21.8249205 C25.6004616,21.8249205 25.829047,21.7286461 26.0394984,21.5355534 C26.8341975,20.8065603 27.9767771,19.2018509 28.0191592,19.144535 L27.6279933,19.1454869 C27.6177799,19.1592889 26.5986642,20.4638887 25.8256425,21.1730286 C25.6175534,21.3640136 25.2800946,21.5631575 24.7547651,21.0895364 C22.0174374,18.6215529 20.9435724,17.5581151 20.7933591,16.7758855 C20.647662,16.0176566 20.9313441,15.0770774 22.1280478,14.1990494 C23.324682,13.3210894 24.9546557,13.1320761 24.95542,13.1314642 L25.9377119,14.3852072 L26.3210962,14.3852072 L26.1800541,14.1549237 C26.1799152,14.1547197 25.957166,13.8221787 25.5208388,13.0786357 C25.1617721,12.4667221 24.6815344,11.4635238 24.6557577,11.100727 C24.6182391,10.5750252 24.7344078,10.0438163 24.9793207,9.5393275 C25.6857816,8.08174934 27.4788222,7.66258853 28.7839823,8.26783906 C29.9708895,8.8184253 30.6651916,10.2622694 30.2558222,11.6011363 C29.4746021,11.6518572 28.2681714,11.8693584 27.7468021,12.7114875 C27.1752691,13.6347291 27.5305145,14.6917079 27.9672585,15.2900234 L28.3869107,15.2900234 L28.22169,15.1122285 C27.8401122,14.5895183 27.5694921,13.6967364 28.0623056,12.9007048 C28.4557643,12.2650626 29.4839123,12.0659187 30.1543831,12.0043194 L31.0393352,12.0043194 C31.9296371,12.0043194 32.6580534,12.7171307 32.6580534,13.5882917 L32.6580534,14.2219622 C32.6580534,14.6719907 32.4633736,15.0793891 32.1527337,15.3684843 L33.7975065,16.6628855 L34.3773769,16.0840832 C34.2739924,15.859375 34.2224391,15.6082864 34.2380718,15.3464554 L34.2757988,14.7139407 C34.3276995,13.8442076 35.0973167,13.1741622 35.9860901,13.224883 L37.4755777,13.309939 C38.3643511,13.3607278 39.0491346,14.1138575 38.9972339,14.9835906" id="picto" fill="#007DBC"></path>
    </g>
</svg>