<?xml version="1.0" encoding="UTF-8"?>
<svg width="55px" height="55px" viewBox="0 0 55 55" version="1.1" xmlns="http://www.w3.org/2000/svg" xmlns:xlink="http://www.w3.org/1999/xlink">
    <title>sports_picto/cardiotraining</title>
    <g id="sports_picto/cardiotraining" stroke="none" stroke-width="1" fill="none" fill-rule="evenodd">
        <path d="M28.7315822,15.3814269 C28.7315822,15.3814269 27.9942441,12.6278162 28.1551268,11.9570331 C28.2619953,11.5119747 28.4959953,11.1011005 28.8288075,10.7444267 C29.7894648,9.7148598 31.3716808,9.81982414 32.2855869,10.6515806 C33.1986995,11.4826136 33.3420657,13.0578022 32.3939202,14.0739848 C32.0902817,14.3995491 31.0200704,15.5465603 30.4712629,16.1346862 C30.237385,16.3853707 29.9399108,16.1429459 29.5553427,15.9004608 C29.1211549,15.6266853 28.7315822,15.3814269 28.7315822,15.3814269 L28.7315822,15.3814269 Z M32.5742723,33.0712641 L28.376493,26.7581504 L29.0230141,25.2249838 L32.9108685,25.2249838 L38.6868967,42.5884127 L34.6448732,42.5884127 L32.5742723,33.0712641 Z M45.7793427,42.5884127 L40.1259906,42.5884127 L34.3500235,25.2249838 L35.9496338,25.2249838 L35.9454225,25.2302893 L37.7042676,25.2302893 L43.8269014,17.568194 L42.1478873,17.568194 L37.023385,23.8986108 L29.5823192,23.8986108 L30.0221831,22.8555992 C30.7267465,21.1059926 30.6452066,19.8955566 30.6452066,19.3193681 L30.9843662,19.5300806 L30.9911408,20.9869205 L33.1056244,21.8400798 C34.2699484,22.2890571 34.525554,22.0058161 34.8960235,21.2848721 C35.5886244,19.9372168 36.7223099,17.7318805 37.0332113,17.1679308 C37.7017653,15.9544803 36.6117793,15.0005769 36.6117793,15.0005769 L33.7076526,19.2796372 L26.1318873,14.6141804 C26.1318873,14.6141804 25.5307136,14.1901027 24.1529577,14.6141804 C24.1529577,14.6141804 22.3385728,15.1545568 21.612892,15.3707556 C20.0902441,15.8242546 19.9930798,15.8748376 19.4524507,17.0948597 C18.7390986,18.7048957 17.6226244,21.3329833 17.2988451,22.0966727 C16.6820469,23.5514025 17.766723,24.3850882 17.766723,24.3850882 L21.7921455,17.7441796 L24.8064366,17.1775771 L24.2103897,22.9636383 C24.2103897,22.9636383 23.6876432,23.5817282 23.1455493,24.2226678 C22.6033944,24.8635471 21.3915258,26.2619061 22.1330751,28.1959991 L20.3943099,31.4877555 C20.3943099,31.4877555 12.3263756,33.0461233 11.0412676,33.2943359 C9.75603756,33.5425485 9.28046948,34.6191414 9.42926761,35.1317846 L21.4723333,34.4421912 C22.5914319,34.3592929 22.8046197,34.2466718 23.3351174,33.6133889 C23.6225822,33.2700995 25.3274742,31.141753 25.3274742,31.141753 L23.9650986,29.5057322 L24.166446,29.1025751 L29.8740563,34.3856998 C29.8740563,34.3856998 31.6652488,39.7481657 32.5364319,42.2624866 C32.5772019,42.3799912 32.6212676,42.4882112 32.6678357,42.5884127 L9.22065728,42.5884127 C8.54648826,42.5884127 8,43.1283068 8,43.7942063 C8,44.4601662 8.54648826,45 9.22065728,45 L45.7793427,45 C46.4534507,45 47,44.4601662 47,43.7942063 C47,43.1283068 46.4534507,42.5884127 45.7793427,42.5884127 L45.7793427,42.5884127 Z" id="picto" fill="#007DBC"></path>
    </g>
</svg>