<?xml version="1.0" encoding="UTF-8"?>
<svg width="55px" height="55px" viewBox="0 0 55 55" version="1.1" xmlns="http://www.w3.org/2000/svg" xmlns:xlink="http://www.w3.org/1999/xlink">
    <title>sports_picto/hunt</title>
    <g id="sports_picto/hunt" stroke="none" stroke-width="1" fill="none" fill-rule="evenodd">
        <path d="M17.5720571,12.2890561 C17.9269553,11.8736539 18.5458553,11.8295372 18.9542178,12.1906583 C19.3626509,12.5517089 19.4059449,13.1812003 19.0509055,13.5966731 C18.6960073,14.0120753 18.0771778,14.0561214 17.6687448,13.6950708 C17.2603823,13.3339497 17.2170882,12.7044583 17.5720571,12.2890561 L17.5720571,12.2890561 Z M28.0929346,12.0075567 C27.7626851,13.075038 26.7593649,15.9164316 26.7593649,15.9164316 L22.6995414,15.6501083 C22.6995414,15.6501083 25.706465,13.2750805 25.8908001,13.1263545 C26.321975,12.7786448 26.3089797,12.2532687 26.2074894,11.8459133 C26.6378167,11.6771407 26.9512571,11.5968838 26.9512571,11.5968838 L28.5895802,11.04292 C28.3751581,11.2946319 28.2127878,11.6199656 28.0929346,12.0075567 L28.0929346,12.0075567 Z M42,5.73953595 L41.7439789,5 C41.7439789,5 28.6236222,9.28813679 25.8979334,10.1670813 C25.1627821,10.3954996 24.4193675,11.1551527 24.4193675,11.1551527 L22.7649416,13.1341896 L21.6186028,13.8090682 C21.6288436,13.2675983 21.6377425,12.7963621 21.6421214,12.5684379 C21.6508791,12.0973428 21.6472065,11.6789054 21.5504482,11.3062081 C21.9913695,10.9735334 22.4839187,10.5711897 22.6567418,10.3154544 C22.5690943,9.89948745 21.4193654,9.9282162 20.6484064,10.1371526 C20.1024635,9.78499596 19.38059,9.54450737 18.8246888,9.53377821 C18.3960565,9.52559016 17.9663649,9.61968211 17.5715627,9.79847801 C17.5219829,10.1296704 17.4863871,10.9760039 17.8134585,11.5999896 C18.2828422,11.420276 18.8318927,11.5014507 19.2370063,11.8596777 C19.8251133,12.3796187 19.8874765,13.286092 19.3763524,13.8843136 C18.8652284,14.4825351 17.9740631,14.5459925 17.3859562,14.0260515 C16.8695352,13.5693561 16.7587928,12.8147852 17.0857229,12.2325162 C16.6032733,11.455287 16.7278584,10.6448821 16.824193,10.278467 C16.2474569,10.7814672 15.853361,11.5108387 15.8369757,12.3808187 C15.8254636,12.971911 15.9120517,13.5527682 16.2045866,14.025275 C16.6243906,14.70333 17.9977936,15.9385958 17.9977936,15.9385958 C17.9977936,15.9385958 17.4082036,16.2833408 17.2805108,16.3586567 C15.6489679,17.3212464 14.868545,18.2252491 15.0124112,19.9114222 C15.0836027,20.7457559 15.6449422,27.4377905 15.6449422,27.4377905 C14.9891751,29.0904348 14.8656493,30.5873652 14.8193184,31.6376234 C14.773058,32.6878816 14.5545396,39.250672 14.5545396,39.250672 C14.5545396,39.250672 13.2593201,46.0635508 13.0795756,47.1620903 C12.7715734,49.0439294 13.3765601,49.848758 14.5673936,49.9454617 L17.2854547,40.4865731 L19.1554327,33.9258296 L21.2278969,39.9724907 C21.2278969,39.9724907 22.1897593,46.9095314 22.3284698,47.9517427 C22.4610357,48.9476493 23.3348975,50.254631 24.7474982,49.9568967 L24.311874,39.5960523 L23.0966743,30.5181197 L22.5966386,27.7625595 C22.5966386,27.7625595 22.8895267,24.5479039 23.2795969,20.2020273 C23.2921685,20.0617717 23.0159482,18.6072639 23.0159482,18.6072639 L27.3076385,18.6072639 C28.0668734,18.6072639 28.355524,18.2445193 28.5330084,17.5169831 C28.7060433,16.8079405 30.2530463,10.4804153 30.2530463,10.4804153 L36.3564477,8.41667446 L36.1980325,7.80454734 L42,5.73953595 Z" id="picto" fill="#007DBC"></path>
    </g>
</svg>