<?xml version="1.0" encoding="UTF-8"?>
<svg width="55px" height="55px" viewBox="0 0 55 55" version="1.1" xmlns="http://www.w3.org/2000/svg" xmlns:xlink="http://www.w3.org/1999/xlink">
    <title>sports_picto/city_bike</title>
    <g id="sports_picto/city_bike" stroke="none" stroke-width="1" fill="none" fill-rule="evenodd">
        <path d="M20.1418708,11.8520819 C19.8869233,9.72240297 21.3209702,9 22.6480373,9 C25.0682485,9 25.8309025,10.6854317 26.0692692,11.2820993 C26.154097,11.4944625 26.2180992,11.940813 26.1496533,12.1176838 C26.1139713,12.209767 26.0353116,12.258602 25.8171073,12.258602 C25.7010411,12.258602 25.5522775,12.2563673 25.3140434,12.2543955 C25.2913608,12.5681751 25.2050076,12.8838608 25.0446373,13.1830491 C24.8408915,13.5630813 24.1649223,14.8240494 23.7965615,15.5109599 C23.6396401,15.8038384 23.3216189,15.762562 22.9051736,15.615597 C22.4423018,15.4522659 21.7410633,15.1877157 21.7410633,15.1877157 C21.7410633,15.1877157 20.5597753,12.8938513 20.543725,12.2238325 L20.1418708,11.8520819 Z M40.2904226,46.0979 C36.5412872,46.0979 33.4912016,43.0751914 33.4912016,39.3597884 C33.4912016,36.7127083 35.0397229,34.4176608 37.2859676,33.3164744 L39.8695999,39.5315981 C39.9419588,39.7057741 40.1116807,39.8110027 40.2905552,39.8110027 C40.3483893,39.8110027 40.4070856,39.8000263 40.4637922,39.7768905 C40.6962561,39.681981 40.8070164,39.4183509 40.7112452,39.1879786 L38.1270823,32.9715403 C38.8069646,32.7447829 39.5344672,32.6217424 40.2904226,32.6217424 C44.0395579,32.6217424 47.0896435,35.644451 47.0896435,39.3597884 C47.0896435,43.0751914 44.0395579,46.0979 40.2904226,46.0979 L40.2904226,46.0979 Z M25.7588752,28.0044366 L23.8391412,25.9421933 L24.3005539,21.7165533 L25.0230822,19.5750435 C27.1154563,20.1626409 29.8347865,20.8885274 31.6503926,21.2322127 C32.6155986,21.4644911 33.2559521,21.2301752 33.6560155,20.9360478 L36.1854616,20.9360478 L36.7717614,24.0938907 L34.5186191,25.7724868 C34.3528767,25.8959217 34.2923233,26.1148575 34.3712483,26.3048079 L35.0777926,28.0044366 L25.7588752,28.0044366 Z M28.3192943,37.3668211 C28.3192943,37.3668211 29.2563792,34.1675047 29.4283561,33.5941043 C29.7357655,32.569161 29.5722117,32.0198823 29.1011159,31.5499359 C28.798747,31.2502876 27.7205257,30.1036183 26.6180963,28.9246114 L35.4027778,28.9246114 L28.3192943,37.3668211 Z M22.4099359,38.9808078 C22.3012317,36.7315061 21.2063632,34.7343981 19.5454898,33.4050741 L21.6566998,30.4202241 L26.005864,34.0113379 L25.0496779,38.9808078 L22.4099359,38.9808078 Z M21.4984519,38.9808078 L15.6018939,38.9808078 L19.022131,34.1451576 C20.4495456,35.3086529 21.3918037,37.0363469 21.4984519,38.9808078 L21.4984519,38.9808078 Z M14.7095111,46.0886326 C10.9603757,46.0886326 7.91029017,43.065924 7.91029017,39.3505209 C7.91029017,35.6351178 10.9603757,32.6124749 14.7095111,32.6124749 C16.0125691,32.6124749 17.2309983,32.9779158 18.2665073,33.6103388 L14.3293448,39.176805 C14.2299258,39.3173289 14.2177223,39.5010352 14.2976421,39.6532584 C14.3775619,39.8054816 14.5363404,39.9009826 14.7095111,39.9009826 L21.4859831,39.9009826 C21.2024501,43.3598541 18.2716142,46.0886326 14.7095111,46.0886326 L14.7095111,46.0886326 Z M40.2904226,31.7196424 C39.4117687,31.7196424 38.5671388,31.8664103 37.7797461,32.1359558 L35.3470661,26.2839068 L37.0568198,25.0101219 L37.5827653,28.05268 L42.9261188,28.05268 L44.3374831,20.0514969 L33.5306641,20.0338822 C33.5306641,20.0338822 22.2347092,15.984127 22.0457535,15.916297 C21.4585915,15.7055112 20.8089527,15.9218837 20.0447732,16.6419205 C19.4109194,17.2392455 18.9124319,18.0048309 18.8514806,18.8702553 C18.6288989,22.0286897 18.5198631,23.6980841 18.3856906,25.4410267 C18.2418349,27.3096388 18.3847621,27.7582241 20.5240269,29.4807914 C20.6589952,29.5929212 20.9419313,29.8276973 20.9419313,29.8276973 L18.7895345,32.8708469 C17.6053945,32.1359558 16.2067644,31.7103092 14.7095111,31.7103092 C10.4585057,31.7103092 7,35.1376976 7,39.3505209 C7,43.5633442 10.4585057,46.9907325 14.7095111,46.9907325 C18.7738158,46.9907325 22.1132708,43.8578001 22.3989262,39.9009826 L24.8737217,39.9009826 C24.6340948,41.1562325 24.4283593,42.2431562 24.3460518,42.702915 C24.1645244,43.7165533 24.5174981,45.0793322 25.9717737,45.414473 L27.6741655,39.5749121 L35.8413089,29.8411713 L36.9384324,32.4803641 C34.361764,33.7183279 32.5808451,36.3368169 32.5808451,39.3597884 C32.5808451,43.5726117 36.0393509,47 40.2904226,47 C44.5414943,47 48,43.5726117 48,39.3597884 C48,35.1470308 44.5414943,31.7196424 40.2904226,31.7196424 L40.2904226,31.7196424 Z" id="picto" fill="#007DBC"></path>
    </g>
</svg>