<?xml version="1.0" encoding="UTF-8"?>
<svg width="55px" height="55px" viewBox="0 0 55 55" version="1.1" xmlns="http://www.w3.org/2000/svg" xmlns:xlink="http://www.w3.org/1999/xlink">
    <title>sports_picto/road_bike</title>
    <g id="sports_picto/road_bike" stroke="none" stroke-width="1" fill="none" fill-rule="evenodd">
        <path d="M49.150385,37.7196761 C49.150385,33.6183614 45.784352,30.2816392 41.6469393,30.2816392 C40.981974,30.2816392 40.3371162,30.3683173 39.7227738,30.5300229 L42.0435679,37.5049109 C42.1170596,37.7257822 41.9959895,37.9638488 41.773178,38.0367005 C41.728998,38.0511586 41.6841808,38.0580367 41.6400716,38.0580367 C41.4617233,38.0580367 41.2956235,37.9458113 41.2367169,37.7687353 L38.9152855,30.7920927 C36.1247959,31.8771486 34.1437061,34.5732948 34.1437061,37.7196761 C34.1437061,41.8211312 37.5096683,45.1577833 41.6469393,45.1577833 C45.784352,45.1577833 49.150385,41.8211312 49.150385,37.7196761 L49.150385,37.7196761 Z M37.9437508,27.8723379 L37.6431287,26.9687095 L30.4915652,26.9687095 C30.4788918,26.9892034 30.466714,27.0096974 30.4535449,27.0301211 C30.0563499,27.6458518 25.8450208,34.1719786 24.2527715,36.639463 L24.7956755,38.2612917 L37.9437508,27.8723379 Z M21.7059089,37.7196761 C21.7059089,37.8862947 21.7003156,38.0516499 21.6904742,38.2158821 L23.9692833,38.4667925 L23.6633511,37.552847 C23.6530141,37.568779 23.6472084,37.5778328 23.6472084,37.5778328 C22.8999012,37.5018929 22.1575501,36.7028398 22.7438552,34.8061678 L20.3794475,27.7429874 L18.2441526,31.0118411 C20.3399404,32.5176544 21.7059089,34.9633114 21.7059089,37.7196761 L21.7059089,37.7196761 Z M20.8562939,37.7196761 C20.8562939,35.25914 19.6445305,33.0742894 17.7817496,31.7195838 L14.0851456,37.3785082 L20.8451781,38.122747 C20.8523998,37.9892557 20.8562939,37.8549221 20.8562939,37.7196761 L20.8562939,37.7196761 Z M20.7514373,38.9598402 L13.3079603,38.1402932 C13.1615433,38.1241507 13.034101,38.0341037 12.9709463,37.9021564 C12.9078624,37.7702793 12.9181994,37.6153816 12.9982756,37.4929093 L17.0697015,31.2601546 C15.9732733,30.6378266 14.7043025,30.2816392 13.3529191,30.2816392 C9.21557722,30.2816392 5.849615,33.6183614 5.849615,37.7196761 C5.849615,41.8211312 9.21557722,45.1577833 13.3529191,45.1577833 C17.0641082,45.1577833 20.1540871,42.4729367 20.7514373,38.9598402 L20.7514373,38.9598402 Z M23.2212681,33.5581429 C24.0357656,31.575635 25.3833258,28.5087028 26.0642923,26.9687095 L21.0154551,26.9687095 L23.2212681,33.5581429 Z M19.9659682,23.8338385 L20.7334537,26.1264928 L26.4376272,26.1264928 L20.8188401,23.8338385 L19.9659682,23.8338385 Z M23.6620766,19.2119637 C23.6620766,19.2119637 29.4403791,23.2004915 30.2481505,23.7685667 C30.8664578,24.2032909 31.2014185,25.0677562 30.8784232,26.1264928 L37.3628973,26.1264928 L36.9806414,24.9777794 L36.0475517,24.9777794 C35.7023248,24.9777794 35.3726742,24.8349534 35.1382512,24.5837623 L29.0737702,18.0738482 L28.8071327,18.0590392 L29.3490454,19.528567 L23.6620766,19.2119637 Z M50,37.7196761 C50,42.2854733 46.2528439,46 41.6469393,46 C37.0411764,46 33.2940911,42.2854733 33.2940911,37.7196761 C33.2940911,34.2009649 35.51987,31.1883556 38.6488604,29.9914253 L38.2275222,28.7251525 L24.8490596,39.2960953 C24.7728775,39.3563138 24.6792782,39.3878969 24.5841921,39.3878969 C24.5437646,39.3878969 24.5030539,39.3822119 24.4632636,39.3704911 C24.4606439,39.3697191 24.4582367,39.3685259 24.4555463,39.3676837 L21.5970874,39.0529754 C20.9518756,42.9870399 17.5009519,46 13.3529191,46 C8.74708535,46 5,42.2854733 5,37.7196761 C5,33.1539491 8.74708535,29.4394224 13.3529191,29.4394224 C14.8743671,29.4394224 16.3020035,29.84502 17.5319628,30.552482 L20.0364154,26.7185711 L19.0707572,23.8338385 L16.4820511,23.8338385 C16.2474866,23.8338385 16.0572436,23.6452521 16.0572436,23.4127301 C16.0572436,23.180138 16.2474866,22.9916218 16.4820511,22.9916218 L18.6322851,22.9916218 C18.6322851,22.9916218 17.3318785,22.4913451 16.6237244,22.2195898 C15.8713903,21.9308498 15.5018078,21.5374644 15.3493019,20.6520841 C15.2314178,19.9680638 14.9725684,18.2886836 14.9725684,18.2886836 C15.251313,17.6205952 17.6297394,12.7262633 26.4175197,12.5429408 C31.1696996,12.4437698 31.3903163,12.4493845 32.3627006,14.1731214 C32.6670044,14.7126314 37.1853278,22.633048 37.1853278,22.633048 L42.4476307,23.2795897 C42.9447971,23.3407206 43.3180612,23.7594427 43.3180612,24.2559996 L43.3180612,24.9777794 L43.3120431,24.9777794 C43.302839,25.495111 43.2018056,26.2634934 42.740323,26.7779474 C42.4363733,27.1168695 42.0151058,27.2959809 41.5221875,27.2959809 C41.2875522,27.2959809 41.09738,27.1074647 41.09738,26.8748725 C41.09738,26.6423505 41.2875522,26.4537642 41.5221875,26.4537642 C41.77601,26.4537642 41.9612969,26.3790174 42.1053774,26.2182944 C42.3716609,25.9214832 42.4491175,25.3833769 42.4601625,24.9777794 L37.875286,24.9777794 L39.4562071,29.7290046 C40.1547322,29.5406288 40.8890828,29.4394224 41.6469393,29.4394224 C46.2528439,29.4394224 50,33.1539491 50,37.7196761 L50,37.7196761 Z M31.3440123,10.318857 L30.831128,9.3757848 C31.1347238,9.0950459 33.449783,7.68629806 35.7971277,8.06382171 C39.0175225,8.58164462 38.9666872,11.5011187 39.0072563,11.6895647 L38.5333836,12.5284125 C38.5333836,12.5284125 38.2724102,12.6006326 37.9087749,12.6837313 C37.6246495,13.2936366 36.9777385,14.698805 36.6014299,15.4994022 C36.4255596,15.8739781 35.9698827,15.8103907 35.4376697,15.6703722 C34.8367087,15.5123864 34.2555013,15.3703325 34.2555013,15.3703325 C34.2555013,15.3703325 32.4230233,12.3894468 32.3215651,11.6293462 C32.3124318,11.5607055 32.3066969,11.4917841 32.304148,11.4227925 C31.8307709,11.2062025 31.5096872,11.0546737 31.5096872,11.0546737 L31.3440123,10.318857 Z" id="picto" fill="#007DBC"></path>
    </g>
</svg>