<?xml version="1.0" encoding="UTF-8"?>
<svg width="55px" height="55px" viewBox="0 0 55 55" version="1.1" xmlns="http://www.w3.org/2000/svg" xmlns:xlink="http://www.w3.org/1999/xlink">
    <title>sports_picto/mountain_bike</title>
    <g id="sports_picto/mountain_bike" stroke="none" stroke-width="1" fill="none" fill-rule="evenodd">
        <path d="M42.9288986,45.5925121 C41.5317446,47.0783824 39.6384641,47.9320294 37.5982241,47.9961239 C37.5158714,47.9987541 37.4337267,48 37.3517206,48 C35.4018052,48 33.5547614,47.2709427 32.1266905,45.9320189 C30.6385881,44.5368222 29.7836588,42.6465198 29.719468,40.6092709 C29.6552079,38.5720912 30.389381,36.6318145 31.7867429,35.1459441 C33.0471969,33.8054284 34.711512,32.9797449 36.523341,32.7838622 L36.4727371,31.0229947 C36.4727371,31.0229947 27.8670172,36.1290259 27.677495,36.2366576 C27.5172955,36.3276773 27.3575811,36.3296153 27.2148503,36.2814407 C26.9739616,36.2000421 24.5877433,35.2890838 24.5877433,35.2890838 C24.2471025,36.026101 23.7860521,36.7115519 23.2133264,37.3205186 C21.8161724,38.806389 19.9228919,39.6600359 17.8825826,39.7241996 C17.8002992,39.7267606 17.7180851,39.7280065 17.6361484,39.7280065 C15.686233,39.7280065 13.8391199,38.9989493 12.4111183,37.6600255 C10.9230158,36.2648979 10.0680865,34.3745264 10.0038958,32.3373466 C9.9395664,30.3000977 10.6737394,28.3598211 12.0711707,26.8739507 C13.4683247,25.3880803 15.3615359,24.5345025 17.4018452,24.4703389 C19.6268935,24.4004994 21.6625583,25.2924231 23.1076127,26.7692261 L21.4566765,21.07174 C21.4566765,21.07174 20.4533321,18.2277037 21.802447,16.7912539 C21.9513473,16.6326789 22.2373636,16.4389419 22.6234786,16.2208408 C22.6234092,16.2203562 22.6232706,16.2198025 22.6232013,16.219318 L24.4953391,15.2509101 L24.3464387,15.0798069 L22.5701018,15.8198696 C22.5125658,15.3213725 22.4842137,14.7591269 22.5415418,14.2318357 C22.7086041,12.6967524 23.8448358,12.3616754 24.5220968,12.1262009 C26.2559403,11.5233945 29.6212409,10.8126796 30.561573,11.0111232 C31.2748113,11.1616691 31.624741,11.9429848 31.750627,12.3051255 C31.91353,12.2381239 32.0663817,12.1746524 32.206409,12.1155415 C32.9854324,11.7866248 33.3525536,12.2268417 34.2440841,13.466509 C35.3504387,15.0049839 35.6956546,16.5864423 35.6956546,16.5864423 L38.1387158,26.3924116 C38.1387158,26.3924116 36.5866999,26.3812677 36.1951086,25.4903823 C35.9243429,24.8742863 33.5478293,18.3191386 33.5478293,18.3191386 L28.8675195,19.7150968 C29.9530086,21.3423765 31.6836634,23.9356415 31.9901292,24.3872099 C32.4283731,25.0328613 32.6171328,25.5124623 32.5035859,26.258893 C32.461647,26.4534605 32.3808886,26.8114482 32.2757295,27.270838 L36.3954447,28.3313731 L36.3697268,27.436127 C36.3648744,27.2692461 36.440711,27.110325 36.5733904,27.0089228 C36.7062084,26.9074515 36.8797868,26.8760272 37.0397091,26.9242711 L38.6537669,27.4110014 L38.6382391,26.6640171 C38.6321389,26.3742076 38.8624215,26.1344417 39.1525969,26.1283507 C39.4399996,26.1214982 39.6830371,26.3523352 39.689068,26.6421447 L39.7533281,29.7216555 C39.7594283,30.0113957 39.5290071,30.2512309 39.2388316,30.2572527 C39.2351576,30.2573219 39.2314143,30.2573911 39.227671,30.2573911 C38.9424173,30.2573911 38.7083914,30.0295304 38.7023605,29.7434587 L38.676504,28.502407 L37.4297754,28.1264231 L37.5623161,32.7415709 C41.5754858,32.8462263 44.8683466,36.0726837 44.9961042,40.1291853 C45.0604336,42.166365 44.3262605,44.1066417 42.9288986,45.5925121 L42.9288986,45.5925121 Z M32.0405945,28.2942038 C31.6767313,29.8708863 31.1998065,31.916372 30.9255748,33.0905605 L36.4382155,29.8227116 L36.4267776,29.4233324 L32.0405945,28.2942038 Z M26.3671303,25.7497365 L29.7810939,26.6286474 C29.7961364,26.4349797 29.8045242,26.3252024 29.8045242,26.3252024 L25.781719,21.9948111 L26.3671303,25.7497365 Z M37.6186737,34.7042045 L37.7481643,39.2094366 C38.2200287,39.3678731 38.5671856,39.8046292 38.5836839,40.3306745 C38.6050346,41.0067812 38.0734852,41.5720723 37.3963629,41.5933217 C36.71931,41.6146404 36.1531697,41.0838191 36.1318883,40.4077817 C36.117539,39.9549674 36.3520501,39.5528196 36.7114074,39.3295272 L36.5798372,34.7514102 C35.2946358,34.9264587 34.1173663,35.5298188 33.2171014,36.4870828 C32.1786808,37.5915012 31.6330594,39.0335575 31.6807519,40.5476682 C31.7284444,42.0617789 32.3639051,43.4667352 33.4698438,44.5036675 C34.5757825,45.5406689 36.0219461,46.0856795 37.5365289,46.0377817 C39.0529141,45.9901608 40.4599116,45.3557224 41.4984708,44.2513734 C42.5369607,43.1470243 43.0825821,41.7048987 43.0348896,40.190788 C42.9409604,37.2126793 40.5516919,34.8368233 37.6186737,34.7042045 L37.6186737,34.7042045 Z M25.6848783,28.2179273 C25.5040212,28.4758971 25.1929802,28.9199209 24.8142132,29.4611938 C25.0910792,30.2106008 25.2540516,31.0159346 25.280532,31.8571919 C25.3070817,32.6990028 25.1970008,33.5241326 24.9604101,34.307594 L26.742362,34.9807936 L25.6873045,28.2134974 C25.686542,28.2150202 25.6857794,28.2164045 25.6848783,28.2179273 L25.6848783,28.2179273 Z M18.9351446,32.0316866 L20.5241083,32.6318628 C20.8754244,31.9360294 21.6063394,30.3768588 22.2116457,29.074066 L18.888076,31.7699099 C18.9137245,31.8538695 18.9300842,31.9412899 18.9351446,32.0316866 L18.9351446,32.0316866 Z M20.9187497,35.0295912 C20.9187497,35.0295912 20.3731283,34.433568 20.2960439,33.6679644 L18.5077146,32.9924807 C18.2822844,33.1876712 17.9898907,33.311638 17.6807907,33.3213283 C17.0038071,33.3426469 16.4375975,32.8118257 16.4163161,32.1357882 C16.3950347,31.4597508 16.9265147,30.8944597 17.6036371,30.873141 C17.805013,30.8668423 18.0023684,30.9102411 18.1812845,30.9909475 L21.7011004,28.1358365 C20.6664232,27.0798005 19.2261519,26.4258431 17.6446054,26.4258431 C17.5844353,26.4258431 17.5241265,26.4267429 17.4635404,26.428681 C15.9471552,26.4763712 14.5401577,27.1108095 13.5015292,28.2151586 C12.4631086,29.3195077 11.9174872,30.761564 11.9651104,32.2756747 C12.0128722,33.7898547 12.6482636,35.1947418 13.7542716,36.231674 C14.860349,37.2686754 16.3062352,37.8136169 17.8209567,37.7658575 C19.3373419,37.7181673 20.7443394,37.083729 21.7828986,35.9793799 C22.1763616,35.5609662 22.4986324,35.0939626 22.745136,34.593112 L21.54201,34.1385674 C21.1626191,34.6808785 20.9187497,35.0295912 20.9187497,35.0295912 L20.9187497,35.0295912 Z M23.3019873,31.6223403 C22.9055435,32.1890157 22.5123579,32.7511228 22.1628441,33.2508659 L23.1179414,33.6116914 C23.2680896,33.0678575 23.3375487,32.4987595 23.3192481,31.9187945 C23.3161286,31.8192612 23.3101671,31.7204893 23.3019873,31.6223403 L23.3019873,31.6223403 Z M27.8004696,34.9431398 L29.1529118,34.1414052 C29.3059714,32.6038993 29.5563569,29.4899879 29.6979787,27.6911898 L26.5432043,26.8790035 L27.8004696,34.9431398 Z M35.2288506,14.1252423 C35.4620447,14.5298127 35.6960012,14.8422559 36.0288781,14.722373 C36.8093572,14.4416309 38.2267528,13.9184927 38.6586193,13.7630324 C38.7229487,13.7398449 38.7851985,13.7136811 38.8462005,13.6859253 C39.2260766,13.844431 39.53483,13.9520627 39.53483,13.9520627 L40.2756578,13.5928983 C40.3395019,13.4409681 41.8037581,11.4165934 39.813221,9.49320562 C38.3624129,8.0911564 36.0598644,7.95846839 35.7109745,8.0084427 L35.6068551,8.91877797 L35.3621539,9.51549333 C35.3621539,9.51549333 35.487208,9.73456352 35.6798496,10.0636187 C35.2721066,10.9325625 34.7040254,13.2331802 34.7040254,13.2331802 C34.7040254,13.2331802 34.9653635,13.6685519 35.2288506,14.1252423 L35.2288506,14.1252423 Z M36.6469394,18.3830947 L40.3584264,25.0749449 C40.3584264,25.0749449 38.7811086,25.4508597 38.2930925,24.5449542 L36.6469394,18.3830947 Z" id="picto" fill="#007DBC"></path>
    </g>
</svg>