<?xml version="1.0" encoding="UTF-8"?>
<svg width="55px" height="55px" viewBox="0 0 55 55" version="1.1" xmlns="http://www.w3.org/2000/svg" xmlns:xlink="http://www.w3.org/1999/xlink">
    <title>sports_picto/classical_dance</title>
    <g id="sports_picto/classical_dance" stroke="none" stroke-width="1" fill="none" fill-rule="evenodd">
        <path d="M33.4507256,13.3102625 C33.8412785,13.4090031 34.2344947,13.3360239 34.5526761,13.1388119 C35.0871065,13.9600128 35.721339,14.7945317 35.721339,14.7945317 C35.721339,14.7945317 36.1810676,14.8751787 36.6931274,14.9646371 C37.1473966,15.044477 37.5201063,15.1585533 37.6390832,14.8274227 C37.9180496,14.0510182 38.4622005,12.5368175 38.6167972,12.107081 C39.0992959,10.7655417 38.3435566,9.32136072 37.1654395,8.88913552 C35.9855914,8.45637223 34.4706507,8.97933378 33.9822931,10.3386302 C33.9685778,10.3767677 33.9568598,10.4151743 33.9446093,10.4535136 C33.244397,10.3811398 32.5796713,10.8369739 32.4039691,11.5469909 C32.2110228,12.3259514 32.6794734,13.1155392 33.4507256,13.3102625 M45.7406936,10.6844911 C44.4730942,12.9135516 43.2898506,15.0503288 43.2898506,15.0503288 L39.399967,18.6348519 L39.2027598,17.0989256 L38.933181,17.2861828 L38.9221955,17.2937834 C38.9221955,17.2937834 38.9827824,19.2721587 38.9827824,19.8378988 C38.9827824,20.5590813 38.910411,20.6936724 38.5438931,21.1727792 C38.2874304,21.5081472 34.5432885,26.2842155 34.5432885,26.2842155 L34.538628,47.9960319 C32.8274121,48.0932254 32.552507,46.3809383 32.493984,45.4981926 C32.4353944,44.6155815 31.9126154,36.2391837 31.9126154,36.2391837 L29.6567825,27.3320219 L31.5404382,27.0363384 L31.1177276,26.6771597 L29.1985852,26.7412603 L20.1083418,25.9380183 C20.1083418,25.9380183 13.4889152,25.164506 11.1515896,24.894113 C8.81433048,24.6237201 9.00368142,22.7212835 9.00368142,22.7212835 L20.3186652,23.1038694 L27.0747787,22.2854934 C28.0140765,21.7399991 29.6053834,21.2489197 31.132841,21.3276162 L31.8451707,20.3385967 L32.0082895,18.1967076 L27.157137,18.1578302 C27.157137,18.1578302 21.9258845,17.4223209 21.1682144,17.315778 C20.4104112,17.2092351 19.3602591,16.7269671 19.3018027,15.2929426 L27.4781148,16.0183626 C27.4781148,16.0183626 32.289453,15.359801 32.8504485,15.2830551 C33.4175026,15.2054348 33.8642483,15.1972289 34.3261075,15.2786831 C34.7803766,15.358792 38.2860322,15.9822429 38.2860322,15.9822429 L41.7946173,13.6261918 L45.3103263,8 C45.3103263,8 46.5143426,9.32398393 45.7406936,10.6844911" id="picto" fill="#007DBC"></path>
    </g>
</svg>