<?xml version="1.0" encoding="UTF-8"?>
<svg width="55px" height="55px" viewBox="0 0 55 55" version="1.1" xmlns="http://www.w3.org/2000/svg" xmlns:xlink="http://www.w3.org/1999/xlink">
    <title>sports_picto/dart</title>
    <g id="sports_picto/dart" stroke="none" stroke-width="1" fill="none" fill-rule="evenodd">
        <path d="M37.8977372,10.0731115 L38.3986181,10.0742594 L38.4810552,10.3011733 L40,9.82231999 L38.1333049,9.34331366 L38.2231591,9.59081429 L35.1211432,9.58377346 L34.6296108,9.07599154 L33.6460825,9.21803272 L33.959529,9.82231999 L33.9594517,9.82231999 L33.642992,10.4253062 L34.6257478,10.572475 L35.1199843,10.0668359 L35.948914,10.0686727 L37.0570638,14.4465411 C37.0570638,14.4465411 28.863647,11.8371466 27.542644,11.4131659 C26.2216411,10.9892618 24.1305811,10.5171432 22.9617816,13.0199303 C21.7929049,15.5227173 21.045717,17.1030785 20.7173592,17.872902 C20.3890013,18.6427254 20.498866,19.4403295 21.3411618,20.0507392 C22.1834576,20.6611489 24.3313815,22.2176325 24.3313815,22.2176325 L24.1890674,22.9321242 L21.5319957,21.3044669 L21.4191178,25.8412133 C20.1829471,27.7244069 18.2534391,38.279077 18.2534391,38.279077 C18.2534391,38.279077 15.3747065,46.1512656 15.197007,46.7078742 C14.7747002,48.0305562 14.9212637,49.9517091 16.7385892,50 L21.420045,39.5744374 L24.9998409,31.803346 L26.7262305,37.463182 C26.7262305,37.463182 27.0732855,46.3436641 27.0886603,47.3686412 C27.1039579,48.3937714 27.4479225,50.2392353 29.4155972,49.9302039 L30.2601336,36.83341 L29.4567771,26.9255018 L31.9735435,16.773843 C31.9735435,16.773843 37.5227139,17.2388442 38.2754646,17.2902729 C39.028138,17.3417016 40.3489092,16.6924907 39.7582514,15.0975122 C39.1676708,13.5025336 37.8977372,10.0731115 37.8977372,10.0731115 M35.4952394,8.27632111 L35.7404647,9.24512463 L37.5826681,9.25017566 C37.3919116,8.87961348 36.8434381,8.15869326 35.4952394,8.27632111 M27.4975238,8.55887286 C27.3628585,8.06073382 27.3729796,7.52922735 27.5103491,6.99971068 C27.9059237,5.47054858 29.528475,4.74036813 30.8812321,5.08337922 C32.2330621,5.42616071 33.2240074,6.91399618 32.8340728,8.42226537 C32.7090651,8.90540437 32.290235,10.5241075 32.0636294,11.3972475 C31.9676717,11.769876 31.3631069,11.8509222 30.8775236,11.6882942 C30.2571977,11.480513 29.5327244,11.2389053 29.5327244,11.2389053 C29.5327244,11.2389053 27.6999468,9.30895132 27.4975238,8.55887286" id="picto" fill="#007DBC"></path>
    </g>
</svg>