<?xml version="1.0" encoding="UTF-8"?>
<svg width="55px" height="55px" viewBox="0 0 55 55" version="1.1" xmlns="http://www.w3.org/2000/svg" xmlns:xlink="http://www.w3.org/1999/xlink">
    <title>sports_picto/riding</title>
    <g id="sports_picto/riding" stroke="none" stroke-width="1" fill="none" fill-rule="evenodd">
        <path d="M48,16.4846234 C47.7168873,16.6280076 47.3616878,16.8934665 47.0208048,17.1767148 L47.1769614,16.3094947 C46.8060579,16.5568498 46.5024481,16.8543046 46.1547537,17.2800571 C44.8408561,16.850533 43.4480603,16.2861107 41.9796459,16.427232 C40.5536763,16.5642673 39.4559131,17.1371129 38.2297432,18.1930395 C37.5600231,18.7698452 34.3251345,21.6411761 34.3251345,21.6411761 C34.9228308,22.1733511 38.8409992,25.2228279 40.6001575,25.8735573 L42.4115362,22.598915 L43.2715958,23.8347477 L43.4714586,27.1200134 C42.2245393,26.8692638 41.2188555,26.5789751 40.3831402,26.265931 C38.436039,25.5366892 34.6063551,22.4855151 33.9918196,21.9374365 C33.3718602,21.3845177 32.9889739,21.0092419 32.9841807,21.0019501 L32.9841176,21.0019501 C33.2008826,20.8182096 33.2324167,20.5946157 33.2324167,20.5946157 L29.8551203,19.3548228 C29.8468584,18.4811909 29.8383442,17.458706 29.8383442,16.9501665 C29.8383442,15.9610603 29.3951016,14.939644 28.8215604,14.7701727 C28.6011374,14.7050495 27.5991115,14.3979771 27.2979614,14.3063268 C27.2517955,14.292309 27.2026655,14.2857715 27.1514542,14.2857715 C26.5951936,14.2857715 25.7855885,15.056564 25.6569926,15.346727 C25.5377309,15.6160203 25.4401645,16.7512137 25.639712,17.8776696 C25.9426911,19.58772 26.6030771,20.5218235 26.6030771,20.5218235 C26.6030771,20.5218235 26.4247836,21.2793525 26.2453549,22.0633456 C26.0323109,22.9941175 26.145392,23.4724212 26.145392,23.4724212 L23.5614291,23.508943 C19.0802518,21.3039308 15.1538215,23.994287 15.1538215,23.994287 L15.1548937,23.9923384 C15.1548937,23.9923384 13.9684567,23.4644379 13.2174419,23.4644379 C9.90561014,23.4644379 8.04907467,25.1571389 8.04907467,28.0898214 L8.04907467,34.4269527 C8.04907467,34.9961523 7,34.9961523 7,34.9961523 C7,34.9961523 7.27112973,35.6666827 8.07215759,35.6666827 C9.41758923,35.6666827 10.7734902,33.5768306 10.7734902,31.198387 C10.7734902,28.5714567 11.1566919,27.1042355 11.8930119,25.9652704 C12.6293319,24.8263054 14.005793,24.3151886 14.005793,24.3151886 L14.7381397,24.3282636 C12.1295173,26.7353086 12.3619862,29.9892699 12.3619862,31.0997592 L12.6971301,32.911329 C12.6971301,32.911329 10.8523884,36.3024514 10.6606614,36.6095866 C10.23615,37.2896717 10.2172296,37.5839835 10.3607726,38.1807159 C10.5447422,38.9455366 11.2072725,42.0889267 11.6172151,43.8018688 C11.9794783,45.3157324 13.0993153,44.9647836 13.0993153,44.9647836 L12.3740323,38.2387359 L17.1554136,33.3285325 L18.5313702,34.9732712 C18.5313702,34.9732712 18.4993947,37.5533705 18.4993947,37.6808511 C18.4993947,38.1296105 18.6370093,38.4826337 18.9487549,38.8673385 C19.1143086,39.0716343 22.2519463,43.377562 23.0087634,44.3204659 C23.7655805,45.2633698 24.8692721,44.823348 24.8692721,44.823348 L21.2218551,38.0922715 L22.5155078,33.3662487 L21.6160307,32.1255758 L21.9839069,32.1098607 C23.6867454,34.0113835 28.2005919,33.5680301 28.2005919,33.5680301 C28.1911317,33.6120323 28.1823652,33.6524514 28.1746709,33.6884075 C27.9529235,34.7173671 29.0989338,35.3038533 29.0989338,35.3038533 C29.0989338,35.3038533 29.1111691,35.2702231 29.1336844,35.2082428 C29.1345042,35.2061056 29.135198,35.2041569 29.1360179,35.2019568 C29.2216013,34.9664823 29.4478265,34.3442914 29.7320114,33.5624356 C30.4400769,31.6145847 31.5083873,28.6753648 31.6610121,28.2520009 C31.9216094,27.5290451 31.8937333,27.0909091 31.5961781,26.4304363 C31.3503386,25.884935 30.3855229,23.3909543 30.3855229,23.3909543 L30.3847031,23.3889427 L29.9256935,21.2112119 L27.955194,20.7380628 L27.9125599,20.5294924 C27.9125599,20.5294924 31.5708247,21.1679012 31.7807784,21.2004628 C32.0543047,21.2428935 32.4311366,21.2387447 32.6139079,21.1892737 C33.2401741,21.8349114 32.7180964,21.3295149 33.6860024,22.2049069 L31.4667623,23.4015148 L30.8831302,23.4094352 C31.1099861,23.9939727 31.8106727,25.7934105 32.0134996,26.2436157 C32.3652935,27.0243401 32.3857275,27.5902081 32.0915779,28.4061971 C31.9441247,28.8151031 30.2246362,33.5459662 30.2246362,33.5459662 L31.6319377,33.4677051 C31.6319377,33.4677051 29.4912174,41.9073863 29.1053668,43.2621506 C28.7195793,44.6169778 29.9147827,44.9803729 29.9147827,44.9803729 L35.385183,33.559984 L36.2152222,33.1462378 L42.2445319,34.8914271 C42.2445319,34.8914271 41.6474032,39.7494565 41.4877148,40.8631517 C41.3280264,41.9768469 42.4968043,42.5289485 42.4968043,42.5289485 C42.4968043,42.5289485 44.3944602,35.0155133 44.5149833,34.608556 C44.657328,34.1277379 44.52211,33.6230957 44.1604145,33.4469613 C43.9217648,33.3307955 39.7052843,31.3011006 39.7052843,31.3011006 L39.3579683,29.2954183 L40.1728712,26.6726369 C41.588813,27.2052519 43.5064614,27.6667719 46.303216,27.9720842 L47.6022295,21.0359575 L47.6042477,21.0251456 L47.2962862,18.5182785 L48,16.4846234 Z M26.718744,12.6490161 C26.5478295,12.2599111 26.3291724,11.7670867 26.5406397,11.1220147 C26.7554496,10.4667594 27.5681451,9.84305992 28.5919294,10.0354123 C29.6852779,10.2407768 30.1160961,11.213665 30.0757955,12.1725354 C30.2316368,12.2367786 30.4706018,12.3485441 30.3854599,12.3990209 C30.204959,12.5059462 29.9220355,12.5711323 29.5942706,12.6082198 C29.5934508,12.6098542 29.592757,12.6114886 29.5918741,12.6131229 C29.4585481,12.8632439 28.9886908,13.7447333 28.7477076,14.1967614 C28.6450328,14.389491 28.4230331,14.2871545 28.1478039,14.1986472 C27.8366259,14.0985737 27.5577388,14.0094378 27.5577388,14.0094378 C27.5577388,14.0094378 27.1417417,13.2761101 26.8719995,12.6679999 L26.718744,12.6490161 Z" id="picto" fill="#007DBC"></path>
    </g>
</svg>