<?xml version="1.0" encoding="UTF-8"?>
<svg width="55px" height="55px" viewBox="0 0 55 55" version="1.1" xmlns="http://www.w3.org/2000/svg" xmlns:xlink="http://www.w3.org/1999/xlink">
    <title>sports_picto/football_us</title>
    <g id="sports_picto/football_us" stroke="none" stroke-width="1" fill="none" fill-rule="evenodd">
        <path d="M16.4879651,12.8662872 L17.4429968,16.984359 C17.4429968,16.984359 18.8662758,16.6522812 20.3107723,16.3092916 L20.7041985,16.2157197 C20.7695061,16.2001598 20.8345942,16.1846376 20.8993311,16.1691833 C21.1621115,15.4788325 21.7808625,14.7790303 22.8714989,14.7790978 L24.9175042,14.7791653 L24.9175042,14.7791653 L25.2196646,15.3851295 L29.3304212,15.3929605 L29.6362228,14.7797054 L31.3004312,14.7793678 L31.3004312,14.7793678 C32.2852002,14.7790978 32.9949837,14.9524619 33.3033478,15.9707058 L37.4565187,17.5843149 C39.1786507,18.8732038 44,22.2712207 44,22.2712207 C43.9308153,22.4611246 42.8055192,23.3835727 41.163226,22.4736138 C40.761348,22.2509566 40.3163656,22.0001156 39.8702743,21.7463657 L39.4886182,21.5287429 C38.1587277,20.7686963 36.9268446,20.0474619 36.9268446,20.0474619 L32.5366521,19.2782601 L31.3065,22.8281055 L31.0388646,26.2282152 C31.0388646,26.2282152 32.0187111,27.6020985 32.5459577,28.7782468 C33.0732042,29.9544626 33.3775898,30.6492691 33.9961386,31.9700225 L34.5595959,31.9700225 L35.908225,34.940435 L36.0880647,37.2357537 L35.6542782,37.4157337 C35.966823,40.1748419 36.9196969,47.9371373 36.9196969,47.9371373 C36.3924503,48.1296065 34.9294574,47.9796007 34.4715978,46.0461997 C34.2824819,45.2475932 33.865515,43.6055997 33.441186,41.9531764 L33.3071998,41.4319834 C32.7500473,39.2669971 32.2203312,37.2357537 32.2203312,37.2357537 L27.9525267,32.1282645 C27.9525267,32.1282645 27.0499567,33.3647662 25.783459,35.0998246 L25.9529817,35.6155288 L23.3659738,39.4298084 L22.6228792,39.4298084 C20.6339209,42.1546893 18.6990426,44.8054449 18.048329,45.6968387 C16.5411685,47.7616129 15.1928765,46.5064786 15.1928765,46.5064786 L20.5186131,36.7247753 L20.5263737,36.6882948 C20.5852516,36.4123591 20.9719816,34.6144399 21.4405605,32.7814136 L21.5644934,32.3034141 C21.8363365,31.2702595 22.1274939,30.2671947 22.3935448,29.5627057 L23.7274064,26.0301427 L23.0187018,22.6558891 L21.5203074,19.5268971 C21.5203074,19.5268971 17.6978203,19.6529371 16.7697612,19.6777806 C15.8417694,19.7025565 15.3038013,18.8349935 15.111689,17.6768702 C15.0388445,17.2375564 14.9185193,16.4984315 14.797214,15.7501451 L14.7312297,15.3428273 C14.556503,14.2635408 14.3975899,13.2766767 14.3975899,13.2766767 C14.3975899,13.2766767 14.8932111,13.304558 15.5179636,13.2049817 C16.0742731,13.1164094 16.4879651,12.8662872 16.4879651,12.8662872 Z M23.8733955,10.2331515 C24.4652415,7.25997116 27.8647984,7.81746358 28.8418128,8.71844369 C29.9809999,9.76902458 29.927729,11.4874082 29.927729,11.4874082 L29.927729,11.4874082 L29.2002784,11.4689781 C29.1600219,11.7347626 29.0838243,12.23818 29.0010859,12.7847359 L29.0010859,12.7847359 L29.7534861,12.8791815 L29.6981249,14.0597179 L28.8114687,14.0372373 C28.7863841,14.2027028 28.7631203,14.3562866 28.7428909,14.4902927 C28.6859787,14.8659149 28.2603513,14.8154854 27.7546154,14.8171731 L27.6133725,14.8176472 C27.4738844,14.8181217 27.3404464,14.8185933 27.2201337,14.8190283 L26.9991049,14.8198397 C26.9658823,14.8199635 26.9346421,14.8200807 26.9056464,14.8201901 L26.7123608,14.8209299 C26.6860197,14.8210324 26.6718011,14.8210886 26.6718011,14.8210886 C26.6718011,14.8210886 26.2530517,14.4475593 25.7450231,13.959669 L25.7450231,13.959669 L25.4599903,13.9524455 L25.4599903,13.9524455 L25.4385337,13.9311617 C25.4243635,13.917097 25.4033094,13.8961867 25.3757737,13.8688041 L25.2741247,13.7676132 C25.1939323,13.6877061 25.0894236,13.5834038 24.963818,13.4576937 L24.7599894,13.2534462 C24.5776173,13.0704825 24.3647963,12.856403 24.1278144,12.6170426 C23.8836451,12.382245 23.647635,11.5299391 23.8733955,10.2331515 Z M18.3468481,9.09669872 C18.7745658,9.41129241 18.8540001,9.58850451 18.8760502,9.73304209 C18.942133,10.1655071 18.2609404,10.9130384 17.8479902,11.2865678 C17.7750293,11.352592 17.689324,11.4265823 17.5922227,11.5049606 C17.0880376,11.9116371 16.2721844,12.4369951 15.2851227,12.5882161 C13.8360207,12.8104569 12.3593392,12.1815396 11.5350571,11.5753729 C11.1079462,11.2611843 11.0283097,11.0842422 11.0057876,10.9397722 L11.0056527,10.938827 C10.9852884,10.8059011 11.0042366,10.596757 11.3333696,10.1557183 C11.5184689,9.90775635 11.7674933,9.63360078 12.0166525,9.40346132 C12.5635891,8.89795112 13.4556399,8.25850232 14.5965127,8.08378806 C16.0462216,7.86161471 17.5228357,8.49059955 18.3468481,9.09669872 Z" id="picto" fill="#007DBC"></path>
    </g>
</svg>