<?xml version="1.0" encoding="UTF-8"?>
<svg width="55px" height="55px" viewBox="0 0 55 55" version="1.1" xmlns="http://www.w3.org/2000/svg" xmlns:xlink="http://www.w3.org/1999/xlink">
    <title>sports_picto/football</title>
    <g id="sports_picto/football" stroke="none" stroke-width="1" fill="none" fill-rule="evenodd">
        <path d="M38.4830899,18.2881761 C34.8488017,16.8548644 33.6553199,15.2426946 31.97072,15.3942242 C30.6676958,15.4369843 26.9324609,15.8853191 25.6801853,15.9870867 C24.6855713,16.0678481 23.9347972,16.3463664 23.4206428,16.6096568 C20.3705804,18.1713847 13.4287743,22.0607827 13.4287743,22.0607827 C13.6451771,22.7720681 14.8543373,23.2009603 15.7277189,22.8663577 C16.6010318,22.5316872 25.5931978,19.0864092 25.5931978,19.0864092 L26.5569364,18.9934112 L24.8761185,19.8407946 L23.0899529,25.6117711 L18.9031396,30.7123868 L21.4828509,33.7189153 L21.0052794,33.7184394 L19.7162146,32.6605868 C19.7162146,32.6605868 11.1562353,32.9558283 10.326038,32.9805054 C8.31968753,33.0399888 8,33.8485551 8,34.4921993 L18.8734332,36.4453619 C18.8734332,36.4453619 19.6479311,36.6085843 20.7781493,35.9484887 C21.8191795,35.3404664 25.0636401,33.519255 25.0636401,33.519255 L25.1960123,33.5301999 L24.1899146,34.6706495 L23.63402,36.5744579 L23.6353265,36.5747978 L26.9088058,37.3770418 L26.7058122,37.6832283 L25.1711195,37.4530445 C25.1711195,37.4530445 23.1461338,42.2175621 22.3874518,44.0900992 C21.6287698,45.9627043 21.8736413,47.3135551 22.7475043,47.7044459 C26.4170688,41.7045773 28.9758756,37.8466546 28.9758756,37.8466546 L30.1168211,28.8893399 L31.1887955,26.310548 L34.3534201,20.0868179 L36.9635942,20.7817878 C37.3272912,20.8785928 37.704191,20.9158464 38.0800594,20.8919171 C39.8121758,20.7815839 44.9947722,20.4512641 46.3108616,20.3637046 C47.897953,20.25813 48,18.54664 48,18.54664 L38.4830899,18.2881761 Z M32.8612928,43.8994124 C32.7358658,43.4555644 32.5000713,43.0571276 32.1848535,42.7346257 L31.6308156,42.7256522 L30.9852517,43.793702 L31.3315512,44.4028119 L32.5480004,44.4099499 L32.8612928,43.8994124 Z M32.8586798,45.3784751 L32.5709678,44.8860209 L31.3012259,44.8784751 L30.9572644,45.4534585 L31.5810299,46.5140983 L32.2068583,46.511583 C32.508942,46.1953353 32.7355908,45.8083194 32.8586798,45.3784751 L32.8586798,45.3784751 Z M30.8489598,47.2930928 L31.1682348,46.7589659 L30.5353924,45.6827585 L29.875938,45.6852058 L29.2540292,46.780108 L29.5555628,47.2961519 C29.7611696,47.3444185 29.9753031,47.3707951 30.1956255,47.3707951 C30.4207615,47.3707951 30.6394335,47.3434667 30.8489598,47.2930928 L30.8489598,47.2930928 Z M28.1788916,46.5056007 L28.8595943,46.5027455 L29.4522093,45.4593049 L29.1221383,44.8942466 L27.8118939,44.9213711 L27.5347718,45.3855455 C27.6575169,45.809883 27.8812088,46.1922082 28.1788916,46.5056007 L28.1788916,46.5056007 Z M27.5565702,43.8100174 L27.9166227,44.4432606 L29.0634819,44.4195352 L29.4534471,43.7839127 L28.8562248,42.7021988 L28.2481378,42.6923415 C27.9336076,43.0007034 27.6934122,43.3828247 27.5565702,43.8100174 L27.5565702,43.8100174 Z M29.5714475,41.9691595 L29.2706015,42.4596425 L29.863079,43.5325189 L30.5753447,43.5440757 L31.211144,42.4920015 L30.9291396,41.9964198 C30.6954081,41.9327896 30.4496427,41.8981193 30.1956255,41.8981193 C29.9809418,41.8981193 29.7722407,41.9232043 29.5714475,41.9691595 L29.5714475,41.9691595 Z M33.5861425,44.3275569 C33.7749706,46.4240915 32.00579,48.1731071 29.8850837,47.9862952 C28.2594152,47.8430592 26.9503398,46.5489046 26.8053836,44.9417654 C26.6162116,42.8448909 28.3856674,41.0956034 30.5066487,41.2826871 C32.1323172,41.4260591 33.4413926,42.7203497 33.5861425,44.3275569 L33.5861425,44.3275569 Z M28.1372201,14.7551347 C28.3360192,15.1468413 28.9255398,15.0423545 29.2651003,15.0061886 L30.4942023,14.8753251 C30.4942023,14.8753251 32.1983314,12.4038073 32.3750569,11.6071377 C32.4923697,11.0785853 32.4561306,10.5221607 32.2869692,9.97314602 C31.7981891,8.38864448 30.0585773,7.69870514 28.6537813,8.1224988 C27.2500855,8.54561265 26.2796767,10.152344 26.7623368,11.7161793 C26.9170576,12.2170634 28.1372201,14.7551347 28.1372201,14.7551347 L28.1372201,14.7551347 Z" id="picto" fill="#007DBC"></path>
    </g>
</svg>