<?xml version="1.0" encoding="UTF-8"?>
<svg width="55px" height="55px" viewBox="0 0 55 55" version="1.1" xmlns="http://www.w3.org/2000/svg" xmlns:xlink="http://www.w3.org/1999/xlink">
    <title>sports_picto/gymnastics</title>
    <g id="sports_picto/gymnastics" stroke="none" stroke-width="1" fill="none" fill-rule="evenodd">
        <path d="M20.6495543,15.1578942 C20.9817968,15.1062772 21.2677468,14.9374087 21.4808988,14.6971379 C22.6298671,15.390134 24.614979,16.2324325 24.614979,16.2324325 C24.614979,16.2324325 25.1594136,16.0423185 25.7663837,15.83074 C26.3041735,15.6433273 26.7749242,15.5408235 26.7052271,15.1198568 C26.5415423,14.1324175 26.2225157,12.2067467 26.1319981,11.6602055 C25.8493705,9.95407109 24.1689619,8.87938675 22.6378409,9.12754246 C21.2661964,9.34978017 20.0635524,10.5421541 20.0314357,12.0294822 C19.2914209,12.2112002 18.8086357,12.9803442 18.9402776,13.808041 C19.0786381,14.6788127 19.8439033,15.2831037 20.6495543,15.1578942 M44.8915155,33.6172039 C44.8915155,34.9074092 44.8052062,47.9903769 44.8052062,47.9903769 C43.419829,48.1244934 42.6649741,46.8228258 42.5771882,46.1988226 L40.3906636,34.6156674 L31.2559891,33.7419023 C31.2559891,33.7419023 19.9250443,40.0689604 19.5363944,40.2788597 C18.8616469,40.6433178 18.2578515,40.5878314 17.839226,40.2722159 C17.6477805,40.1279512 7,31.7444642 7,31.7444642 C7,31.7444642 8.62045728,30.5358824 10.5854869,31.681677 C12.5505904,32.8273985 18.6487163,36.3830559 18.6487163,36.3830559 L24.3525074,31.0408088 C25.423288,28.3392773 26.4569312,27.6822012 26.4569312,27.6822012 C26.4569312,27.6822012 26.262311,26.2647422 26.0633346,25.0060036 C25.8862863,23.885762 23.2189699,21.2508871 23.2189699,21.2508871 C23.2189699,21.2508871 21.0023958,23.1721044 20.4606929,23.6453452 C19.8895312,24.1445039 19.6805876,24.2262734 19.1794183,24.317972 C18.3434224,24.4709977 13.8839163,25.2813184 11.3531147,25.7436079 C8.82231304,26.2058974 8.77306732,24.6565122 8.77306732,24.6565122 L18.3723644,21.5859959 C18.3723644,21.5859959 20.3123651,19.2748405 20.3988958,19.1540845 C20.7065524,18.7253059 21.0389425,18.5008049 21.539595,18.3249276 C21.9787457,18.1706607 29.7103233,15.4594191 29.7103233,15.4594191 L37.1707911,14.3755356 L43.0550267,11.0784742 C41.4761367,9.70817864 39.4084072,8.87610136 37.1475341,8.87610136 C33.2342346,8.87610136 29.8989632,11.3680987 28.6780091,14.8313274 L27.6370565,15.1964426 C28.7720706,11.0552575 32.6054842,8 37.1475341,8 C42.5802153,8 47,12.3705047 47,17.7426852 C47,23.1147928 42.5802153,27.4853705 37.1475341,27.4853705 C36.211201,27.4853705 35.305065,27.3554884 34.4464028,27.1131004 L34.4871579,26.210862 C35.3280267,26.46975 36.2216113,26.6092691 37.1475341,26.6092691 C42.0916712,26.6092691 46.1140201,22.6317689 46.1140201,17.7426852 C46.1140201,15.5837524 45.3293372,13.6028142 44.0275374,12.0633581 C42.8792336,13.0616756 39.3115401,16.1638046 39.0793395,16.3716596 C38.8644894,16.5640369 38.6091795,16.7258966 38.231752,16.85921 C37.8543246,16.9925234 32.7513017,18.795394 32.7513017,18.795394 C32.7513017,18.795394 33.429667,19.9541841 33.667848,21.9341732 C33.667848,21.9341732 33.3971073,25.6014605 33.3971073,28.0472435 C33.3971073,28.0472435 41.8473623,30.0935972 42.9564615,30.3862881 C43.9453627,30.6473663 44.8915155,30.939035 44.8915155,33.6172039" id="picto" fill="#007DBC"></path>
    </g>
</svg>