<?xml version="1.0" encoding="UTF-8"?>
<svg width="55px" height="55px" viewBox="0 0 55 55" version="1.1" xmlns="http://www.w3.org/2000/svg" xmlns:xlink="http://www.w3.org/1999/xlink">
    <title>sports_picto/golf</title>
    <g id="sports_picto/golf" stroke="none" stroke-width="1" fill="none" fill-rule="evenodd">
        <path d="M16.0842871,14.6134366 C15.9738452,13.9915375 15.7703133,12.7799773 15.6594806,12.1066213 L14.7984562,12.2569621 C14.2603159,12.3508863 13.8835004,13.2525431 13.6785616,14.9369016 C13.6364327,15.2470375 13.670042,15.4398456 13.7836104,15.5481064 C13.9150776,15.6721762 14.203649,15.6968972 14.6399451,15.6208744 L14.9933122,15.5591882 C15.4539947,15.4894425 15.8519137,15.4290737 16.0150362,15.2037952 C16.1092205,15.0739907 16.1318091,14.8809501 16.0842871,14.6134366 L16.0842871,14.6134366 Z M16.7343543,14.4999061 C16.8143914,14.9503083 16.7543636,15.3054689 16.550988,15.5856916 C16.2267751,16.0334589 15.6780048,16.1174638 15.0967977,16.2055758 L14.7546077,16.2654021 C14.5932047,16.2935329 14.4049142,16.3189513 14.2118559,16.3189513 C13.8982729,16.3189513 13.5720278,16.2519955 13.3273049,16.0209047 C12.9183652,15.6312588 12.9976989,15.0463249 13.0238047,14.8540592 C13.1332305,13.9547273 13.3907719,11.8381779 14.6840281,11.6123568 L15.93156,11.3945178 L25.4363602,9.7207761 C25.4913075,9.84926317 25.5510227,9.97558037 25.6195702,10.0976353 C25.6560715,10.1624988 25.7040625,10.2369717 25.7741732,10.3259362 L16.3094697,11.9927034 C16.4195207,12.6614096 16.6237561,13.877232 16.7343543,14.4999061 L16.7343543,14.4999061 Z M14.0279425,14.250914 L14.1706649,15.3581656 C14.2355388,15.4069101 14.3061965,15.432561 14.4028039,15.4382957 L14.1529223,13.5002178 C14.0871887,13.7587419 14.0521724,14.0319125 14.0279425,14.250914 L14.0279425,14.250914 Z M14.3402749,13.0092856 L14.6513567,15.4218667 C14.6819959,15.4174495 14.7141202,15.4124123 14.7487456,15.4062902 C14.7892331,15.3992381 14.8291735,15.3922635 14.8684105,15.3854439 L14.5320044,12.7757925 C14.4574386,12.8361613 14.394128,12.9161364 14.3402749,13.0092856 L14.3402749,13.0092856 Z M14.7759457,12.6619521 C14.7714124,12.6628045 14.7671917,12.6642769 14.7626583,12.6650519 L15.1083656,15.3459214 C15.1842602,15.3334447 15.2567938,15.3196505 15.3246378,15.3026016 L14.9794777,12.6265367 L14.7759457,12.6619521 Z M15.3809921,12.5564811 L15.2190419,12.5846893 L15.5581055,15.2140245 C15.6259494,15.1764393 15.6851957,15.1296322 15.73092,15.0665511 C15.7396741,15.0544619 15.7475684,15.0389628 15.75515,15.0219139 L15.4360176,12.5468717 L15.3809921,12.5564811 Z M26.2603362,9.74379218 C26.3270859,9.86274734 26.4576152,10.0105307 26.6302734,10.1752081 C27.5730546,11.07454 29.7763424,12.4797608 29.7763424,12.4797608 C29.7763424,12.4797608 30.3549702,12.379172 31.0002696,12.2675789 C31.5718629,12.1687725 32.0616995,12.144284 32.0634191,11.7089934 C32.0659202,11.0642332 32.0770191,8.23186051 32.0774345,8.13204667 C32.0844444,6.36817805 30.5812471,5.00619962 29.0023114,5 L28.9908999,5 C27.4144654,5 25.8460815,6.24542562 25.8390938,8.02835807 C25.8369366,8.58624613 25.9492544,9.11685588 26.1808462,9.5896542 C26.2062486,9.64157599 26.2319637,9.6933428 26.2603362,9.74379218 L26.2603362,9.74379218 Z M40.0205481,15.0529895 C38.1151329,15.4443403 31.7340475,16.7230114 31.7340475,16.7230114 L31.9554784,17.1534198 L37.255828,16.413728 L38.8138164,23.4668776 L38.8138164,30.5535052 L35.9429533,50 C35.9429533,50 33.8967696,50.0058119 33.8967696,48.0178272 L33.8967696,36.7558348 L34.9312339,31.2347656 L34.9312339,29.3474471 L32.3422984,39.6919736 L25.3027826,49.8658556 C24.178042,49.3720561 23.790753,48.2801485 24.3512474,47.1339167 C25.2086764,45.3804325 29.110174,37.9487187 29.110174,37.9487187 L29.110174,30.1135648 C29.110174,26.5048451 30.5985989,24.9137908 30.5985989,24.9137908 C30.5985989,24.9137908 28.6623099,20.5251592 27.3327869,17.7126253 C26.6143286,16.1934091 27.3034764,13.7339434 29.8406691,13.2922981 L39.4381686,11.6273909 L39.0650267,8.3210575 L37.8736146,8.53044958 L36.7074486,11.2714554 L33.6683042,11.8057074 L35.5358113,8.94132922 L35.1149129,9.01525965 C35.0759886,9.02207923 35.0372206,9.02541153 34.9989216,9.02541153 C34.8010954,9.02541153 34.6175728,8.936757 34.4945469,8.79191844 L32.8070453,9.08849263 L32.8096246,8.42342868 L34.3798844,8.14746822 C34.4578893,7.93528631 34.6441476,7.76874909 34.8844935,7.72643671 L38.917849,7.01758796 L38.8416418,6.34229464 C40.4594236,6.34229464 40.803724,7.53463605 41.0584515,8.57276197 C41.3131791,9.6107329 41.5754883,10.6800894 41.7632316,11.4452772 C42.2676844,13.5016127 42.0870537,14.6289356 40.0205481,15.0529895 L40.0205481,15.0529895 Z" id="picto" fill="#007DBC"></path>
    </g>
</svg>