<?xml version="1.0" encoding="UTF-8"?>
<svg width="55px" height="55px" viewBox="0 0 55 55" version="1.1" xmlns="http://www.w3.org/2000/svg" xmlns:xlink="http://www.w3.org/1999/xlink">
    <title>sports_picto/handball</title>
    <g id="sports_picto/handball" stroke="none" stroke-width="1" fill="none" fill-rule="evenodd">
        <path d="M22.3665069,5.4766051 C22.2143061,5.4766051 22.0610773,5.49352068 21.9112065,5.52693758 L21.8218459,5.54682202 L22.3524587,5.87712461 L22.8906781,5.54212708 L22.7999469,5.52279499 C22.656038,5.49213982 22.5102103,5.4766051 22.3665069,5.4766051 L22.3665069,5.4766051 Z M22.5227509,6.17394126 L22.5227509,6.4678581 L23.3918923,7.10409104 L23.6133065,6.96289773 L23.5943242,5.86973699 L23.5785628,5.85882817 C23.4954382,5.80117711 23.4062832,5.74849716 23.3138389,5.70230727 L23.2953363,5.69305548 L22.5227509,6.17394126 Z M21.4030709,5.71004011 C21.3050072,5.76002737 21.2103014,5.81802365 21.1216261,5.88230285 L21.1065499,5.89328072 L21.0879103,6.96282868 L21.3112433,7.10526477 L22.1823035,6.46765097 L22.1823035,6.17394126 L21.421642,5.70058119 L21.4030709,5.71004011 Z M20.6925034,6.29794282 C20.6011555,6.41552336 20.5216629,6.5433223 20.4562186,6.67781842 C20.3909799,6.81203837 20.3394468,6.95343881 20.3031269,7.09801524 L20.2835279,7.17617212 L20.7480111,6.94826057 L20.7607573,6.2099818 L20.6925034,6.29794282 Z M23.9532057,6.94826057 L24.4563387,7.19508996 L24.4379047,7.11789968 C24.4223488,7.05320621 24.4039148,6.98920318 24.3830137,6.92761666 C24.2989298,6.68009684 24.1724955,6.45335903 24.0072743,6.25389327 L23.9397742,6.17235327 L23.9532057,6.94826057 Z M21.5186777,7.3769497 L21.8371276,8.36440532 L22.8675841,8.36440532 L23.1859655,7.3769497 L22.3523216,6.766677 L21.5186777,7.3769497 Z M20.238642,7.57938432 L20.2384364,7.60251379 C20.2363806,7.84520058 20.2750989,8.08547086 20.3536321,8.3165584 C20.3933784,8.43358659 20.4435409,8.54812924 20.5027492,8.65694129 L20.5124116,8.67468539 L21.3543474,8.74241676 L21.5248452,8.50518438 L21.1766541,7.42534897 L20.905146,7.25225771 L20.238642,7.57938432 Z M23.5288799,7.42258725 L23.1802091,8.50414873 L23.3514608,8.74241676 L24.2236174,8.67226888 L24.2332799,8.65452478 C24.4062447,8.33699518 24.4976612,7.9792134 24.4976612,7.61991267 L24.4976612,7.59657607 L23.7960023,7.25225771 L23.5288799,7.42258725 Z M20.8327118,9.10986458 C21.0038949,9.28937686 21.2052303,9.43699119 21.4310988,9.54856498 L21.5284772,9.5954453 L21.3187813,9.083352 L20.7649375,9.0387501 L20.8327118,9.10986458 Z M23.3870268,9.083352 L23.1714376,9.61001341 L23.2572347,9.57038262 C23.5016058,9.45742797 23.7191824,9.30159751 23.9040711,9.10737903 L23.9717083,9.03633359 L23.3870268,9.083352 Z M21.6297617,8.9440919 L21.9501304,9.72669639 L21.969798,9.73042472 C22.1000698,9.75555644 22.2330828,9.76832943 22.3652049,9.76832943 C22.4877331,9.76832943 22.6116318,9.75735156 22.7334062,9.73574105 L22.7534849,9.7321508 L23.0760465,8.94416094 L22.9058228,8.70713569 L21.7999854,8.70713569 L21.6297617,8.9440919 Z M22.3659587,10.2454178 C21.9689071,10.2454178 21.5843276,10.1549022 21.2229791,9.97642559 C20.5986885,9.66821681 20.1310529,9.1335464 19.9060753,8.47086991 C19.6810291,7.80819343 19.7255039,7.09697959 20.0314817,6.46813427 C20.3373909,5.8392199 20.8680723,5.36806922 21.5257361,5.14140044 C21.7979981,5.04757075 22.0806764,5 22.3661643,5 C23.4799509,5 24.4703185,5.7125947 24.830639,6.77337419 C25.2951222,8.14125775 24.5685192,9.63486896 23.2108412,10.1028437 C22.9365233,10.1974328 22.6523375,10.2454178 22.3661643,10.2454178 L22.3659587,10.2454178 Z M46.5104514,26.6433122 C45.7730894,25.7483744 41.1839021,20.3160567 40.900607,19.9698742 C40.5592688,19.5525772 40.4429766,19.4677231 40.0786814,19.3054716 C39.7885336,19.1762918 37.3575691,18.0013149 37.0419974,17.849558 C35.4838748,17.1003704 35.0526962,16.9484754 34.1212627,16.9176821 C33.3244184,16.8913767 26.2663705,16.6805188 26.2663705,16.6805188 L20.8540925,15.7448455 L22.4771112,10.9448253 C21.827054,10.9448253 21.0116386,10.7296177 20.5936859,10.3748041 C20.5921098,10.3734239 19.5097775,12.3843757 17.9185559,15.5006398 C17.3027627,16.7066171 17.3659456,17.7036007 18.526811,18.127802 C20.6445337,18.901569 24.5109556,20.2503276 24.5109556,20.2503276 L25.8439635,28.3280349 L21.9024349,35.2610753 C21.9024349,35.2610753 11.7741926,45.1470236 9.93352883,46.931928 C8.09286504,48.7167634 9.54209653,50 9.54209653,50 L28.418837,36.141583 L29.1438639,36.141583 L26.2218958,38.3145101 L26.1172534,40.0291286 L23.1324451,40.7224602 L19.5446583,43.3906341 C19.5446583,43.3906341 27.2999108,43.3915316 27.825521,43.3915316 C28.7309823,43.3915316 29.46389,42.9550406 29.7408119,42.3541578 C29.9729849,41.8503497 33.5012208,34.213345 33.9665949,33.2369363 C34.6413908,31.8212058 34.5484667,30.5886468 34.325819,28.9304367 C34.1966436,27.9687342 34.1198237,27.5110469 34.1198237,27.5110469 L35.2298412,21.1605239 L39.4550075,22.6212015 L46.5551317,29.2038477 C46.9927519,28.9458333 47.3046231,27.6077764 46.5104514,26.6433122 L46.5104514,26.6433122 Z M26.4821654,12.5513911 C26.3133807,12.0046382 26.3007716,11.4145951 26.4267262,10.8207547 C26.7902675,9.10634338 28.5281392,8.22355723 30.0196525,8.54460803 C31.5101379,8.86545171 32.6579145,10.472777 32.2993071,12.1646112 C32.1842485,12.7065312 31.7793847,14.6161966 31.5717447,15.5955051 C31.4832064,16.0130093 31.0156394,15.938995 30.4559022,15.9197319 C29.8238679,15.8980524 29.2574149,15.8789964 29.2574149,15.8789964 C29.2574149,15.8789964 26.7365415,13.3755596 26.4821654,12.5513911 L26.4821654,12.5513911 Z" id="picto" fill="#007DBC"></path>
    </g>
</svg>