<?xml version="1.0" encoding="UTF-8"?>
<svg width="55px" height="55px" viewBox="0 0 55 55" version="1.1" xmlns="http://www.w3.org/2000/svg" xmlns:xlink="http://www.w3.org/1999/xlink">
    <title>sports_picto/judo</title>
    <g id="sports_picto/judo" stroke="none" stroke-width="1" fill="none" fill-rule="evenodd">
        <path d="M40.1628585,16.3773563 L20.0813141,16.3773563 C18.4377568,16.3773563 17.4273405,17.8250742 16.9220556,18.9204908 C16.4168475,20.0159074 15.8092623,21.4380271 15.1468817,22.8840539 C14.5030733,24.2894157 15.1063607,24.8332035 16.0002023,25.5136686 C16.4651964,25.8676611 18.5075942,27.5476073 19.2236959,28.137518 L20.2447029,26.1713798 L20.4938918,26.2555539 C20.4970384,26.2566301 20.8204391,26.3660949 21.958558,26.7599836 C22.9846302,27.1150523 23.7843065,26.3986115 24.1478445,25.9753579 L18.4802732,23.3180694 L18.7405901,22.7610597 L25.0665513,25.7270634 L24.8821346,26.0214807 C24.454822,26.7040213 23.2519308,27.8583213 21.758025,27.3412078 C21.1392352,27.1270443 20.7619599,26.9972086 20.5463082,26.9232583 L20.1930539,28.3436869 L29.187033,28.3436869 L29.9913139,20.6584749 L39.8558811,20.4771354 L40.009293,18.4032236 C40.7123482,18.370707 41.3599939,18.3335013 41.8209205,18.2927594 C43.560485,18.1390168 44,16.3773563 44,16.3773563 L40.1628585,16.3773563 Z M24.7832111,15.6968144 C24.7832111,15.6968144 25.3763683,15.6973525 26.037521,15.6979674 C26.6233108,15.6985824 27.1147817,15.7595414 27.1929842,15.3226047 C27.3768637,14.2973716 27.7350296,12.2988706 27.8366392,11.7319445 C28.1537469,9.96082884 26.8988998,8.33008027 25.3298612,8.04803933 C23.7592878,7.76592152 21.9732162,8.74318684 21.6511969,10.5373639 C21.5402245,11.1590993 21.5735316,11.771687 21.7686925,12.3342314 C22.0623932,13.1819685 24.7832111,15.6968144 24.7832111,15.6968144 L24.7832111,15.6968144 Z M38.679083,42.7388443 L37.1986842,43.328755 L37.6047386,47.9714763 C36.0541955,48.1336748 35.4710918,47.1662491 35.2000307,46.1778374 C34.9289696,45.1894257 34.695897,44.3262375 34.695897,44.3262375 L33.9209324,44.6350296 L32.4434499,38.4394304 L27.2697285,35.4671232 L27.1930609,35.4671232 L23.099977,35.4671232 L23.0744211,35.4671232 L17.7150552,38.4394304 L15.8604508,44.1791826 L15.1953074,43.9228936 C15.1953074,43.9228936 14.764925,45.5340399 14.5813525,46.1778374 C14.39778,46.8216348 13.760725,48.2163884 12.1766446,47.9714763 L12.6168503,42.7769725 L11,42.0779814 C11,42.0779814 12.4153196,37.5412657 12.6543783,36.7753197 C12.8932835,36.0092968 13.3766962,35.2725619 14.0691606,34.5789518 C14.761625,33.8853417 19.6081084,29.6504997 19.6081084,29.6504997 L22.1277794,29.6504997 L20.733718,33.1818921 L22.500757,33.1818921 L23.7694181,29.6758672 L24.4943453,32.0472711 L26.0802676,32.0472711 L25.3492008,29.6504997 L29.8407415,29.6504997 C29.8407415,29.6504997 35.532564,34.4677958 36.1215003,34.9134958 C36.7104365,35.3593496 37.4511731,36.3895024 37.6282991,37.3993612 C37.8054251,38.4091431 38.679083,42.7388443 38.679083,42.7388443 L38.679083,42.7388443 Z" id="picto" fill="#007DBC"></path>
    </g>
</svg>