<?xml version="1.0" encoding="UTF-8"?>
<svg width="55px" height="55px" viewBox="0 0 55 55" version="1.1" xmlns="http://www.w3.org/2000/svg" xmlns:xlink="http://www.w3.org/1999/xlink">
    <title>sports_picto/kite_surf</title>
    <g id="sports_picto/kite_surf" stroke="none" stroke-width="1" fill="none" fill-rule="evenodd">
        <path d="M28.9126685,23.9083502 L25.7250677,21.8356016 C25.8005476,22.0675607 25.8221227,22.3638385 25.6980497,22.7185214 C25.5593528,23.115131 24.5413902,25.4514002 23.958011,26.783554 L24.915511,26.8717263 L28.9126685,23.9083502 Z M21.5935415,37.022115 L24.9576775,39.4738654 L26.7125367,41.9091374 C27.3616248,41.4848203 27.9727434,41.1080777 28.4952665,40.8226304 C28.7673483,40.6738603 29.1994398,40.4813694 29.7158642,40.2685464 L25.8783228,36.9647731 L21.5935415,37.022115 Z M45.9608375,18.2727596 C44.5442937,18.5275094 42.6692961,18.8516276 41.5153909,19.0054475 C38.9335312,19.3494992 37.8522861,19.1986028 37.3142211,17.3986769 L30.3157034,23.8589817 L32.2564099,25.1209032 C32.323168,25.1641589 32.3728759,25.2242915 32.4036974,25.2921317 C32.4587826,25.4133272 32.4536676,25.5593067 32.3774007,25.6799042 C32.2583772,25.8681426 32.011346,25.9230261 31.8256299,25.802495 L29.6220225,24.3695443 C29.5413619,24.6270183 29.3664006,24.9387777 29.0284132,25.3038925 C28.6533087,25.7090735 27.1871881,27.3153125 26.2479187,28.2947103 C25.5325971,29.0404214 25.4316075,29.0404214 24.4567294,29.0404214 C23.9224023,29.0404214 22.1876754,28.9877971 20.9666842,28.9484617 C20.3740586,31.3228037 19.7685797,32.6866518 19.7685797,32.6866518 L20.7379492,34.0137557 C20.7379492,34.0137557 24.9387255,33.8532249 25.5950271,33.8281087 C26.3277268,33.8001354 26.625056,33.8533578 27.1625965,34.4411958 C27.4561222,34.7621911 30.0404738,37.4896213 31.8803873,39.4301446 C33.5515694,38.8098151 35.1584854,38.2572593 35.1584854,38.2572593 L38.2652945,39.3620386 C38.2652945,39.3620386 36.4999428,43.0448801 33.1577098,45.4717136 C32.4878991,45.9581567 30.3675754,47.3762238 29.4546026,47.9849255 C32.9198594,48.6515672 37.0320403,49.2026612 43.6232549,49.2026612 L43.6232549,50 C34.9261436,50 30.5052885,49.0497715 26.2299504,48.130905 C21.9942868,47.2205434 17.6144834,46.2790856 9,46.2790856 L9,45.4817468 C14.0694841,45.4817468 17.6857663,45.804669 20.6674532,46.2559628 C21.3981855,45.6966296 22.9883136,44.4925816 24.6633647,43.3087328 L22.6556379,41.2793062 C22.6556379,41.2793062 17.4995912,38.8805789 16.2423356,38.3766608 C15.5822305,37.4727443 15.1893545,35.965774 14.9584554,34.3623921 C14.5091826,31.2430034 15.0908568,28.0875351 16.3609001,26.7175742 C16.6550816,26.4002333 17.1343235,26.0588394 17.7657711,26.1301348 C17.8939099,26.1445533 18.5423422,26.2250181 19.2937971,26.3187054 L22.5373357,25.3655533 L25.1654932,21.4717493 L23.8240358,20.5994607 C23.6379262,20.4787967 23.584087,20.2286317 23.7031105,20.0404597 C23.8220684,19.8522213 24.0690996,19.7974043 24.2548157,19.9179353 L25.4786267,20.7137459 L26.4443895,13.8295891 C26.2008995,13.8647385 25.9903295,13.8934427 25.8303199,13.9125788 C24.6983832,14.0481929 24.4083986,13.7647389 24.4767306,12.430924 C24.6503148,9.03937697 26.3560563,6.20789401 28.6836056,6.20789401 C28.6887863,6.20789401 28.6940325,6.20742889 28.6991475,6.20742889 C30.669823,6.21148203 32.3955002,7.70423315 33.5950474,9.65611854 C33.6682977,9.77532069 33.5515694,9.92375859 33.4217256,9.87458937 C31.6610955,9.20721679 30.787535,11.6977045 30.699333,12.6318534 C30.651658,13.1358379 30.5384709,13.1907879 29.9939792,13.2769005 C29.2375405,13.3965677 28.0746511,13.5841417 27.120889,13.7291245 L26.0856139,21.1083622 L27.3659529,21.9409168 L32.9620915,10.5743871 C33.0428832,10.4102681 33.2397475,10.3435575 33.4018555,10.4254176 C33.563898,10.5073441 33.629738,10.7068117 33.5488807,10.8710635 L27.9210681,22.3018454 L29.7443905,23.4874882 L37.1110614,16.6873178 C36.1583486,13.3337109 34.3575849,7.3322746 30.1791051,5.92915765 C30.0257188,5.87766285 30.0537861,5.64988974 30.2149761,5.63773032 L35.3136422,5.25347946 C36.6451974,5.15288189 37.8384492,5.06231749 38.4731102,5.01341404 C43.8561213,4.59813342 46.2843323,13.9454026 46.8489563,16.3686481 C47.0998566,17.444989 47.1742873,18.0544881 45.9608375,18.2727596 L45.9608375,18.2727596 Z M16.168036,23.7016402 C15.8439511,23.1414432 15.5603275,22.2616463 15.7442074,21.4302213 C15.9685487,20.415807 17.1700633,19.6964745 18.7975051,19.8471715 C20.4250124,19.9978021 21.1579088,21.3318164 21.2887363,22.1983907 L20.567316,22.4727417 C20.5527578,22.6377909 20.520428,22.8041689 20.4672445,22.9696167 C20.3403516,23.3638343 19.8934396,24.7531971 19.6641144,25.4658851 C19.5664692,25.7696712 19.2261209,25.6777115 18.8133093,25.6193729 C18.3473797,25.5535924 17.9294531,25.4945893 17.9294531,25.4945893 C17.9294531,25.4945893 17.139832,24.5215702 16.605177,23.7070886 L16.168036,23.7016402 Z" id="picto" fill="#007DBC"></path>
    </g>
</svg>