<?xml version="1.0" encoding="UTF-8"?>
<svg width="55px" height="55px" viewBox="0 0 55 55" version="1.1" xmlns="http://www.w3.org/2000/svg" xmlns:xlink="http://www.w3.org/1999/xlink">
    <title>sports_picto/kite</title>
    <g id="sports_picto/kite" stroke="none" stroke-width="1" fill="none" fill-rule="evenodd">
        <path d="M24.2957285,25.0430867 C24.5258443,24.9850905 24.7300957,24.8485815 24.8755346,24.6556855 C24.8755346,24.6556855 26.984399,21.8378744 27.4775136,21.2097051 C27.9382001,20.6230383 27.878218,19.9525619 27.5817513,19.7522235 L23.9715128,23.158847 L22.4880748,23.5505393 C22.2443119,23.0724896 21.7948679,22.4064384 21.3537422,22.5134464 C20.8651116,22.6319196 20.2715934,22.7821063 19.4048087,23.0025589 C18.5170984,23.2283083 18.3779631,23.8197355 18.3572325,24.3929928 C18.3346824,25.0165359 18.2478609,26.3668753 18.1542159,27.7306913 L17.1713659,33.6984674 L19.8673148,33.8912964 L19.8673148,34.165186 L17.8557997,34.165186 C17.8950513,34.4757507 17.9545136,34.7825607 18.0431547,35.0647642 C18.6117831,36.8750504 19.2886785,40.3280038 19.2886785,40.3280038 C19.2886785,40.3280038 17.6909299,46.2109646 17.5447112,46.743524 C17.3984924,47.2762175 17.0591999,48.4260845 17.3120609,49.0525776 C17.5058495,49.5326387 17.8281806,49.7893641 18.270606,49.9743486 C19.9899436,45.4354246 21.1759402,42.5817431 21.6888756,41.3764277 C21.6888756,41.3764277 23.0689207,46.7194539 23.2601098,47.3938191 C23.451299,48.0682513 23.6628288,49.0490912 24.1044094,49.5535576 C24.565096,50.0799486 25.6031841,49.9949322 25.6031841,49.9949322 L24.1643266,40.7079627 L22.9951614,34.0258611 L23.1086922,25.3425215 L24.2957285,25.0430867 Z M26.287163,26.8104625 C25.8981561,26.8104625 25.5769947,27.1145906 25.5344288,27.5043385 L26.2628582,27.592372 C26.2628582,27.592372 26.1969622,27.9904338 25.8711869,28.2452819 C25.9906963,28.3266778 26.1335358,28.3743486 26.287163,28.3743486 C26.7050237,28.3743486 27.045031,28.0235554 27.045031,27.592372 C27.045031,27.1612557 26.7050237,26.8104625 26.287163,26.8104625 L26.287163,26.8104625 Z M38,18.9788961 C37.9494408,18.9806393 36.5008354,19.016778 35.5406006,18.1730505 C34.8171751,17.5374389 34.3274398,16.5828817 34.1046674,15.3119267 C33.8566804,13.8971545 32.9369969,12.8951275 31.3712215,12.3338047 C31.284595,12.3027617 31.1984235,12.2746017 31.1127718,12.2477826 L26.9339048,26.5735832 C27.255456,26.7916221 27.4685455,27.1666195 27.4685455,27.592372 C27.4685455,28.2645246 26.9385838,28.8112981 26.287163,28.8112981 C25.9524845,28.8112981 25.650559,28.6663411 25.43539,28.4348926 C25.43539,28.4348926 24.1573081,28.4885978 23.3720159,28.51421 L23.3720159,27.2429197 L25.1139687,27.4535164 C25.1811643,26.8466011 25.6812974,26.373513 26.287163,26.373513 C26.3862668,26.373513 26.4820563,26.387593 26.5740766,26.4113949 L30.7366321,12.141445 C28.3017974,11.798027 26.6975503,12.1978992 26.6975503,12.1978992 L29.3127214,5 L37.8260322,8.05428809 C34.9742466,9.28903739 34.2344447,11.1733442 33.4984769,12.9310651 C34.1220837,13.5421372 34.522853,14.3068826 34.6801844,15.2045834 C35.1532183,17.9030497 36.736475,18.4179756 37.9806341,18.3758696 L38,18.9788961 Z M17.5697308,21.1122178 C17.3090065,20.8101012 17.1344538,20.4338969 17.0462027,20.0148491 C16.7904823,18.8047063 17.6332872,17.7267815 18.6609126,17.495333 C19.6878882,17.2640187 20.8628371,17.96118 21.1152432,19.154695 C21.1959559,19.5372018 21.4592147,20.8596494 21.5860676,21.5539947 C21.640201,21.8504794 21.5273851,22.0344581 21.1446819,22.087828 C20.6578709,22.1557473 19.8545776,22.2813275 19.8545776,22.2813275 C19.8545776,22.2813275 17.962117,21.5676054 17.5697308,21.1122178 L17.5697308,21.1122178 Z" id="picto" fill="#007DBC"></path>
    </g>
</svg>