<?xml version="1.0" encoding="UTF-8"?>
<svg width="55px" height="55px" viewBox="0 0 55 55" version="1.1" xmlns="http://www.w3.org/2000/svg" xmlns:xlink="http://www.w3.org/1999/xlink">
    <title>sports_picto/bodybuilding</title>
    <g id="sports_picto/bodybuilding" stroke="none" stroke-width="1" fill="none" fill-rule="evenodd">
        <path d="M35.9419876,17.7005565 L33.4867208,17.4651286 C34.1074352,17.9661001 34.1604344,18.5450314 34.4150645,19.5776317 C34.6706299,20.6134063 34.7943207,21.0986619 34.7943207,21.0986619 L35.9419876,17.7005565 Z M23.1784503,16.4766564 L21.1050117,16.2777698 L20.5446229,19.4025124 L23.1784503,16.4766564 Z M45.8509713,23.1838365 C45.57974,23.1838365 44.7609021,23.1342116 44.4039367,23.090935 C42.5197365,22.8627843 41.172621,20.8602921 40.9452699,18.1803929 L38.2283584,17.9198816 C38.1684225,18.2173213 38.0887678,18.5276897 37.9913428,18.8483548 C37.3961148,20.8082672 37.0901222,21.6776706 36.6858473,22.9066029 C35.4614873,26.6280055 33.5082322,25.1250137 33.1334186,24.2511201 C32.5375671,22.8623198 32.1133395,21.5902657 32.1133395,21.5902657 L31.0741651,27.267555 C31.0741651,27.267555 34.296206,30.6531961 35.4289864,31.6285846 C37.2573815,33.2029557 37.6731136,34.0803331 36.8358818,36.4447542 C36.4156292,37.6315711 32.8967927,48 32.8967927,48 C31.3469552,47.5897624 31.2300452,45.3833513 31.698075,43.3008089 C32.090581,41.5543378 32.9836958,36.4028711 32.9836958,36.4028711 L28.9071984,32.5418065 L28.0869576,37.5987459 L21.7671902,47.7319791 C19.9677108,46.893001 21.2954192,44.2342369 21.6692975,43.2215329 C22.3680299,41.3290516 24.4102925,36.8093152 24.4102925,36.8093152 C24.4102925,36.8093152 23.5082146,33.7531649 23.176268,31.0868139 C23.0722181,30.2512421 23.0746342,29.5859898 23.2801621,28.8546226 C23.5919222,27.7449914 23.7672873,27.4417454 24.2299393,26.8913813 L23.5139822,21.1257582 C23.5139822,21.1257582 21.5466979,22.4850622 20.0547698,23.514953 C18.5629197,24.5448437 17.2171292,23.3906972 17.4346598,22.3515163 C17.9184336,20.0408232 18.4097675,17.8046837 18.8257335,16.059219 L15.7350215,15.7628631 C15.4958236,18.0839302 14.2462111,19.9653408 12.6260717,19.9653408 C12.4259217,19.9653408 11.1790371,19.8734457 11.1790371,19.8734457 C11.1790371,19.8734457 11.7275011,19.9288769 11.1789591,19.8725167 C9.49233688,19.6994102 7.95925648,17.6588283 7.72278643,14.9944901 L6,14.8293577 L6,13.6231863 L7.70486022,13.786693 C7.85310216,11.3045192 9.21791003,9.29080134 10.8403876,9.24925311 C11.0194938,9.24489251 12.0051235,9.31704602 12.3815738,9.35227118 C14.0907987,9.5120618 15.5916898,11.7198664 15.7606638,14.4396358 C15.7632358,14.4798157 15.7642491,14.5196085 15.7661976,14.5596336 L19.1102146,14.8802987 C19.4524492,13.4797309 19.681515,12.605063 19.681515,12.605063 C21.0922295,12.8355362 21.2646329,14.374837 21.2676725,15.0872368 L36.336598,16.5321651 L36.9716534,14.6520706 C37.9410715,14.9271365 38.345892,15.6832001 38.3560242,16.7257874 L40.9315525,16.972828 C41.0889914,14.505983 42.4251952,12.5243936 44.0652873,12.4678785 C44.312591,12.4593625 45.4021926,12.5520318 45.6064735,12.5706895 C47.258958,12.721577 48.8166674,14.9382847 48.9856414,17.6580541 C49.1678652,20.5925808 47.5873973,23.1838365 45.8509713,23.1838365 L45.8509713,23.1838365 Z M25.8224879,11.7904716 C25.6838326,11.2543524 25.7004338,10.6845564 25.8529625,10.1177023 C26.2926222,8.48131944 28.0369201,7.7144174 29.4810709,8.09670715 C30.9239747,8.47907432 31.9686828,10.0860384 31.5349466,11.7004345 C31.3959795,12.2181282 30.9440832,13.8997231 30.6926487,14.8344673 C30.585559,15.2329374 30.2066146,15.2741237 29.6603329,15.2204731 C29.0302657,15.1586936 28.0823591,15.0501536 28.0823591,15.0501536 C28.0823591,15.0501536 26.0308996,12.5980954 25.8224879,11.7904716 L25.8224879,11.7904716 Z" id="picto" fill="#007DBC"></path>
    </g>
</svg>