<?xml version="1.0" encoding="UTF-8"?>
<svg width="55px" height="55px" viewBox="0 0 55 55" version="1.1" xmlns="http://www.w3.org/2000/svg" xmlns:xlink="http://www.w3.org/1999/xlink">
    <title>sports_picto/swimming</title>
    <g id="sports_picto/swimming" stroke="none" stroke-width="1" fill="none" fill-rule="evenodd">
        <path d="M48,37.0854741 L48,38 C37.9523083,38 32.8449355,36.9101138 27.9056772,35.8561989 C23.0123302,34.8119627 17.952384,33.7322125 8,33.7322125 L8,32.8176866 C13.1979075,32.8176866 17.0734771,33.1094204 20.2878021,33.536885 L21.5448336,33.1327408 L24.3681545,30.2671501 L18.426574,22.4628148 L11.6988943,32.2282747 C9.91085167,30.5293142 10.9624944,28.2977186 11.3119813,27.5442255 C12.5690129,24.8341804 14.3385697,21.2026743 15.1104259,19.6033972 C16.8369503,16.0260767 18.7309072,16.5576449 21.1954983,18.6671513 C24.3594419,21.3752911 31.2731157,27.4398933 31.2731157,27.4398933 C32.075731,28.102696 32.6367435,29.6358224 32.6367435,30.8970298 L32.6931099,35.075651 L32.6977313,35.8854637 C33.0433544,35.9469656 33.3955687,36.0071719 33.7553592,36.0658539 C33.4637539,35.7793787 33.5123927,35.1717525 33.5048165,34.4771701 C33.4936796,33.4721061 33.4832246,32.570917 33.4832246,32.570917 C33.4832246,32.570917 37.2263634,28.3895522 38.4996837,27.9269546 C39.344498,27.6201311 40.2682556,27.5580196 41.2078474,27.7158515 C43.9198748,28.171133 45.4272218,30.8683747 45.0304598,33.2600123 C44.7562039,34.9129416 43.505612,36.3488235 41.8748499,36.9287853 C43.69797,37.0286973 45.7202665,37.0854741 48,37.0854741" id="picto" fill="#007DBC"></path>
    </g>
</svg>