<?xml version="1.0" encoding="UTF-8"?>
<svg width="55px" height="55px" viewBox="0 0 55 55" version="1.1" xmlns="http://www.w3.org/2000/svg" xmlns:xlink="http://www.w3.org/1999/xlink">
    <title>sports_picto/padel</title>
    <g id="sports_picto/padel" stroke="none" stroke-width="1" fill="none" fill-rule="evenodd">
        <path d="M40.958035,23.5056409 C40.3825906,23.5056409 39.9160701,23.9798431 39.9160701,24.564611 C39.9160701,25.1495148 40.3825906,25.6236491 40.958035,25.6236491 C41.5334795,25.6236491 42,25.1495148 42,24.564611 C42,23.9798431 41.5334795,23.5056409 40.958035,23.5056409 L40.958035,23.5056409 Z M32.015444,21.6019003 L33.8629376,18.1906749 L33.1736881,18.4882575 L31.7320012,21.09936 L27.8380224,21.4658508 L27.8380224,18.1304652 L27.4562204,18.5455451 L27.1822725,20.7712648 L25.2051936,21.2555247 C25.2910489,21.295891 25.3716218,21.3450237 25.4454413,21.4029229 L27.0322932,22.1855129 L32.015444,21.6019003 Z M19.6344957,20.2624726 C19.8461918,20.0702229 20.038497,19.8505867 20.2043903,19.6024765 C20.367074,19.3593952 20.495322,19.1025187 20.5927451,18.8375553 L20.9123621,20.0997841 L19.6344957,20.2624726 Z M38.2574046,34.4222823 C38.9881107,35.7642924 38.8539117,36.6403909 38.8539117,36.9589722 L38.8539117,47.992907 C38.8539117,47.992907 36.8331697,48.2501234 36.6074986,45.6666793 C36.3548139,42.7751872 35.8297861,37.878563 35.8297861,37.878563 L34.7322559,36.6979503 L36.5736647,35.8894008 L36.6656047,35.5268515 L33.022639,36.7657711 L30.6648948,32.4955724 C30.6648948,32.4955724 27.8423686,38.8113375 27.6080051,39.3907368 C27.2184467,40.3539559 26.9637561,40.8703593 26.2908886,41.3991988 C25.7809055,41.7998718 17.2762835,47.2453827 17.2762835,47.2453827 C17.2762835,47.2453827 16.1991473,46.0267821 17.8244468,44.2162102 C18.6017582,43.3501014 24.3009716,38.8786147 24.3009716,38.8786147 L24.6851138,36.0671077 L26.289217,36.3530018 L26.7211681,36.1793043 L23.9686501,35.2615483 L25.6535267,28.9796936 L26.6432698,26.7718465 L26.4426733,23.8204845 L24.6773574,23.8204845 L24.6788285,23.8073009 C24.6447271,23.8174265 24.6104251,23.8233387 24.5758556,23.8204845 C24.0654713,23.7786232 23.6513064,23.3641549 23.4901606,22.867323 C23.4328569,22.870585 23.3750182,22.8714004 23.3162435,22.8666435 C22.6693867,22.8135692 22.1772567,22.2731091 22.1588018,21.6288111 L20.883075,20.7472761 L17.9698793,21.11832 C17.7434727,21.1684721 17.5117169,21.1978294 17.2773534,21.2064599 L17.2015279,21.2161777 L17.2007255,21.2095179 C16.3863707,21.2237889 15.5460051,20.9850568 14.804868,20.4730026 C12.9853911,19.2157346 12.4530081,16.7876397 13.6157321,15.0497136 C14.7783893,13.3117195 17.1958443,12.9219875 19.0152544,14.1791875 C20.0225162,14.8752686 20.6344691,15.9302293 20.7835123,17.0282746 L21.4891439,19.8143657 L22.6231158,20.5979071 C22.8650351,20.3977745 23.1793698,20.2875486 23.514834,20.3139158 C24.2125754,19.2537225 25.9229947,16.6892383 26.5316713,16.0874812 C27.4431817,15.1861707 27.9960924,14.9353423 28.6531796,15.0493738 C29.6438588,15.2211685 34.9151999,16.1356625 35.4190313,16.22455 C36.1399751,16.3516971 37.3909616,16.9249803 36.9366774,18.3578485 C36.4823933,19.7906488 33.7687241,23.8884413 33.7687241,23.8884413 L31.7221051,23.821368 L32.2569622,24.2643781 L34.0060966,24.423261 L33.4767894,27.83503 C33.4767894,27.83503 36.6591856,31.8821267 37.8578165,33.7626261 C38.0343414,34.0396858 38.1726861,34.2665255 38.2574046,34.4222823 L38.2574046,34.4222823 Z M32.3087161,14.8247087 C32.3087161,14.8247087 32.8236473,14.9163824 33.3978212,15.0190651 C33.9064002,15.1099912 34.3238414,15.2393809 34.4580405,14.8664342 C34.7727764,13.9916948 35.3866016,12.2858443 35.5607862,11.8017883 C36.1046701,10.29043 35.2618306,8.66001148 33.9421063,8.1694996 C32.6212454,7.67851203 30.9216583,8.26429928 30.3707535,9.7955689 C30.1799194,10.3261073 30.115996,10.8711205 30.2001796,11.396834 C30.3271572,12.1892098 32.3087161,14.8247087 32.3087161,14.8247087 L32.3087161,14.8247087 Z M18.7191071,18.5410599 C18.604834,18.7191746 18.3701361,18.7693946 18.1949485,18.6532565 C18.0197609,18.5371184 17.9703473,18.2985902 18.0846204,18.1205435 C18.1988936,17.9424289 18.4335914,17.8922088 18.608779,18.0083469 C18.7839666,18.124485 18.8333802,18.3630132 18.7191071,18.5410599 L18.7191071,18.5410599 Z M19.4839146,17.3493023 C19.3696415,17.527349 19.1349436,17.577569 18.9596891,17.4614309 C18.7845016,17.3452928 18.7350211,17.1068326 18.8492942,16.9287179 C18.9635673,16.7506712 19.1982652,16.7003832 19.3734528,16.8165213 C19.5487073,16.9326594 19.5981209,17.1711876 19.4839146,17.3493023 L19.4839146,17.3493023 Z M20.5927451,18.8375553 L20.9123621,20.0997841 L19.6344957,20.2624726 C19.8461918,20.0702229 20.038497,19.8505867 20.2043903,19.6024765 C20.367074,19.3593952 20.495322,19.1025187 20.5927451,18.8375553 L20.5927451,18.8375553 Z M17.9544333,19.7328856 C17.8401602,19.9110002 17.6054623,19.9611523 17.4302747,19.8450142 C17.2550203,19.7289441 17.2055398,19.4904158 17.3198129,19.3123012 C17.4340861,19.1342545 17.6687839,19.0840344 17.8440384,19.2001725 C18.019226,19.3163106 18.0687065,19.5547709 17.9544333,19.7328856 L17.9544333,19.7328856 Z M33.8629376,18.1906749 L33.1736881,18.4882575 L31.7320012,21.09936 L27.8380224,21.4658508 L27.8380224,18.1304652 L27.4562204,18.5455451 L27.1822725,20.7712648 L25.2051936,21.2555247 C25.2910489,21.295891 25.3716218,21.3450237 25.4454413,21.4029229 L27.0322932,22.1855129 L32.015444,21.6019003 L33.8629376,18.1906749 Z M17.8498557,16.2662754 C17.9641288,16.0882287 18.1988267,16.0380087 18.3740143,16.1541468 C18.5492688,16.2702849 18.5986155,16.5087451 18.4843424,16.6868598 C18.3700692,16.8649065 18.1354382,16.9151945 17.9602506,16.7990564 C17.7849962,16.6829183 17.7355826,16.4443901 17.8498557,16.2662754 L17.8498557,16.2662754 Z M15.8509118,14.9414584 C15.9651849,14.7633438 16.1998159,14.7131237 16.3751373,14.8292618 C16.5503248,14.9453999 16.5997384,15.1839282 16.4854653,15.3619749 C16.3711922,15.5400895 16.1364943,15.5903096 15.9613067,15.4741715 C15.7860523,15.3580334 15.7366387,15.1195052 15.8509118,14.9414584 L15.8509118,14.9414584 Z M14.955984,17.7456261 C14.8417109,17.9236728 14.607013,17.9738928 14.4318254,17.8577547 C14.256571,17.7416166 14.2072243,17.5030884 14.3214974,17.3250417 C14.4357705,17.146995 14.6704015,17.096707 14.845656,17.2128451 C15.0208436,17.3289832 15.0702572,17.5675114 14.955984,17.7456261 L14.955984,17.7456261 Z M16.8504172,15.6039009 C16.9646903,15.4257863 17.1993213,15.3755662 17.3745758,15.4917043 C17.5497634,15.6078424 17.599177,15.8463706 17.4849038,16.0244173 C17.3706307,16.202532 17.1359328,16.2526841 16.9607452,16.136546 C16.7854908,16.0204758 16.7361441,15.7819476 16.8504172,15.6039009 L16.8504172,15.6039009 Z M16.1960046,17.3283716 C16.020817,17.2123015 15.9713365,16.9737732 16.0856097,16.7956586 C16.1998828,16.6176119 16.4345807,16.5673239 16.6097683,16.6835299 C16.7850227,16.799668 16.8345032,17.0381283 16.7202301,17.2162429 C16.6059569,17.3942897 16.3712591,17.4445097 16.1960046,17.3283716 L16.1960046,17.3283716 Z M16.9549279,19.0704431 C16.8406548,19.2484898 16.6060238,19.2987778 16.4307693,19.1826397 C16.2555149,19.0665016 16.2061013,18.8279734 16.3203744,18.6498587 C16.4346475,18.471812 16.6693454,18.421592 16.844533,18.5377301 C17.0197875,18.6538682 17.0692011,18.8923964 16.9549279,19.0704431 L16.9549279,19.0704431 Z M15.1965661,16.6659971 C15.0213116,16.549859 14.971898,16.3113308 15.0861712,16.1332161 C15.2004443,15.9551694 15.4351422,15.9049494 15.6103298,16.0210875 C15.7855842,16.1372256 15.8349309,16.3757538 15.7206578,16.5538005 C15.6063847,16.7318472 15.3718205,16.7821352 15.1965661,16.6659971 L15.1965661,16.6659971 Z M15.9554226,18.4080006 C15.8411494,18.5861153 15.6065184,18.6363353 15.431264,18.5201972 C15.2560764,18.4040591 15.2066628,18.1655309 15.3209359,17.9874842 C15.435209,17.8093695 15.6699069,17.7591495 15.8450945,17.8752876 C16.020349,17.9914257 16.0696957,18.2299539 15.9554226,18.4080006 L15.9554226,18.4080006 Z M17.19551,17.9908141 C17.0202555,17.874676 16.9709088,17.6361478 17.0851819,17.458101 C17.1993882,17.2799864 17.4340192,17.2297663 17.6093405,17.3459044 C17.7845281,17.4620425 17.8339417,17.7005708 17.7196686,17.8786175 C17.6053955,18.0567321 17.3706976,18.1069522 17.19551,17.9908141 L17.19551,17.9908141 Z M20.9123621,20.0997841 L19.6344957,20.2624726 C19.8461918,20.0702229 20.038497,19.8505867 20.2043903,19.6024765 C20.367074,19.3593952 20.495322,19.1025187 20.5927451,18.8375553 L20.9123621,20.0997841 Z M27.0322932,22.1855129 L25.4454413,21.4029229 C25.3716218,21.3450237 25.2910489,21.295891 25.2051936,21.2555247 L27.1822725,20.7712648 L27.4562204,18.5455451 L27.8380224,18.1304652 L27.8380224,21.4658508 L31.7320012,21.09936 L33.1736881,18.4882575 L33.8629376,18.1906749 L32.015444,21.6019003 L27.0322932,22.1855129 Z" id="picto" fill="#007DBC"></path>
    </g>
</svg>