<?xml version="1.0" encoding="UTF-8"?>
<svg width="55px" height="55px" viewBox="0 0 55 55" version="1.1" xmlns="http://www.w3.org/2000/svg" xmlns:xlink="http://www.w3.org/1999/xlink">
    <title>sports_picto/fishing</title>
    <g id="sports_picto/fishing" stroke="none" stroke-width="1" fill="none" fill-rule="evenodd">
        <path d="M44.0263214,25.8194351 C44.0180888,25.6938642 43.910386,25.5985219 43.7858404,25.6069187 C43.6616724,25.6152392 43.567338,25.7240928 43.5755705,25.8495874 C43.5838031,25.9754637 43.6915059,26.0708059 43.8157494,26.0624854 C43.940295,26.0540886 44.0345539,25.945235 44.0263214,25.8194351 L44.0263214,25.8194351 Z M26.085108,25.3815018 C26.085108,25.8851595 26.4905421,26.2949252 26.9888755,26.2949252 C27.4872845,26.2949252 27.8927186,25.8851595 27.8927186,25.3815018 C27.8927186,24.8777677 27.4872845,24.468002 26.9888755,24.468002 C26.4905421,24.468002 26.085108,24.8777677 26.085108,25.3815018 L26.085108,25.3815018 Z M46,6.29953165 C45.9951087,6.45327014 45.8676175,6.57418463 45.7159573,6.56922286 C45.2803121,6.55563525 44.8513888,6.55372688 44.4284322,6.56227639 L44.4349276,24.9599804 C44.8422499,25.359899 45.138395,26.5084339 45.138395,26.5084339 C44.8502559,26.5473648 44.550863,26.5587387 44.2466364,26.5411816 C43.7941484,26.5146171 43.3597116,26.4253816 42.9631143,26.2810323 C42.9631143,26.2810323 43.3075218,25.2087559 43.8838756,24.9035689 L43.8774558,6.57907006 C40.6431975,6.7202133 37.7963222,7.52585187 35.3944576,8.98201649 C32.0310465,11.0211508 29.5547114,14.3450015 28.034258,18.861127 C27.3217273,20.9775885 26.7327602,22.7275662 26.2462847,24.1735783 C26.4622191,24.0374731 26.7162196,23.9574742 26.9888755,23.9574742 C27.7658317,23.9574742 28.3978496,24.596321 28.3978496,25.3815018 C28.3978496,26.1666826 27.7658317,26.8054531 26.9888755,26.8054531 C26.4619925,26.8054531 26.0023294,26.5111057 25.7607154,26.0770654 L25.474691,26.8860627 L27.0316999,27.5558252 C27.0316999,27.5558252 26.7759622,28.7842828 24.9095909,28.4839049 L23.4707832,32.5528606 C23.405376,32.7378964 23.2330212,32.8532384 23.0491862,32.8532384 C22.9991867,32.8532384 22.9483564,32.8446126 22.8985079,32.8266739 C22.6656552,32.7425528 22.5443573,32.4836248 22.6275891,32.2482843 L24.0367142,28.263297 L17.7884373,26.461259 L18.0931926,26.9428559 L19.8684017,27.4565898 C20.0452882,28.780695 20.1719486,29.7165609 20.1719486,29.7165609 L24.1497041,37.8423351 C24.1497041,37.8423351 24.6892003,45.2655227 24.967974,50 C23.3423102,50.0224086 22.8043245,48.8974611 22.5275146,47.7348805 C22.2848432,46.7155042 21.0187681,39.3439189 21.0187681,39.3439189 C21.0187681,39.3439189 19.7057145,37.4753932 18.5610883,35.830834 L16.5661683,40.9440512 C16.5661683,40.9440512 14.4241199,44.2940847 10.8273275,49.5943224 C9.57915242,48.9161631 9.99357433,47.1490101 10.4552767,46.2101672 C10.9169791,45.2712478 13.6225417,39.8903242 13.6225417,39.8903242 L15.0133135,32.9001081 C14.745869,32.5023269 14.630991,32.0437831 14.5624871,31.6683681 C14.3840901,30.691892 14.6834829,29.2568721 14.6834829,29.2568721 C14.6834829,29.2568721 13.7881745,23.999153 13.3135568,21.032168 C13.0437709,19.3457773 14.5423967,18.6880758 15.0597632,18.7793723 C15.6241081,18.8789894 17.7235588,19.2339467 18.0379061,19.2881445 C18.3522535,19.3424186 18.8447713,19.5021112 18.8972632,19.949052 C18.9865373,20.7086607 19.1116871,21.6926939 19.263876,22.8693201 L20.0285965,24.5432682 L24.6493215,26.5309527 L25.3144962,24.6497554 C25.0484112,24.9861633 24.3867108,25.4917294 22.9292478,25.1224211 L20.2337305,24.1139607 L19.6059421,22.8061911 L19.4508832,21.5649856 L25.4383621,24.3773925 C25.4925156,24.3105231 25.5641161,24.2614397 25.6437226,24.2345698 C26.1454548,22.7432148 26.7602524,20.9165206 27.5125864,18.68174 C31.1581699,7.85355761 39.4336173,5.81549203 45.7329511,6.01251241 C45.8850644,6.01732151 46.0045497,6.14571682 46,6.29953165 L46,6.29953165 Z M45.4605218,29.1556521 L45.4374102,27.4646049 C45.4374102,27.4646049 45.3124115,27.3327746 45.2521401,27.3330799 C45.2358261,27.1375099 45.2138475,26.9485047 45.185449,26.7688886 C44.8768417,26.8114835 44.5566032,26.8241551 44.2316819,26.8052241 C43.7640128,26.7780488 43.3136396,26.686905 42.9001995,26.5392733 C42.8729339,26.673012 42.8521637,26.8129339 42.8383421,26.9575122 L42.8382666,26.9572832 L42.4649319,27.4656736 L43.038038,29.4794647 L43.3341832,29.2774826 C43.5211904,29.6175546 43.7277594,29.9037341 43.895507,30.0989988 L43.1804082,31.5176066 L44.2350807,31.0011247 L45.3331061,31.4181423 L44.5229932,30.1258687 C44.7061485,29.8826657 44.9089411,29.4840448 45.0572025,29.0162645 L45.4605218,29.1556521 Z M19.4793572,15.133541 C19.45972,15.2696461 18.7474158,17.5528994 18.4920557,18.3560953 C18.383371,18.6984573 17.9972721,18.6080768 17.5327751,18.5334976 C16.9917684,18.4464758 16.2874702,18.3101417 16.2874702,18.3101417 C16.2874702,18.3101417 14.7921676,16.7155819 14.4144523,14.8118657 C14.2515385,13.202497 15.3054556,11.9657189 16.7845952,11.79366 C18.1593551,11.6338147 19.4107778,12.5492229 19.7172703,13.8794349 L21.418462,14.3270627 L21.6761634,15.2680431 L19.4793572,15.133541 Z" id="picto" fill="#007DBC"></path>
    </g>
</svg>