<?xml version="1.0" encoding="UTF-8"?>
<svg width="55px" height="55px" viewBox="0 0 55 55" version="1.1" xmlns="http://www.w3.org/2000/svg" xmlns:xlink="http://www.w3.org/1999/xlink">
    <title>sports_picto/pilates</title>
    <g id="sports_picto/pilates" stroke="none" stroke-width="1" fill="none" fill-rule="evenodd">
        <path d="M42.7308174,31.4563236 C40.1372476,31.3952536 32.7077808,31.1995381 32.7077808,31.1995381 C31.9930205,30.4050912 30.7685884,30.0593092 29.9426685,29.9555056 C28.8707949,29.8207066 22.1535725,28.9578245 22.1535725,28.9578245 L22.3624731,29.2894898 C22.3624731,29.2894898 26.990918,29.902031 29.8848015,30.2971446 C32.7798287,30.6924117 32.8635414,32.9280644 32.8822205,33.3342259 C32.9009758,33.7403873 33.4917681,47.7647731 33.4917681,47.7647731 C32.518093,48.214282 31.3416928,47.4337983 31.0463347,45.8087688 C30.7341274,44.0912904 30.0382749,39.6755311 29.2674011,34.7459707 C26.6443259,34.7436691 24.4866265,34.6379474 22.8803027,34.5184927 C25.0289294,35.8967104 26.4251328,38.110114 26.4251328,40.6014013 C26.4251328,42.6329759 25.5039115,44.5164787 23.8311817,45.9049004 C22.2037391,47.2559588 20.0307152,48 17.7126045,48 C15.3944175,48 13.2213936,47.2559588 11.5938748,45.9049004 C9.92122124,44.5164787 9,42.6329759 9,40.6014013 C9,36.7941937 12.2599933,33.6358165 16.4848178,33.1164914 C15.9955786,32.7215312 15.1605098,31.8211324 14.8302334,30.1046514 L14.0440351,26.3909669 C13.415046,24.7222831 11.5480539,18.8491299 12.0215874,17.5968115 C12.442972,16.4824376 13.2169716,15.9790705 14.396574,15.9790705 C14.876588,15.9790705 33.7207201,16.0323149 33.7207201,16.0323149 C33.7207201,16.0323149 33.4615004,17.8321918 31.8860542,17.9596255 C30.3065673,18.0873661 23.8392633,18.5545209 23.8392633,18.5545209 L17.7130619,19.296107 L17.8419857,19.5701547 L19.9777277,19.4985739 C20.2073659,19.984909 20.3672435,20.4204546 20.3672435,20.6912034 C20.3672435,21.6311135 19.8045079,22.5519968 19.8045079,22.5519968 L20.0858375,25.1839906 L21.1197431,27.5870487 L32.6017295,27.5870487 L45.9863887,29.4879673 C46.1117291,30.3825352 45.3981124,31.5191582 42.7308174,31.4563236 M17.7126045,46.7935608 C20.0070042,46.7935608 22.0308243,45.9876824 23.400267,44.6933209 L12.0247895,44.6933209 C13.3942322,45.9876824 15.4181285,46.7935608 17.7126045,46.7935608 M17.2075072,11.6729456 C17.1124345,12.2129087 16.7772787,14.1165125 16.605355,15.0929419 C16.532316,15.5089236 16.0664066,15.4520733 15.5111427,15.4527638 C14.884517,15.4534543 14.3225439,15.4544516 14.3225439,15.4544516 C14.3225439,15.4544516 11.7385804,13.066124 11.4584706,12.2595551 C11.3648465,11.9906477 11.3101054,11.7094649 11.2918838,11.421147 C10.4455313,11.3198752 9.78917165,10.5957815 9.78917165,9.71686464 C9.78917165,8.76859192 10.5530313,8 11.4953713,8 C11.9910147,8 12.4371014,8.21282431 12.7488513,8.55254532 C13.3740283,8.18819684 14.1213436,8.04595594 14.8239054,8.17116476 C16.3114455,8.43615942 17.5041613,9.98592552 17.2075072,11.6729456" id="picto" fill="#007DBC"></path>
    </g>
</svg>