<?xml version="1.0" encoding="UTF-8"?>
<svg width="55px" height="55px" viewBox="0 0 55 55" version="1.1" xmlns="http://www.w3.org/2000/svg" xmlns:xlink="http://www.w3.org/1999/xlink">
    <title>sports_picto/table_tennis</title>
    <g id="sports_picto/table_tennis" stroke="none" stroke-width="1" fill="none" fill-rule="evenodd">
        <path d="M49,45.3215026 C47.5261198,46.5489777 45.8742668,45.2101854 45.0502672,44.2128446 C44.2262676,43.2154343 39.202953,37.0128518 39.202953,37.0128518 L30.0264282,31.3242173 L21.9329444,35.579131 C21.9329444,35.579131 18.7538194,44.9697042 18.3374754,46.2262759 C17.9210613,47.4829171 16.6679653,48.3167196 15.7179835,47.8849228 C15.7179835,47.8849228 17.602322,36.3843229 17.779594,35.302331 C18.0094871,33.8990956 18.0604265,33.7313212 19.2809409,32.3325996 C20.113699,31.3781051 24.6420533,26.5548697 24.6420533,26.5548697 L23.9135564,24.5726183 L21.3889365,22.8705 C21.3889365,22.8705 21.5140079,24.0793644 21.6126636,25.033095 C21.7658322,26.5138289 21.690369,26.6009799 20.7090668,27.1993011 C18.9560356,28.2682377 15.5462468,30.367709 14.5222031,31.144221 C13.8566272,31.6487941 13.1530044,31.5991423 12.6300169,31.4350484 L11.8167377,32.0156616 L11.7732956,31.9885788 C12.1671478,33.0865427 11.490291,34.4920002 10.1334943,35.2684428 C8.64784267,36.118495 6.91029657,35.8923885 6.25256832,34.7633142 C5.59484007,33.6343093 6.26602138,32.0299669 7.75167304,31.1798453 C9.06712954,30.4271522 10.5794771,30.518817 11.3654298,31.3333838 L12.7295135,30.2406977 L12.7295836,30.2406977 L18.443208,25.2767012 C18.443208,25.2767012 17.8629749,22.5178683 17.5663071,21.2366443 C17.1302739,19.3539048 17.3483255,18.4205904 18.7220786,17.6558837 C19.6346442,17.1479079 25.7757534,13.8586691 25.7757534,13.8586691 C26.6609224,13.4580522 28.0046163,13.4143031 29.4045047,14.4344213 C30.5007185,15.2335023 33.7894298,18.187609 35.1644441,19.4313337 C35.5282371,19.7604937 35.6258419,20.2894413 35.4033059,20.7250575 L32.5016502,26.3850815 L32.881699,26.5974383 L34.0353685,24.9988596 L34.703677,26.0316164 L41.902883,34.7089403 L49,45.3215026 Z M12.8337747,24.3251927 C13.3090459,24.29811 13.6719981,23.8941598 13.6444613,23.4231277 C13.6170648,22.9519567 13.2094092,22.5922418 12.734138,22.6196024 C12.2587967,22.6467546 11.8957044,23.0507047 11.9233812,23.5218063 C11.9508479,23.9927689 12.3585035,24.3526227 12.8337747,24.3251927 L12.8337747,24.3251927 Z M17.4905636,13.6046465 C18.1524959,14.2228284 21.4603358,15.2847513 21.4603358,15.2847513 C21.4603358,15.2847513 22.424121,14.8567044 23.019769,14.5496273 C23.5471708,14.2776884 23.7950013,13.8129756 23.660681,13.3874287 C23.3458655,12.3892545 22.8427773,10.7959535 22.6681679,10.2435341 C22.1238797,8.51968025 20.2304323,7.65164231 18.6865541,8.13066037 C17.1414147,8.61023397 15.991669,10.3120744 16.5431742,12.0590528 C16.7341095,12.6645267 17.0514474,13.1946548 17.4905636,13.6046465 L17.4905636,13.6046465 Z M31.9785926,21.8201047 C32.3065809,21.0257458 32.5146828,20.479993 32.5146828,20.479993 L30.3104138,19.2419626 L31.9785926,21.8201047 Z" id="picto" fill="#007DBC"></path>
    </g>
</svg>