<?xml version="1.0" encoding="UTF-8"?>
<svg width="55px" height="55px" viewBox="0 0 55 55" version="1.1" xmlns="http://www.w3.org/2000/svg" xmlns:xlink="http://www.w3.org/1999/xlink">
    <title>sports_picto/roller</title>
    <g id="sports_picto/roller" stroke="none" stroke-width="1" fill="none" fill-rule="evenodd">
        <path d="M28.4005731,9.59299996 C28.9988355,10.4752333 30.0753558,11.7212 30.0753558,11.7212 C30.0753558,11.7212 30.9031468,11.8364838 31.5231701,11.9097527 C32.0341492,11.9701243 32.4923264,11.906746 32.5833698,11.5321726 C32.7988179,10.6539746 33.1902725,9.05345294 33.309077,8.56747291 C33.3580388,8.36697253 33.3821997,8.16726338 33.3851598,7.97071919 L34.2950339,7.8852652 C34.163909,6.85934253 33.3201974,5.2634892 31.3588439,5.03497889 C29.3974904,4.80638946 27.6255041,5.72794748 27.3818149,6.93031682 C27.1820474,7.91572796 27.5483812,8.94560684 27.9549564,9.59751003 L28.4005731,9.59299996 Z M15.1223957,38.2545859 C15.1343961,37.7050693 14.6936596,37.250185 14.1381988,37.2385538 C13.582578,37.2266852 13.1226408,37.6626588 13.1107203,38.2120172 C13.10296,38.5748802 13.2932872,38.8956491 13.583138,39.0756564 C13.2857669,39.2430829 13.0817592,39.5555439 13.0739189,39.918486 C13.0660786,40.2814281 13.2564058,40.602197 13.5462566,40.7822043 C13.2488855,40.94971 13.0449578,41.2621709 13.0371176,41.625113 C13.0291973,41.987976 13.2195244,42.3087449 13.5092952,42.4887522 C13.2120041,42.6562579 13.0080765,42.9686397 13.0002362,43.3315818 C12.9883157,43.8810193 13.4291322,44.3358245 13.9847531,44.3476139 C14.5401339,44.3593243 15.0001511,43.9235089 15.0118315,43.3739923 C15.0197518,43.0111293 14.8295047,42.6904395 14.5397338,42.5105113 C14.837025,42.3428474 15.0410326,42.0304656 15.0487129,41.6676026 C15.0565532,41.3046605 14.8663061,40.9838915 14.5765352,40.8039634 C14.8738264,40.6363786 15.077834,40.3239968 15.0855943,39.9610547 C15.0934346,39.5981126 14.9031075,39.2774228 14.6134166,39.0974946 C14.9106277,38.9299099 15.1146354,38.6174489 15.1223957,38.2545859 L15.1223957,38.2545859 Z M35.1538661,48.0098714 C34.7867323,48.0098714 34.4665603,48.2049123 34.2909537,48.4952976 C34.1151872,48.2049123 33.7950152,48.0098714 33.4278814,48.0098714 C33.0609077,48.0098714 32.7407357,48.2049123 32.5650491,48.4952976 C32.3892825,48.2049123 32.0691105,48.0098714 31.7022168,48.0098714 C31.335163,48.0098714 31.014911,48.2049123 30.8391444,48.4952976 C30.6634579,48.2049123 30.3432059,48.0098714 29.9762321,48.0098714 C29.4206113,48.0098714 28.9701944,48.4553399 28.9701944,49.0049357 C28.9701944,49.5544524 29.4206113,50 29.9762321,50 C30.3432059,50 30.6634579,49.8049592 30.8391444,49.5144947 C31.014911,49.8049592 31.335163,50 31.7022168,50 C32.0691105,50 32.3892825,49.8049592 32.5650491,49.5145738 C32.7407357,49.8049592 33.0609077,50 33.4278814,50 C33.7950152,50 34.1151872,49.8049592 34.2909537,49.5145738 C34.4665603,49.8049592 34.7867323,50 35.1538661,50 C35.7094869,50 36.1599038,49.5544524 36.1599038,49.0049357 C36.1599038,48.4553399 35.7094869,48.0098714 35.1538661,48.0098714 L35.1538661,48.0098714 Z M43,24.2531073 C42.3489356,24.8590394 41.2675351,25.0408665 40.5427079,24.6531586 C40.3249398,24.536688 38.3092643,23.4291093 36.8412093,22.6220438 C36.6577624,22.6907235 36.4515147,22.7284657 36.2928687,22.6972116 C35.9093344,22.6214899 35.5177197,22.3309463 35.0741031,22.0464953 C34.5349629,21.7008023 34.2764732,21.5120914 34.2161509,21.1546088 C34.1799096,20.9399452 34.1998303,20.6422805 34.2742331,20.4076776 L32.9791446,18.6781046 L30.5416933,24.0037083 L29.9713519,26.7265257 L33.3711593,33.39439 C33.6244488,33.4371962 33.9809421,33.6149088 34.1229475,33.8300472 C34.3366355,34.1539811 34.4009579,34.6340268 34.5059218,35.1464343 C34.6336066,35.769299 34.6781683,36.0839754 34.4622402,36.3767344 C34.3192748,36.5705884 34.0557449,36.7866762 33.8144559,36.889854 L32.909942,46.9155064 C31.0703531,47.0894212 30.7789822,45.4945173 30.7634616,44.9450007 C30.747941,44.395484 30.4182487,35.6234733 30.4182487,35.6234733 L28.2232064,33.0304985 L26.9693995,31.5058568 L26.156489,33.3840248 C26.3376158,33.5380002 26.5273029,34.0220813 26.4597004,34.3244143 C26.3754572,34.7020735 26.0736859,35.0834515 25.7771148,35.5162602 C25.4166213,36.0423561 25.220534,36.2940498 24.8580404,36.3464299 C24.5868302,36.3855963 24.1868952,36.3361438 23.9444062,36.2066968 L16.6211718,41.384655 C15.7749001,40.236723 16.2624384,39.1096006 16.8353398,38.5430723 C17.4082413,37.9764648 21.6139189,33.7754516 21.6139189,33.7754516 L23.7351183,27.5913518 C22.1680196,25.2661328 23.7720797,23.4420065 23.7720797,23.4420065 L25.9015195,16.9344475 L22.5947556,19.4400694 L21.0618182,27.3162374 C19.9390561,26.6853021 19.8367323,25.6255143 19.8716936,24.5995125 C19.8928144,23.9766478 20.0192191,21.7319771 20.1153027,20.0638044 C19.9709773,19.9125192 19.8456126,19.7181905 19.8169715,19.5471242 C19.7528891,19.1655089 19.9279357,18.7023957 20.0400199,18.1914125 C20.176265,17.5704468 20.2246668,17.262575 20.5413187,17.0803523 C20.7695672,16.9489272 21.1395811,16.8502595 21.4112713,16.8707526 C22.6189165,15.5706651 24.3641019,13.6910728 24.7165951,13.3068464 C25.6935117,12.2419946 26.4442598,12.0741725 27.0683632,12.13763 C27.7675894,12.2087625 31.0440321,12.6070731 32.0999917,12.7102509 C32.8967415,12.788109 33.4402019,13.128026 33.7441333,13.7354614 C34.0480646,14.3430552 36.8814508,19.9632377 36.8814508,19.9632377 L43,24.2531073 Z" id="picto" fill="#007DBC"></path>
    </g>
</svg>