<?xml version="1.0" encoding="UTF-8"?>
<svg width="55px" height="55px" viewBox="0 0 55 55" version="1.1" xmlns="http://www.w3.org/2000/svg" xmlns:xlink="http://www.w3.org/1999/xlink">
    <title>sports_picto/rugby</title>
    <g id="sports_picto/rugby" stroke="none" stroke-width="1" fill="none" fill-rule="evenodd">
        <path d="M40.6201347,20.5703673 C40.6201347,20.5703673 39.9723215,20.6768969 38.866926,20.8839477 C39.2695299,20.0878788 39.4072502,19.0760503 39.2334718,18.1554268 C39.1915867,17.9333889 39.096437,17.7767675 38.965709,17.7143889 C38.9180656,17.6917058 38.8676801,17.6824571 38.8171575,17.6824571 C38.7102855,17.6824571 38.6029336,17.7238402 38.5206716,17.7665061 C37.8326186,18.1235624 37.1832287,18.8418607 36.6427674,19.8438329 C36.1023061,20.8457375 35.8614156,21.77777 35.9461455,22.5391392 C35.9665053,22.7217517 36.0282018,22.8460362 36.1295212,22.9085498 C36.196976,22.950203 36.2878069,22.9668778 36.394679,22.9603969 C36.3950217,22.9603969 36.3953645,22.9603969 36.3957072,22.9603294 C36.5517994,22.4771657 36.9285593,21.92359 37.5721908,21.7344291 C38.2158224,21.5452682 40.7551815,20.8148858 40.7551815,20.8148858 L40.6201347,20.5703673 Z M35.471768,22.5903787 C35.3765497,21.7348342 35.6357435,20.7088963 36.2213804,19.6233477 C36.8069487,18.5377991 37.5250958,17.7519241 38.2982215,17.3507167 C38.4766614,17.2581615 38.6555127,17.2135379 38.8243555,17.2146855 C38.5911427,17.0239044 38.2943826,16.9152821 37.9843234,16.9152821 C37.8668259,16.9152821 37.7474089,16.9308767 37.6288145,16.9634837 C36.6061608,17.2449297 35.7435753,17.9907042 35.1342882,19.1202013 C34.5249324,20.2496984 34.380357,21.3710269 34.716123,22.3631426 C34.8787276,22.8436734 35.299909,23.1687304 35.7793593,23.2358346 C35.6448609,23.1203263 35.5088544,22.9234693 35.471768,22.5903787 L35.471768,22.5903787 Z M41.084915,22.9708608 C40.1616612,23.1140479 36.3865213,23.64062 35.9628035,23.64062 C35.6249809,23.64062 35.2999775,23.5406388 35.0247426,23.3627519 L33.2764696,26.9080671 C35.5499169,29.296139 37.0282334,31.5395385 38.1498757,33.0990694 C38.8988711,34.1404669 39.2407382,34.7083547 39.239093,36.0045321 C39.2378591,36.9336617 39.2238745,47.987422 39.2238745,47.987422 C39.2238745,47.987422 37.1128262,48.305593 36.8071543,45.7414571 C36.4268297,42.5448271 35.6908591,36.0538138 35.6908591,36.0538138 L27.9995685,30.5412119 L27.8626708,30.915213 L29.5035919,32.8135053 C29.5035919,32.8135053 26.9680717,35.7935657 26.5592981,36.2732188 C26.1505246,36.7529395 25.7249559,37.184391 24.5312658,37.5571095 L12.1489166,41.1234876 C11.6799547,40.2772593 12.3667738,39.0150391 13.5345513,38.514188 L22.5892658,34.323822 L25.8165409,28.9426606 C25.7589575,28.5819587 25.3043914,27.5162579 25.5949134,26.1752544 C26.0039611,24.2870209 27.8742561,23.2539946 27.8742561,23.2539946 L28.4130721,19.5127 L28.2349749,16.5951533 L24.2005726,17.3997959 L25.6978094,24.0120558 C25.2591473,24.2222121 24.2392357,24.1899427 23.5829222,22.6038806 C23.3550564,22.0532752 22.2657706,19.4771227 21.9544089,18.5955195 C21.1106751,16.2069076 21.1583185,15.6024299 22.6510309,15.0015977 C24.4252164,14.2874174 25.2091732,13.9003195 26.3299928,13.4960741 C28.3345119,12.7730502 28.9648444,12.5835517 30.4610529,12.7993113 C31.0360643,12.8822126 31.7256254,12.9933328 32.490799,13.1298365 L32.8877132,14.594922 L34.9301413,15.5998645 L35.4383148,15.362367 L33.47335,14.2967337 L33.0917229,13.1291614 C32.8150484,12.2321662 32.5043037,11.0915976 32.5548948,10.6353701 C32.6137122,10.1043425 32.8254682,9.59471521 33.160206,9.13382963 C34.1259618,7.80322253 35.9809012,7.69919079 37.1654738,8.53259235 C38.3489497,9.36531881 38.7466864,11.1705834 37.7938183,12.483368 C37.6113338,12.7350425 37.1533402,13.3661188 36.6965119,13.9953725 C37.3190296,14.1411249 37.947991,14.2966662 38.5713998,14.4615913 C39.6050218,14.7350712 40.1646775,15.8676062 40.7475723,16.8508107 C41.6657532,18.3993377 42.167757,19.3749812 42.8150218,20.6103328 C43.455637,21.8331951 42.3235749,22.778662 41.084915,22.9708608 L41.084915,22.9708608 Z" id="picto" fill="#007DBC"></path>
    </g>
</svg>