<?xml version="1.0" encoding="UTF-8"?>
<svg width="55px" height="55px" viewBox="0 0 55 55" version="1.1" xmlns="http://www.w3.org/2000/svg" xmlns:xlink="http://www.w3.org/1999/xlink">
    <title>sports_picto/running</title>
    <g id="sports_picto/running" stroke="none" stroke-width="1" fill="none" fill-rule="evenodd">
        <path d="M34.5364348,22.5613014 L33.9691868,24.3717367 C33.9691868,24.3717367 36.1625747,24.8805561 37.1517397,25.0518925 C38.2210072,25.2371171 39.5848548,25.162194 39.7880861,23.9446383 L34.5364348,22.5613014 Z M14.3879573,39.4964877 C15.333153,39.0043341 23.375914,34.7635386 23.375914,34.7635386 L25.2219006,30.3155898 C24.3038411,27.8736804 26.0082697,25.8620857 26.0082697,25.8620857 L27.2190227,24.0363734 L27.2560266,17.1775078 L23.9409127,18.74585 L25.3764463,25.5484319 C25.3764463,25.5484319 24.1011178,26.25249 23.4087821,24.4716585 C23.0893877,23.6499893 22.0389123,20.7494042 21.4454714,19.2127856 C20.881561,17.7524789 21.0356714,17.2142019 22.2754471,16.4651899 C23.5152228,15.7161778 27.7793779,13.1399916 27.7793779,13.1399916 C29.0359867,12.4080109 30.0732568,12.5267914 31.0585037,12.9404402 C31.1981753,12.999063 32.7981948,13.6160641 33.5268088,13.8968249 C33.7468732,13.9815428 33.9673003,14.1834333 34.0025628,14.4180706 C34.2468611,16.0443046 34.7596916,19.0455425 34.4091704,20.532383 L32.2979892,28.2759263 L38.1193554,36.4032953 L41,49.8393155 C39.5971169,50.3399482 38.7256388,49.6484625 38.1774732,48.0757346 C37.0709841,44.9011867 34.8052572,38.1306938 34.8052572,38.1306938 L27.7391815,31.4603422 L27.5537992,32.0475202 L29.176529,34.0349203 C29.176529,34.0349203 27.3053652,36.9971982 27.0828339,37.3438182 C26.7043783,37.9333353 25.9850516,38.1914364 25.1621865,38.4499029 C24.3393939,38.7083695 13.0849122,42.2436449 13.0849122,42.2436449 C12.7560854,40.8174739 13.422736,39.9990209 14.3879573,39.4964877 L14.3879573,39.4964877 Z M34.9086505,5.50499546 C34.2450472,5.07292655 33.4110809,4.91028853 32.621737,5.04741613 C31.8373995,5.1835935 31.0969587,5.61566241 30.6107565,6.37322665 C30.2727876,6.89988145 30.0700643,7.47404848 30.0335683,8.06422348 C29.9788605,8.95365243 31.5003012,12.3017297 31.5003012,12.3017297 C31.5003012,12.3017297 32.0403405,12.5297153 32.6424882,12.7842346 C33.0163727,12.9423407 33.3367829,13.10973 33.5767278,13.0679923 C33.6790327,13.05023 33.7666086,12.9945311 33.8376416,12.8839372 C34.3950218,12.0155598 35.4818481,10.3221509 35.7901414,9.84154637 C36.7529683,8.34118323 36.2304877,6.36562469 34.9086505,5.50499546 L34.9086505,5.50499546 Z" id="picto" fill="#007DBC"></path>
    </g>
</svg>