<?xml version="1.0" encoding="UTF-8"?>
<svg width="55px" height="55px" viewBox="0 0 55 55" version="1.1" xmlns="http://www.w3.org/2000/svg" xmlns:xlink="http://www.w3.org/1999/xlink">
    <title>sports_picto/adult_scooter</title>
    <g id="sports_picto/adult_scooter" stroke="none" stroke-width="1" fill="none" fill-rule="evenodd">
        <path d="M41,47.6705064 C41,48.9569912 39.9624907,50 38.6826952,50 C37.4028235,50 36.3652379,48.9569912 36.3652379,47.6705064 C36.3652379,46.3840217 37.4028235,45.3410129 38.6826952,45.3410129 C39.9624907,45.3410129 41,46.3840217 41,47.6705064 L41,47.6705064 Z M38.6826952,46.2603684 C37.909117,46.2603684 37.2798131,46.8929616 37.2798131,47.6705064 C37.2798131,48.4480513 37.909117,49.0806445 38.6826952,49.0806445 C39.4561209,49.0806445 40.0854248,48.4480513 40.0854248,47.6705064 C40.0854248,46.8929616 39.4561209,46.2603684 38.6826952,46.2603684 L38.6826952,46.2603684 Z M21.6399681,47.666829 C21.6399681,48.9533138 20.6024588,49.996246 19.3225871,49.996246 C18.0427916,49.996246 17.0052823,48.9533138 17.0052823,47.666829 C17.0052823,46.3802676 18.0427916,45.3373355 19.3225871,45.3373355 C20.6024588,45.3373355 21.6399681,46.3802676 21.6399681,47.666829 L21.6399681,47.666829 Z M19.3225871,46.256691 C18.5490851,46.256691 17.9198574,46.8892841 17.9198574,47.666829 C17.9198574,48.4443739 18.5490851,49.0768905 19.3225871,49.0768905 C20.0961652,49.0768905 20.7253167,48.4443739 20.7253167,47.666829 C20.7253167,46.8892841 20.0961652,46.256691 19.3225871,46.256691 L19.3225871,46.256691 Z M35.4181191,47.5515265 L35.4181191,48.1319463 L23.2747712,48.1319463 L22.7190906,48.1319463 C22.7312849,48.014422 22.7377632,47.8952122 22.7377632,47.7743936 C22.7377632,45.8957673 21.2226932,44.3727784 19.3537588,44.3727784 C17.4849007,44.3727784 15.9698307,45.8957673 15.9698307,47.7743936 C15.9698307,47.8952122 15.976309,48.014422 15.9885033,48.1319463 L15.0157764,48.1319463 C15.0061734,48.0138857 15,47.8949058 15,47.7743936 C15,45.374646 16.9353173,43.4292898 19.3225871,43.4292898 C21.5262559,43.4292898 23.3435168,45.0873474 23.6101917,47.2299819 L30.6027285,47.2299819 L30.6027285,45.5610453 L30.6030333,45.5610453 C30.5985367,45.4933961 30.5956405,45.4238315 30.5956405,45.3506661 C30.5957167,43.8846772 30.5956405,35.2529253 30.5956405,35.2529253 L30.3082353,32.4313467 L29.3246097,35.3031834 C29.3246097,35.3031834 21.2868659,38.3019677 17.6340527,39.5627871 C17.2935259,37.8870319 19.0572841,36.9929587 19.0572841,36.9929587 L26.3125326,32.9096414 C26.3125326,32.9096414 26.3157336,31.6357977 26.3360829,30.1364822 L28.5397518,30.8830754 L28.6731273,30.4649985 L25.8662961,29.3274494 L21.4327406,27.2982786 L24.1512391,21.6033311 L25.1368462,22.0483758 L29.2004561,12.9895066 C29.2645526,12.7674056 29.3221708,12.5616998 29.3701098,12.3808933 C29.769017,10.8775172 31.4354492,10.4726177 31.9625493,10.7774607 C32.4895733,11.0821504 35.2318507,12.7798169 35.2318507,12.7798169 C35.2318507,12.7798169 35.7801385,15.5253954 35.5389193,16.6476986 C35.3644641,17.4591065 34.8102315,20.047322 34.8102315,20.047322 L39.1907417,24.3422443 L39.1907417,44.3190727 L38.7585287,44.3190727 L38.7585287,44.3286493 C36.9609312,44.3286493 35.4907517,45.7621543 35.4181191,47.5515265 L35.4181191,47.5515265 Z M34.659479,11.5924693 C34.8504728,11.7316751 35.4836637,11.9942277 35.7104021,11.5878725 C36.135832,10.8252672 37.0161868,9.45343558 37.2679998,9.04079819 C38.0536199,7.75316423 37.5714864,6.09342115 36.434517,5.39264244 C35.2964044,4.69125082 33.6061933,4.90867839 32.8099794,6.21362688 C32.5337777,6.66549009 32.3737271,7.15520011 32.3545972,7.65486981 C32.3258643,8.40843485 33.4509442,10.7167066 33.4509442,10.7167066 C33.4509442,10.7167066 34.468409,11.4533402 34.659479,11.5924693 L34.659479,11.5924693 Z M38.293391,24.6015025 C38.1069701,24.6127646 37.9447855,24.6014259 37.8319879,24.587559 C37.3946685,24.5282606 36.81559,24.2236474 36.1790457,23.8274052 C35.7744986,23.5755784 35.0658553,23.1335217 34.2952495,22.6527754 L34.1032649,23.6241511 L33.5369142,35.5537843 L32.6003893,45.8817471 L32.4875155,47.2299819 L34.5249603,47.2299819 C34.7376752,45.2388878 36.3138693,43.6526166 38.293391,43.4353422 L38.293391,24.6015025 Z M25.978103,22.426001 L27.6923217,23.1953483 L28.2811556,21.89967 L28.0265989,17.8175785 L25.978103,22.426001 Z" id="picto" fill="#007DBC"></path>
    </g>
</svg>