<?xml version="1.0" encoding="UTF-8"?>
<svg width="55px" height="55px" viewBox="0 0 55 55" version="1.1" xmlns="http://www.w3.org/2000/svg" xmlns:xlink="http://www.w3.org/1999/xlink">
    <title>sports_picto/hike</title>
    <g id="sports_picto/hike" stroke="none" stroke-width="1" fill="none" fill-rule="evenodd">
        <path d="M39,38.5361838 L33.9395275,17.7969318 C34.1369589,17.6507438 34.2400093,17.3927336 34.1792495,17.1375552 L34.0836622,16.7348877 C34.445733,16.472132 34.734078,16.1581723 34.8647943,15.7679039 C35.0507674,15.2126192 34.9554816,14.7743615 34.9554816,14.7743615 L33.6913624,15.080897 L33.6529917,14.9191718 C33.5725567,14.5816383 33.2346843,14.3723063 32.9022395,14.4539725 L32.7518478,14.4909405 C32.4194031,14.5726833 32.213227,14.915651 32.2936621,15.2531845 L32.3310527,15.4107001 L29.0501019,16.2061617 L29.426948,18.3558904 C29.426948,18.3558904 31.6863662,17.8290779 32.8046922,17.4076585 L32.8199199,17.4716444 C32.8828658,17.7356247 33.1033648,17.9204645 33.3555253,17.9497021 L38.4146409,38.6834433 L39,38.5361838 Z M29.4764755,30.9094576 L30.9923029,25.9794785 C30.8160545,25.8219629 30.7341117,25.5693868 30.8044453,25.3267607 L30.8745527,25.0846703 C30.0034871,24.6816201 29.1411661,24.280713 28.3317649,23.9032266 L28.0685983,26.963071 L29.4764755,30.9094576 Z M34.681912,24.8793949 C34.681912,24.8793949 33.7521221,26.410159 32.2821283,25.734097 C32.2408177,25.7151156 32.1992809,25.6959045 32.157895,25.6768465 L32.1434966,25.7266728 C32.0738415,25.9670028 31.87347,26.1333203 31.644151,26.1709771 L29.8581462,31.9795382 C30.3767148,33.4330753 30.8402528,34.732541 30.9749646,35.1101805 C31.4599871,36.4696522 31.522933,36.8596909 31.3808336,38.3859393 C31.2749187,39.523144 30.286329,50 30.286329,50 C28.6008869,49.8563378 28.3730001,48.1209105 28.361014,47.2540387 C28.3497818,46.443193 28.1225735,38.7145944 28.0933244,37.7195977 L24.9176854,48.0477399 C24.8723795,48.1951525 24.7384216,48.2896007 24.5939099,48.2896007 C24.5604393,48.2896007 24.5264409,48.2845492 24.4927442,48.2739103 C24.3139326,48.2171955 24.2141992,48.0240131 24.2700589,47.8424645 L27.6367217,36.8927554 L25.947058,34.2065705 C25.947058,34.2065705 25.6666284,36.0337671 25.5054568,37.0837948 C25.3074223,38.3739993 25.220278,38.8628489 24.4153999,39.5199294 C22.269812,41.2713532 21.1262322,42.1379188 16.3635276,45.9019147 C15.4212239,44.473176 16.4925855,43.136972 17.5131382,41.9474152 C18.8241465,40.4192533 22.0675559,36.9213807 22.0675559,36.9213807 C22.0675559,36.9213807 21.5466504,32.8978437 21.4821968,30.0177109 C21.0839416,28.9748013 20.9345299,27.9109967 20.9649852,27.1935276 C20.9906158,26.5909423 21.0905,25.1944261 21.4778999,24.6260534 L21.0750462,24.468002 C20.880404,24.728385 20.5640915,25.5575234 20.4767211,26.843901 C19.9627509,26.6473509 19.4148578,26.4390139 18.5253985,26.1128081 C17.9037796,25.8848008 17.8563629,25.5445884 17.8200276,24.9805784 C17.7837678,24.4165683 17.1318444,14.3669486 17.1187275,14.0972279 C17.0981476,13.6740482 17.1153352,13.4776512 17.2967852,13.2383162 C17.9516486,12.3741998 19.1559882,10.6816339 19.771501,10.697895 C20.4029952,10.7146984 22.0246622,11.9074698 22.3249179,12.1322625 L22.110525,15.4104705 L22.4413866,15.4749922 C22.533657,14.6069724 22.6186151,13.8381461 22.6675395,13.4670123 C22.7798621,12.6147594 23.3884396,12.2129338 24.3207926,12.41974 C24.968796,12.5634788 26.4688681,12.8694786 27.2787217,13.0060993 C28.0886506,13.14272 28.3524956,14.1377167 28.4513998,14.9533843 C28.5215826,15.5323193 28.8326936,18.0779036 28.8326936,18.0779036 L28.6075961,20.6952041 L26.628909,19.5110815 L26.1900216,17.3290538 L25.837977,17.2589448 L26.1783371,19.8596365 C26.1783371,19.8596365 30.9763969,22.7347178 31.5153192,23.0576325 C31.6695555,22.8702669 31.9244298,22.7820949 32.1688257,22.8550358 L32.3146189,22.8985861 C32.6427668,22.9966315 32.8322829,23.3493961 32.7357156,23.6825669 L32.7127234,23.761937 C33.450208,24.1822083 34.681912,24.8793949 34.681912,24.8793949 L34.681912,24.8793949 Z M22.4331698,8.64288565 C22.3163241,8.1107155 22.3500209,7.5496139 22.5151125,6.99631919 C22.9898828,5.39835449 24.6945479,4.69848912 26.0736283,5.12067388 C27.4521055,5.54262901 28.4078277,7.15835058 27.9397666,8.73450189 C27.7896764,9.23950098 27.294477,10.9051255 27.0226412,11.817614 C26.9062478,12.2107907 26.6142091,12.2865636 25.9852779,12.1649444 C25.2554071,12.0237314 24.6801495,11.9092302 24.6801495,11.9092302 C24.6801495,11.9092302 22.6088906,9.44424069 22.4331698,8.64288565 L22.4331698,8.64288565 Z" id="picto" fill="#007DBC"></path>
    </g>
</svg>