<?xml version="1.0" encoding="UTF-8"?>
<svg width="55px" height="55px" viewBox="0 0 55 55" version="1.1" xmlns="http://www.w3.org/2000/svg" xmlns:xlink="http://www.w3.org/1999/xlink">
    <title>sports_picto/skateboard</title>
    <g id="sports_picto/skateboard" stroke="none" stroke-width="1" fill="none" fill-rule="evenodd">
        <path d="M26.3092778,9.82127376 C26.8385888,10.8331456 28.1770592,12.5500159 28.1770592,12.5500159 C28.1770592,12.5500159 28.9775148,12.698536 29.5623913,12.7637496 C30.0802783,12.8215686 30.5089495,12.9236761 30.6203138,12.5406547 C30.8815887,11.6426903 31.3906163,9.89175788 31.5349314,9.39475047 C31.6233701,9.0903944 31.657098,8.78509435 31.6449746,8.48766082 C31.8951364,8.34456863 32.121984,8.1514453 32.2708065,7.89043382 C32.1396251,6.87769666 31.2106304,5.25357274 29.2467165,5.02796064 C27.282725,4.80234854 25.8251188,5.98130549 25.5038486,7.15058661 C25.1875521,8.30169604 25.5710713,9.14561745 25.945498,9.80766467 L26.3092778,9.82127376 Z M42.6018122,17.2486947 C41.859176,17.2486947 32.6411921,17.3388451 32.6411921,17.3388451 L30.5393357,20.5721465 L29.7712092,23.8617723 L33.0456164,23.3672036 C35.7325048,23.0320893 34.7408725,25.9902982 34.7408725,25.9902982 L31.6992968,36.7296072 L32.6777954,36.9851121 C32.1863313,38.9142214 30.246742,40.1248805 30.0069162,40.26813 C29.4615961,40.6454875 21.2009726,46.3602073 19.679019,47.2735902 C18.2546744,48.1281314 17.1020184,48.8196781 14.8724,48.4883399 C14.6480393,48.4549858 14.4128764,48.4113265 14.1655123,48.3564181 L14.405105,47.2498333 C15.2084359,47.4279315 15.8417284,47.4744227 16.3920221,47.4208517 L18.8962046,35.392533 L22.5837401,24.5499364 L23.4620652,16.4965757 L19.2930129,15.4601603 L11.1452303,17.903662 C10.6481707,16.846007 11.4914468,15.9381307 12.6957049,15.415085 C13.8998854,14.8921181 18.1870631,13.0301889 18.1870631,13.0301889 C18.4399449,12.9203722 18.712333,12.8637332 18.9875964,12.8637332 L24.2583242,12.8637332 L32.9529035,13.9002272 L38.2338118,15.3433423 L44.9964955,15.401004 C45.088509,16.7542046 43.3445262,17.2486947 42.6018122,17.2486947 L42.6018122,17.2486947 Z M30.2040769,41.3485193 C29.7049968,41.2195869 29.1971349,41.5242576 29.0696838,42.0297609 C28.941844,42.5345561 29.2432194,43.0487126 29.7422996,43.1778024 C30.2412243,43.3068921 30.7492416,43.0019854 30.8764596,42.4971115 C31.0040662,41.9916869 30.7029239,41.4776091 30.2040769,41.3485193 L30.2040769,41.3485193 Z M19.91255,48.1413472 C19.413703,48.0121788 18.905608,48.3170068 18.7781568,48.8221954 C18.6506279,49.327148 18.9516925,49.8413045 19.4506949,49.9703156 C19.9499305,50.0995627 20.4577146,49.7947346 20.5853989,49.289546 C20.7126947,48.7845934 20.4114747,48.270437 19.91255,48.1413472 L19.91255,48.1413472 Z M22.0866028,36.3556323 C22.0866028,36.3556323 19.6816613,44.7189344 19.2611501,45.8447922 C19.1919069,46.0301277 19.1138042,46.1954822 19.0299506,46.3461262 C19.0560626,46.3304718 19.0818636,46.3149748 19.1082865,46.2990844 C20.6179612,45.393096 29.304225,39.3821226 29.3917311,39.3215504 L29.4296556,39.2975574 C29.4403802,39.2913429 30.1579147,38.8653702 30.7785398,38.1566745 C29.662254,37.508787 29.7331293,36.2012123 29.8437942,35.1619649 C29.9545369,34.1226389 30.616195,27.8788162 30.616195,27.8788162 L26.417689,29.6924449 L22.0866028,36.3556323 Z" id="picto" fill="#007DBC"></path>
    </g>
</svg>