<?xml version="1.0" encoding="UTF-8"?>
<svg width="55px" height="55px" viewBox="0 0 55 55" version="1.1" xmlns="http://www.w3.org/2000/svg" xmlns:xlink="http://www.w3.org/1999/xlink">
    <title>sports_picto/snorkeling</title>
    <g id="sports_picto/snorkeling" stroke="none" stroke-width="1" fill="none" fill-rule="evenodd">
        <path d="M44.3189447,22.3416477 L46.9144155,18.7822555 L47.8408358,12.9334155 C47.8408358,12.9334155 46.4949709,12.1931698 44.864273,11.3520649 C43.6964077,10.7496575 42.7266833,10.7000191 41.8755414,11.1102024 C41.2678587,11.4226081 40.3382493,12.455937 39.6744224,13.6500912 L39.5330969,13.5799644 C39.8962295,12.3706522 40.8834937,10.9040697 41.5651122,10.3534662 C41.4890784,9.98400964 41.3230797,9.64553548 41.0136575,9.29748344 L41.8468399,7.77010216 L40.2705238,6.92333377 L39.4220675,8.47869914 C38.4190259,8.37042739 37.4090188,8.8800542 36.9324229,9.82868132 L29.9739059,23.7442666 C29.8179779,24.0559227 29.9458758,24.434041 30.259662,24.589286 L33.7305282,26.3067259 L31.0409803,33.0317343 C29.4593771,33.038647 20.8577417,33.0739602 19.330772,33.0307348 C18.9947463,31.1725417 18.2266038,31.3630167 18.2266038,31.3630167 C18.2266038,31.3630167 16.8823334,32.1254164 13.1375441,34.9841238 C9.39283874,37.8429145 5.21601649,37.8429145 5.21601649,37.8429145 L5,38.4623122 C7.71271052,39.4151869 14.1937925,35.7940798 14.1937925,35.7940798 L28.1746917,36.5861293 L26.2325574,39.1770724 C26.2325574,39.1770724 24.3224816,39.7478311 25.1257877,40.7115329 C25.9291776,41.6753181 27.5376361,43.5177702 28.2768253,44.4214229 C29.0160985,45.3252422 30.542229,47.2036738 31.3126374,50 L32.0263982,49.9063866 C32.0263982,49.9063866 31.7984647,47.8837037 28.9230285,43.5566647 L28.2737202,40.433691 L31.3730616,37.2333445 L29.7440422,36.969328 L29.5772882,36.6637518 L29.5558041,36.6243576 C29.5558041,36.6243576 30.9003262,36.62594 31.529661,36.62594 C32.2482893,36.62594 32.9732117,36.1926031 33.5340657,35.555882 C33.9848134,35.0442563 40.2073302,27.9803573 40.2073302,27.9803573 L42.3116027,25.0946652 L39.5865556,23.7461822 L39.8863267,23.2456336 C39.8863267,23.2456336 44.2577652,25.3767548 45.2269021,25.8448219 C46.1959551,26.3127225 48.2966189,27.1238445 49.2429289,25.5165919 C47.9491798,24.7147147 45.9127167,23.3883857 44.3189447,22.3416477 M48.6972647,8.10840975 C48.6976005,8.56306782 49.1677343,8.96567217 49.6649751,8.83974379 C49.8287078,8.79818409 49.6734512,8.86472958 50.5568193,8.63785861 C50.5568193,8.63785861 50.4475523,8.00505187 50.3268717,7.37074597 C50.3227595,7.34867519 50.3184795,7.32660441 50.3142833,7.30453363 C50.3127727,7.30445034 50.3113461,7.30445034 50.3098355,7.30420048 C49.6342594,7.25356262 48.6968452,7.50600237 48.6972647,8.10840975 M50.0131695,11.8346237 C49.2790995,11.9944495 48.2720296,12.0671582 48.2720296,12.0671582 C48.2720296,12.0671582 45.4633117,10.9037365 44.9011989,10.2158778 C44.5281635,9.75963725 44.2893201,9.2022043 44.1834099,8.58797032 C43.8773446,6.81456231 45.2200205,5.30642008 46.7860141,5.03982171 C48.0645732,4.82236206 49.4509727,5.51113698 50.0804753,6.72444689 C49.0332905,6.83763252 48.0924355,7.19517916 47.9975191,7.86646402 C47.8629914,8.81634043 48.9257858,9.61746811 49.8186371,9.45222876 C50.1010363,9.40000846 50.4140672,9.31647264 50.6615546,9.24443029 C50.7793818,9.92754176 50.9061047,10.6623738 50.9923771,11.1624227 C51.0669841,11.5943437 50.583171,11.7105277 50.0131695,11.8346237" id="picto" fill="#007DBC"></path>
    </g>
</svg>