<?xml version="1.0" encoding="UTF-8"?>
<svg width="55px" height="55px" viewBox="0 0 55 55" version="1.1" xmlns="http://www.w3.org/2000/svg" xmlns:xlink="http://www.w3.org/1999/xlink">
    <title>sports_picto/squash</title>
    <g id="sports_picto/squash" stroke="none" stroke-width="1" fill="none" fill-rule="evenodd">
        <path d="M48.167639,30.6493182 L47.7815,30.6794671 L47.8317968,31.321081 L48.1041461,31.2997628 C48.1550648,31.0949293 48.1768969,30.8758837 48.167639,30.6493182 L48.167639,30.6493182 Z M48.0561292,31.4651336 L47.8443711,31.4816914 L47.873803,31.856932 C47.9475211,31.7361292 48.0089413,31.6049089 48.0561292,31.4651336 L48.0561292,31.4651336 Z M47.7689258,30.5188567 L48.1554102,30.4885697 C48.1300545,30.2508277 48.0731942,30.0402679 47.993189,29.8557867 L47.7185598,29.8772428 L47.7689258,30.5188567 Z M47.7279559,32.0627314 L47.6833934,31.4943167 L47.041072,31.544542 L47.0913689,32.1860868 L47.6577614,32.1417948 C47.6818044,32.1161992 47.7054329,32.0899827 47.7279559,32.0627314 L47.7279559,32.0627314 Z M47.4622392,32.318756 L47.1039431,32.3467663 L47.1175536,32.520347 C47.1520982,32.5038582 47.1865046,32.4881283 47.2212564,32.4706736 C47.3066505,32.4276924 47.3867939,32.3763633 47.4622392,32.318756 L47.4622392,32.318756 Z M47.0284287,31.3837936 L47.6708192,31.3336373 L47.6204533,30.6920924 L46.9781318,30.7423177 L47.0284287,31.3837936 Z M46.9656267,30.5816383 L47.607879,30.531482 L47.5575822,29.8898681 L46.9151916,29.9400244 L46.9656267,30.5816383 Z M46.961205,32.5914764 L46.9428964,32.3593916 L46.3005749,32.4095478 L46.3322178,32.8137646 C46.5391396,32.7576061 46.748756,32.683855 46.961205,32.5914764 L46.961205,32.5914764 Z M46.2880007,32.2488684 L46.9303222,32.1987121 L46.8800253,31.5570983 L46.2376348,31.6073235 L46.2880007,32.2488684 Z M46.2250605,31.4466441 L46.8674511,31.3964878 L46.8171542,30.754943 L46.1747637,30.8050993 L46.2250605,31.4466441 Z M46.1733819,32.8534342 L46.1395973,32.4221041 L45.4972068,32.4723984 L45.5347222,32.9510561 C45.7452367,32.9349813 45.9581002,32.9031766 46.1733819,32.8534342 L46.1733819,32.8534342 Z M45.4845635,32.311719 L46.1270231,32.2614937 L46.0765881,31.6199488 L45.4342666,31.6701051 L45.4845635,32.311719 Z M45.4216924,31.5094257 L46.0640829,31.4592694 L46.0137861,30.8176556 L45.3713264,30.8679498 L45.4216924,31.5094257 Z M45.3735373,32.9605079 L45.3362292,32.4849547 L44.6938386,32.53518 L44.7256196,32.9407075 C44.9397959,32.9619567 45.1556302,32.9690627 45.3735373,32.9605079 L45.3735373,32.9605079 Z M44.6811953,32.3745005 L45.3235859,32.3243443 L45.273289,31.6827304 L44.6309676,31.7329557 L44.6811953,32.3745005 Z M44.6183242,31.5722762 L45.2606457,31.522051 L45.2103488,30.8805751 L44.5680274,30.9307314 L44.6183242,31.5722762 Z M44.5620857,32.9217351 L44.5327919,32.5478053 L43.8904705,32.5980305 L43.9060155,32.7969308 C44.1237153,32.8501227 44.3421751,32.8928969 44.5620857,32.9217351 L44.5620857,32.9217351 Z M43.8778963,32.4372821 L44.5202177,32.3871258 L44.4699208,31.745512 L43.8275303,31.7958062 L43.8778963,32.4372821 Z M43.8149561,31.6351268 L44.4572775,31.5849016 L44.4069807,30.9433567 L43.7646592,30.993513 L43.8149561,31.6351268 Z M43.7520159,30.8328335 L44.3944755,30.7826773 L44.3441096,30.1411324 L43.701719,30.1912887 L43.7520159,30.8328335 Z M43.7408235,32.7545015 L43.7294929,32.6105868 L43.3521973,32.6401149 C43.4816012,32.6814403 43.6110741,32.7195922 43.7408235,32.7545015 L43.7408235,32.7545015 Z M43.074459,32.5002017 L43.7168496,32.4499074 L43.6665527,31.8083625 L43.0242313,31.8585878 L43.074459,32.5002017 Z M43.0115189,31.6979084 L43.6539785,31.6477521 L43.6036125,31.0061383 L42.9612911,31.0563635 L43.0115189,31.6979084 Z M42.9487169,30.8957531 L43.5910383,30.8454588 L43.5407414,30.203845 L42.8982818,30.2541392 L42.9487169,30.8957531 Z M42.9115469,32.4887492 L42.8631845,31.8711441 L42.2208631,31.9213694 L42.2449752,32.2301719 C42.4678567,32.3207568 42.68984,32.407961 42.9115469,32.4887492 L42.9115469,32.4887492 Z M42.2081507,31.7606899 L42.8505412,31.7105337 L42.8002444,31.0689888 L42.1579229,31.1191451 L42.2081507,31.7606899 Z M42.1453487,30.9584657 L42.7876701,30.9083094 L42.7373042,30.2667645 L42.0949828,30.3169208 L42.1453487,30.9584657 Z M42.0824085,30.1562414 L42.7247991,30.1060851 L42.6744331,29.4645402 L42.6286961,29.4680588 C42.4368357,29.5791339 42.2462879,29.6962111 42.0557401,29.816531 L42.0824085,30.1562414 Z M42.0776414,32.1615951 L42.0598164,31.9340637 L41.6141916,31.968835 C41.6335366,31.9769069 41.6529506,31.9849788 41.6722265,31.9930508 C41.8079175,32.0497611 41.9429176,32.1060576 42.0776414,32.1615951 L42.0776414,32.1615951 Z M41.4048516,31.8235405 L42.0471731,31.7733153 L41.9969453,31.1317704 L41.3545548,31.1819956 L41.4048516,31.8235405 Z M41.984302,30.971091 L41.933936,30.3295461 L41.2916837,30.3797714 L41.3419115,31.0213162 L41.984302,30.971091 Z M41.2421468,31.8143647 L41.1935772,31.194552 L40.5511866,31.2447772 L40.5750224,31.5499922 C40.7991474,31.6346439 41.021338,31.7235039 41.2421468,31.8143647 L41.2421468,31.8143647 Z M40.5385433,31.0840978 L41.1809338,31.0339415 L41.1318115,30.4073677 C40.9291041,30.5351385 40.7237712,30.6604947 40.5147767,30.7812285 L40.5385433,31.0840978 Z M40.4081722,31.4875556 L40.3901399,31.2574025 L39.8523503,31.2994869 C40.0390291,31.3575771 40.2243261,31.4204966 40.4081722,31.4875556 L40.4081722,31.4875556 Z M39.8470304,31.1381865 L40.3775657,31.0967231 L40.3597407,30.8696746 C40.1919233,30.963571 40.0212041,31.0534659 39.8470304,31.1381865 L39.8470304,31.1381865 Z M41.4478251,30.2058457 L41.9214309,30.1688667 L41.9015332,29.9144978 C41.8041867,29.9766585 41.7066329,30.0393711 41.6088027,30.1023596 C41.5553277,30.136855 41.5015764,30.1713503 41.4478251,30.2058457 L41.4478251,30.2058457 Z M42.8354798,29.4519149 L42.8857767,30.0934598 L43.5281672,30.0432345 L43.4778012,29.4016897 L42.8354798,29.4519149 Z M42.9677855,29.279852 L43.465227,29.2410103 L43.4498893,29.0449386 C43.2870462,29.1170339 43.1266213,29.1956833 42.9677855,29.279852 L42.9677855,29.279852 Z M43.6065143,28.9780176 L43.6262737,29.2284539 L44.2685952,29.1781597 L44.2360542,28.7628355 C44.0209798,28.8210636 43.8116398,28.8937799 43.6065143,28.9780176 L43.6065143,28.9780176 Z M44.2812385,29.3388391 L43.6387789,29.3890644 L43.6892139,30.0306092 L44.3315354,29.980453 L44.2812385,29.3388391 Z M44.3948901,28.7228208 L44.4296419,29.1656724 L45.0718942,29.1153781 L45.0332734,28.6216804 C44.8138464,28.639618 44.6016738,28.6745273 44.3948901,28.7228208 L44.3948901,28.7228208 Z M45.0846066,29.2760575 L44.4422161,29.3262828 L44.4925821,29.9678277 L45.1349035,29.9176714 L45.0846066,29.2760575 Z M45.1474086,30.0783508 L44.5050872,30.1285071 L44.5554532,30.770052 L45.1978437,30.7198267 L45.1474086,30.0783508 Z M45.1945274,28.6118837 L45.232941,29.1027528 L45.8753315,29.0525966 L45.8424451,28.6327879 C45.6193563,28.609538 45.4035911,28.6027769 45.1945274,28.6118837 L45.1945274,28.6118837 Z M45.8879057,29.213276 L45.2455843,29.2634322 L45.2958811,29.9049771 L45.9382717,29.8548208 L45.8879057,29.213276 Z M45.9508459,30.0154313 L45.3084553,30.0657255 L45.3588213,30.7072704 L46.0011427,30.6570451 L45.9508459,30.0154313 Z M46.005979,28.6527262 L46.0363782,29.0399712 L46.6786996,28.989746 L46.6631546,28.7908457 C46.4366114,28.7281331 46.2178062,28.6824612 46.005979,28.6527262 L46.005979,28.6527262 Z M46.6913429,29.1503564 L46.0489524,29.2006507 L46.0993184,29.8421955 L46.7416398,29.7919703 L46.6913429,29.1503564 Z M46.754214,29.9526497 L46.1118926,30.002875 L46.1621895,30.6444198 L46.80458,30.5942636 L46.754214,29.9526497 Z M46.8288994,28.8394152 L46.8396773,28.9771207 L47.1391785,28.9537328 C47.0805219,28.9257916 47.0217961,28.9012999 46.9638304,28.8818445 C46.9183697,28.8666665 46.8737382,28.8532133 46.8288994,28.8394152 L46.8288994,28.8394152 Z M46.8523896,29.1378001 L46.9026174,29.779414 L47.5449389,29.7291887 L47.5026563,29.1896122 L47.4947111,29.0876438 L47.3827867,29.0964057 L46.8523896,29.1378001 Z M47.6780045,29.3600883 L47.7059856,29.7165634 L47.9173983,29.7000746 C47.8475492,29.5723038 47.7666458,29.45909 47.6780045,29.3600883 L47.6780045,29.3600883 Z M47.5943376,33.2100473 C46.7553195,33.6322017 45.9619692,33.7963996 45.2010909,33.7963996 C43.8401045,33.7963996 42.5827519,33.2709662 41.3522748,32.7567782 C40.0279748,32.2034035 38.777531,31.6807987 37.4357515,31.8063618 C37.1110327,31.8368557 36.7924628,31.8639691 36.4897834,31.8879779 C36.4271196,32.1374484 36.2096962,32.3312433 35.939765,32.3506297 L33.3222551,32.5378706 C32.9864129,32.5618794 32.691886,32.3070966 32.6677739,31.9716636 L32.6332294,31.4906602 C32.6153353,31.2398789 32.7534444,31.0123474 32.9645808,30.9033421 L28.7997511,26.4283269 L27.0606401,21.8477559 L24.4792638,23.7080221 L23.6331985,26.0273527 C23.6331985,26.0273527 28.3190982,30.7792967 28.9983823,31.4575447 C30.2038491,32.661364 30.2622294,32.736357 30.5634579,34.5877234 C30.7857175,35.953326 32.4911822,46.9374102 32.4911822,46.9374102 C32.0120492,47.1214085 30.3180534,46.999019 29.7429556,45.1841486 C29.1679961,43.3692093 26.4321365,34.642778 26.4321365,34.642778 L19.4378315,30.3796334 C19.4378315,30.3796334 18.8259093,33.4663479 18.511692,35.0872163 C18.1294911,37.0589716 17.8260517,37.2395893 16.3085095,38.5647634 C15.0594475,39.6555069 10.8512299,43.2860755 10.04648,43.9445921 C9.24173004,44.6031776 7.24360395,45.7875416 6,44.7157015 L13.9452474,35.1974635 C13.9452474,35.1974635 13.7170461,30.1820439 13.5925475,27.8231126 C13.4744052,25.5855361 14.4191296,23.708712 16.0548143,22.3283454 C16.6154033,21.4554746 18.5476184,18.2298817 20.0333106,15.7392471 L16.2788702,14.0475942 C16.2788702,14.0475942 9.4760803,13.3289867 8.21237142,13.1762412 C6.94866254,13.0235647 6.44355207,11.8360271 6.58725742,11.3611639 L16.305815,11.3611639 C16.305815,11.3611639 20.4727173,12.3199282 21.7414697,12.6223146 C23.2621209,12.9847919 23.7249489,13.5080866 23.9456195,13.6881525 L24.883435,16.1824436 L25.303635,16.3598877 C25.303635,16.3598877 24.9188087,14.9730359 24.7045633,14.1771588 C24.4378794,13.1869348 24.2480916,12.4009233 24.358496,11.7472361 C24.4572243,11.1614357 24.7220429,10.6090959 25.1184762,10.1187097 C26.26197,8.70322677 28.2996151,8.70584841 29.542459,9.70642107 C30.7841976,10.7063728 31.1027675,12.7357353 29.9745423,14.1325218 C29.6896188,14.4854784 28.8377501,15.5400708 28.1696585,16.3667868 L29.2830294,17.1305143 C30.2919377,17.8225604 30.2659602,18.1996637 30.6072604,20.5369319 C30.9111143,22.6175546 31.3557027,24.848853 31.3557027,24.848853 L35.2637972,30.6895398 L35.8177537,30.6498701 C36.0861648,30.6306217 36.3277694,30.7897833 36.4264287,31.0255936 C36.7293153,31.0062762 37.0482998,30.9878557 37.3739167,30.9717119 C38.8412312,30.8992026 39.9673837,30.174179 41.1595162,29.406588 C42.8383125,28.3256412 44.5741763,27.2080602 47.2275435,28.0969369 C48.23279,28.4337496 48.9087579,29.3602262 48.9915957,30.5148552 C49.0754008,31.6827994 48.5269024,32.7407724 47.5943376,33.2100473 L47.5943376,33.2100473 Z M45.0663671,38.2675513 C45.0663671,38.8009877 44.6333857,39.2334216 44.0991887,39.2334216 C43.5649917,39.2334216 43.1319412,38.8009877 43.1319412,38.2675513 C43.1319412,37.7341839 43.5649917,37.301681 44.0991887,37.301681 C44.6333857,37.301681 45.0663671,37.7341839 45.0663671,38.2675513 L45.0663671,38.2675513 Z" id="picto" fill="#007DBC"></path>
    </g>
</svg>