<?xml version="1.0" encoding="UTF-8"?>
<svg width="55px" height="55px" viewBox="0 0 55 55" version="1.1" xmlns="http://www.w3.org/2000/svg" xmlns:xlink="http://www.w3.org/1999/xlink">
    <title>sports_picto/stand_up_paddle</title>
    <g id="sports_picto/stand_up_paddle" stroke="none" stroke-width="1" fill="none" fill-rule="evenodd">
        <path d="M42.8165155,46.854037 L40.5442248,40.8050413 C40.4835476,40.6449817 40.3048387,40.5645911 40.1444051,40.624848 C39.9841883,40.6855378 39.903502,40.86436 39.964396,41.0244196 L42.113165,46.7600075 C41.53637,46.6787509 40.9873132,46.6161126 40.4672948,46.5706494 L38.7042596,39.9341671 L38.6936411,39.8991677 C38.6815056,39.8631579 38.684395,39.79453 38.7197179,39.7222939 C38.7538849,39.6524392 38.8086389,39.5988214 38.8654155,39.5791929 L40.5240713,39.0080876 C40.6626899,38.9603151 40.8170557,39.0383243 40.863575,39.1731265 L40.869426,39.1901572 L44.3319297,46.9754167 C43.8590083,46.9566541 43.353798,46.9180464 42.8165155,46.854037 L42.8165155,46.854037 Z M37.829207,40.1764936 L38.2972886,41.9494888 C34.473033,41.5007736 29.9389981,41.1130369 25.3608999,40.8755454 L26.0334783,35.1756786 C26.0635279,34.9210844 26.0505979,34.6632427 25.995266,34.4129782 L24.457459,27.4624387 L25.5023357,24.1022703 L27.296504,21.2017861 C27.296504,21.2017861 28.9886046,23.5122582 29.3884243,24.0565906 C29.7373185,24.5316456 29.8625014,24.6059023 30.4465199,24.6875919 C31.3594957,24.8151777 33.2586213,25.0790089 34.1913172,25.1487193 C34.2772044,25.1550697 34.3575295,25.1452554 34.4325815,25.1383998 L38.9632937,38.5860009 L38.5684581,38.7218856 C38.285081,38.8198842 38.0428054,39.0396233 37.9037534,39.3245264 C37.7693244,39.5995431 37.7425253,39.9086933 37.829207,40.1764936 L37.829207,40.1764936 Z M21.8109198,40.7230631 C22.3224146,38.4670748 22.8936475,35.9902649 23.1707403,34.7391591 L23.407526,35.0568247 C23.407526,35.0568247 23.4768714,38.2776445 23.4924019,40.7872889 C22.9307762,40.7634027 22.3698728,40.7418978 21.8109198,40.7230631 L21.8109198,40.7230631 Z M25.3164032,13.9009629 C25.6538121,14.5309539 26.0390403,15.1304196 26.0390403,15.1304196 L27.1384542,15.7433798 C27.1384542,15.7433798 27.8451997,16.0554166 27.9962427,15.6945249 C28.2792587,15.0168336 28.9096519,13.7293572 29.0809929,13.3607439 C29.6156028,12.2102346 29.0502931,10.8723156 28.0279538,10.398343 C27.9956648,10.3834051 27.9619311,10.3715702 27.9289198,10.3583642 C28.4357915,9.77362004 28.8822027,9.25317389 29.0208935,9.07536201 L33.9423238,23.6832145 L30.8983487,22.795021 L29.5047223,19.243474 C29.1157379,17.9621315 28.7958099,17.1486999 27.5406577,16.5587599 L24.6660732,15.148677 L25.3164032,13.9009629 Z M49.9574327,46.3550957 C49.8641053,46.1804591 49.646534,46.1143569 49.4714368,46.2071597 C49.4532337,46.2168297 48.0473997,46.9387575 45.3001651,46.986097 L44.5367876,45.2553177 L44.5156228,45.2073287 L49.3617844,45.2073287 C49.3617844,45.2073287 49.5294414,44.3586811 47.8542438,43.6778867 C47.0448527,43.3490357 45.4772127,42.9964428 43.3886152,42.6520045 L41.7156569,38.8587083 C41.5469163,38.3959212 41.1056338,38.0864101 40.6103197,38.0864101 C40.4807304,38.0864101 40.3525136,38.1078428 40.2287032,38.150203 L39.7168473,38.3264273 L35.1811509,24.8631667 C35.5465868,24.5457898 35.4698735,24.0775903 35.4698735,24.0775903 L34.8636067,23.9210668 L29.5688669,8.20441573 C29.8563614,7.36897409 29.1077198,7 29.1077198,7 L24.4841859,11.3367626 L21.1969239,15.3607668 L20.6453388,20.3645404 C20.3520655,22.9157513 17.8419056,25.4234473 18.7902043,28.1972838 C19.4944938,30.2576357 20.5622688,33.7577299 20.5622688,33.7577299 L19.7373472,40.6653319 C18.8658341,40.6462085 18.0025559,40.6339406 17.1532189,40.6295386 C9.7428658,40.5913639 7.61179425,41.8098516 6.15879092,43.2424496 C5.3879732,44.0023356 5,45.2073287 5,45.2073287 L39.1573164,45.2073287 L39.1717633,45.2619568 L39.499276,46.5025266 C35.0674533,46.2696537 32.9749552,47.2680414 32.8724539,47.3185562 C32.6943951,47.4063796 32.6212935,47.6218611 32.7092033,47.799673 C32.7718308,47.926465 32.8993253,48 33.0318762,48 C33.0852577,48 33.1395783,47.9880208 33.1907205,47.9628356 C33.2186032,47.9490523 36.0445737,46.6006695 42.16084,47.491966 C47.1677963,48.2215432 49.7054776,46.8971189 49.8110849,46.8403981 C49.9856043,46.7466571 50.0507601,46.5297324 49.9574327,46.3550957 L49.9574327,46.3550957 Z" id="picto" fill="#007DBC"></path>
    </g>
</svg>