<?xml version="1.0" encoding="UTF-8"?>
<svg width="55px" height="55px" viewBox="0 0 55 55" version="1.1" xmlns="http://www.w3.org/2000/svg" xmlns:xlink="http://www.w3.org/1999/xlink">
    <title>sports_picto/surf</title>
    <g id="sports_picto/surf" stroke="none" stroke-width="1" fill="none" fill-rule="evenodd">
        <path d="M25.2547664,8.44833544 C25.6564148,6.94547905 24.6942058,5.44805986 23.3634864,5.09079069 C22.0317126,4.73344602 20.421805,5.44556781 20.0148846,6.9693423 C19.8737465,7.49682594 19.8579306,8.02770783 19.9851356,8.52679721 C20.1769599,9.27879178 21.9652105,11.2274983 21.9652105,11.2274983 L23.3552019,11.475797 C23.3552019,11.475797 24.3955113,11.7182054 24.5117205,11.2287821 C24.7198125,10.3522606 25.126281,8.92982945 25.2547664,8.44833544 L25.2547664,8.44833544 Z M18.582115,15.7570611 L15.2788521,15.4435161 C15.2788521,15.4435161 12.1390201,16.4945565 10.3864681,17.0820003 C8.6339915,17.6693687 8,16.7317542 8,16.7317542 L14.9627601,13.258669 L16.8383748,12.3660625 C18.6606673,11.6124066 19.0617885,11.5131777 20.4970435,11.7191871 C21.4069094,11.8497553 25.6416533,12.5275171 25.6416533,12.5275171 C26.9388581,13.0851318 30.8333343,15.7856064 31.7856018,16.4504548 C32.247426,16.7728353 32.4703548,16.9777119 32.7909657,17.7035022 C33.0097522,18.1983626 35.3431994,23.4926068 36.3672411,25.8188965 C35.0051911,26.1009511 34.2763796,25.2874104 33.7421035,24.3953325 C33.2079028,23.5031791 30.2185478,18.6787994 30.2185478,18.6787994 L28.6775523,17.7465467 L28.8796945,18.7100633 L29.2021128,20.2475063 C30.1549829,21.8644683 31.0055016,23.0553655 31.1110162,24.2849272 C31.2331752,25.7090198 30.642941,26.6074411 30.4340958,26.9612365 C30.2430247,27.2849763 27.0006907,31.7670391 27.0006907,31.7670391 L29.0554016,37.8215846 C36.4438352,41.4380759 43.506612,45.673728 47.5240756,48.1821638 C47.7249375,48.3075969 47.8660002,48.3956493 47.9417659,48.4417899 L49,49.0855692 L47.7921174,49.3564473 C45.8794483,49.7853817 43.8867207,50 41.8320851,50 C40.313985,50 38.7619937,49.8827982 37.1842451,49.648017 C34.2238105,49.2076796 31.1656187,48.3548703 28.0946988,47.113528 C22.9607082,45.0381045 19.5840897,42.6159087 19.3342738,42.4342912 C12.5393129,37.9606107 8.89066091,34.4822394 8.78228436,32.375099 C8.74711282,31.6900876 9.089414,31.3741261 9.15840144,31.3177152 L9.30925496,31.1943965 L9.50356455,31.2062526 C12.1258402,31.3668765 15.2472203,32.1586683 18.5826422,33.3341601 C18.8890187,31.4605926 19.2703324,29.1295454 19.3084412,28.9001259 C19.4002487,28.3481748 19.6399725,27.746987 19.9947758,27.3190343 C20.223805,27.0427944 23.3357709,23.409463 23.3357709,23.409463 L23.3325324,21.8285224 L18.582115,15.7570611 Z M24.8519882,27.6488154 L22.6162983,29.2544499 L20.7883572,34.15344 C22.3211435,34.7510031 23.8274194,35.3910065 25.3961303,36.0999566 C25.3961303,36.0999566 23.9403147,32.7904404 23.6859047,32.2106238 C23.533319,31.8627942 23.3808839,31.3302509 23.5505659,30.8857601 C23.6689591,30.5755378 24.8519882,27.6488154 24.8519882,27.6488154 L24.8519882,27.6488154 Z M18.192818,35.7181445 C18.192818,35.7181445 18.2868096,35.1430099 18.420341,34.3266752 C15.027304,33.1210522 12.1387188,32.4178414 9.77815863,32.227464 C9.77401637,32.2855362 9.776361,32.3605243 9.79239294,32.4551466 C9.85942221,32.8504761 10.2017987,33.7472361 11.7415139,35.3123182 C13.4623587,37.0614343 16.2042326,39.178845 19.8910687,41.6055718 L19.9111775,41.6196179 C19.9452193,41.6444628 23.3762897,44.1323581 28.4919038,46.1967561 C31.4872839,47.4056263 34.4662456,48.2350254 37.3460191,48.6620719 C40.4768888,49.1262726 43.4979509,49.1131327 46.3451135,48.6244646 C41.1050058,45.374078 36.0316428,42.4863977 31.2557693,40.0361097 C30.6642548,39.7326839 30.0814014,39.438018 29.5068324,39.1519611 L30.6391,42.4883611 C30.6391,42.4883611 28.4856527,42.8593743 27.6787408,40.6371466 L26.1482892,37.5337908 C24.124231,36.5930046 22.2218046,35.7756882 20.442215,35.0812373 L19.395278,37.8870576 C19.395278,37.8870576 17.9137051,37.4343354 18.192818,35.7181445 L18.192818,35.7181445 Z" id="picto" fill="#007DBC"></path>
    </g>
</svg>