<?xml version="1.0" encoding="UTF-8"?>
<svg width="55px" height="55px" viewBox="0 0 55 55" version="1.1" xmlns="http://www.w3.org/2000/svg" xmlns:xlink="http://www.w3.org/1999/xlink">
    <title>sports_picto/tennis</title>
    <g id="sports_picto/tennis" stroke="none" stroke-width="1" fill="none" fill-rule="evenodd">
        <path d="M34.8187476,17.7278644 L33.7912114,16.415575 C34.0770787,16.4367637 34.3653256,16.4128171 34.6497388,16.3374793 C34.8434016,16.2862227 35.0266871,16.213172 35.1999922,16.1227667 L34.8187476,17.7278644 Z M33.2559619,15.2608221 L34.1763557,15.0224992 L34.3662509,15.7823342 C34.0372226,15.8500037 33.7017828,15.8303621 33.3749356,15.7369298 L33.2559619,15.2608221 Z M32.9711521,14.1214059 L33.8915459,13.883083 L34.1256597,14.8198272 L33.2052659,15.0581501 L32.9711521,14.1214059 Z M32.6700826,15.4125066 L33.0568132,15.3123478 L33.1432013,15.658296 C32.9817937,15.5939226 32.8234925,15.5113874 32.6700826,15.4125066 L32.6700826,15.4125066 Z M32.4475357,15.2542973 C32.2694056,15.116066 32.0996698,14.9555024 31.9421618,14.774221 L31.8514774,14.4112544 L32.7719373,14.1729315 L33.0060511,15.1096758 L32.4475357,15.2542973 Z M31.5666676,13.2718382 L32.4871275,13.0335153 L32.7212413,13.9702595 L31.8008475,14.2085824 L31.5666676,13.2718382 Z M31.5679234,14.2688526 C31.3987164,14.0001928 31.2533702,13.702945 31.1376352,13.3829614 L31.3675189,13.3234311 L31.6015666,14.2601081 L31.5679234,14.2688526 Z M31.0002867,12.9412266 C30.9394779,12.7053252 30.897771,12.4700966 30.8733814,12.2382312 L31.082709,12.1840149 L31.3168228,13.1206919 L31.0705473,13.1844599 C31.0454967,13.1044808 31.0215698,13.0236945 31.0002867,12.9412266 L31.0002867,12.9412266 Z M30.8684242,11.3272498 L31.0319469,11.9813429 L30.855932,12.0269491 C30.8417873,11.7882226 30.846348,11.5541375 30.8684242,11.3272498 L30.8684242,11.3272498 Z M31.4328883,9.66712861 L31.6326319,9.61533391 L31.8667457,10.5520781 L30.9572579,10.7875759 C31.0553451,10.3686442 31.2170171,9.98785218 31.4328883,9.66712861 L31.4328883,9.66712861 Z M32.6069604,8.74430842 L32.7015445,9.12281336 L31.7810186,9.36113626 L31.7582153,9.26985651 C32.0010538,9.02843937 32.2867229,8.84803236 32.6069604,8.74430842 L32.6069604,8.74430842 Z M32.9862882,10.2622296 L32.0659606,10.5005525 L31.8317807,9.56380827 L32.7522405,9.32548536 L32.9862882,10.2622296 Z M33.7951111,8.72870275 L33.821087,8.83296481 L32.9006933,9.07128772 L32.8055143,8.69056301 C33.1338156,8.62074106 33.4685944,8.63762479 33.7951111,8.72870275 L33.7951111,8.72870275 Z M34.1058968,9.97238104 L33.1855692,10.2107039 L32.9513893,9.27395972 L33.8718491,9.03563682 L34.1058968,9.97238104 Z M34.2916941,8.92693521 C34.6270677,9.10296993 34.943736,9.35703305 35.2235225,9.67432606 L35.2255715,9.68246523 L34.3051117,9.92078813 L34.0709979,8.98411118 L34.2916941,8.92693521 Z M35.5103152,10.8218814 L34.5899215,11.0601371 L34.3557416,10.1234601 L35.2762014,9.88513723 L35.5103152,10.8218814 Z M35.8974424,10.7215881 L35.7095301,10.7702885 L35.5365555,10.0785265 C35.6710619,10.2765572 35.7920185,10.4920097 35.8974424,10.7215881 L35.8974424,10.7215881 Z M36.1841029,11.5286437 C36.2133837,11.6329731 36.2381038,11.7371006 36.2598495,11.8409591 L35.9943399,11.9096375 L35.76016,10.9729605 L35.9811867,10.9157846 C36.0605025,11.1111919 36.1291107,11.3156128 36.1841029,11.5286437 L36.1841029,11.5286437 Z M36.3505339,13.0306229 L36.2792158,13.0490537 L36.045102,12.1123768 L36.2984499,12.0467253 C36.3534422,12.3828528 36.3694375,12.7132626 36.3505339,13.0306229 L36.3505339,13.0306229 Z M36.048539,14.3219254 L35.444417,14.4783185 L35.2103032,13.5416415 L36.130697,13.3033859 L36.2426644,13.7513765 C36.193026,13.9516269 36.1278548,14.1425274 36.048539,14.3219254 L36.048539,14.3219254 Z M35.5884413,15.0542487 L35.495113,14.6810578 L35.9258639,14.5694637 C35.8282394,14.7464402 35.7153466,14.9088872 35.5884413,15.0542487 L35.5884413,15.0542487 Z M35.0110884,13.5932344 L35.2452022,14.5299114 L34.3248084,14.7682343 L34.0906946,13.8314901 L35.0110884,13.5932344 Z M33.8058848,12.6920739 L34.7263447,12.4538182 L34.9604585,13.3905624 L34.0400647,13.6288181 L33.8058848,12.6920739 Z M33.60667,12.7436668 L33.8407838,13.680411 L32.92039,13.9187339 L32.6862101,12.9819897 L33.60667,12.7436668 Z M32.4014003,11.8425734 L33.3219262,11.6042505 L33.55604,12.5409948 L32.6355802,12.7793177 L32.4014003,11.8425734 Z M32.2022515,11.8940991 L32.4363653,12.8308433 L31.5159716,13.0691662 L31.2817917,12.132422 L32.2022515,11.8940991 Z M32.1514894,11.6914944 L31.2311618,11.9298173 L30.9969819,10.993073 L31.9174417,10.7547501 L32.1514894,11.6914944 Z M33.2711641,11.4015785 L32.3507704,11.6399014 L32.1165905,10.7032245 L33.0370503,10.4649016 L33.2711641,11.4015785 Z M33.470379,11.3500529 L33.2361991,10.4133087 L34.1565928,10.175053 L34.3907066,11.11173 L33.470379,11.3500529 Z M34.6755825,12.2511462 L33.7551888,12.4894691 L33.5210089,11.5527249 L34.4414687,11.314402 L34.6755825,12.2511462 Z M35.8458872,12.1639024 L36.080001,13.1006466 L35.1596072,13.3389023 L34.9254934,12.4022253 L35.8458872,12.1639024 Z M34.8747974,12.199486 L34.6406175,11.2628764 L35.5610112,11.0245535 L35.795125,11.9612304 L34.8747974,12.199486 Z M34.5653336,15.7300687 L34.3755705,14.9709063 L35.2959643,14.7326507 L35.4200935,15.2291399 C35.1750738,15.4594582 34.8878184,15.6315915 34.5653336,15.7300687 L34.5653336,15.7300687 Z M36.1125865,21.0599455 L35.3655639,18.3734148 C35.3655639,18.3734148 35.5818977,16.7722185 36.1819218,15.5284057 C36.7818797,14.2845256 37.2034432,12.9709581 36.8040881,11.3733941 C36.229379,9.07485281 34.308086,7.6186817 32.5362372,8.08779373 C30.7643222,8.55697303 29.8056586,10.7979348 30.3820201,13.0518116 C30.7441628,14.4684977 31.7190861,15.6674442 32.5667076,16.2326791 C33.414197,16.797914 34.6549604,18.6146301 34.6549604,18.6146301 L35.2220023,21.573184 C35.0032229,21.7956994 34.7975306,22.0049634 34.6332147,22.1720518 L30.7979653,22.9327613 C30.7979653,22.9327613 26.0647289,18.5692929 25.8470071,18.364872 C25.4342344,17.9772862 25.1358087,17.8270143 24.6701589,17.7865875 C24.3343226,17.7573941 23.9702631,17.7212051 22.4821665,17.5959561 C20.6531442,17.4419846 20.0066543,18.8701731 19.6755769,20.0278856 C19.3225555,21.2620794 17.530415,27.6871115 17.530415,27.6871115 L16.7984624,29.4161802 C16.0665098,31.1452489 16.4301727,33.266612 16.8578832,34.097547 C17.2855275,34.9285493 19.4846241,39.2009397 19.4846241,39.2009397 C19.4846241,39.2009397 15.8504403,43.7409137 14.605645,45.3141946 C13.3608496,46.8876101 14.4206409,47.9654108 14.4206409,47.9654108 C14.4206409,47.9654108 23.307183,39.9381734 23.831196,39.4506978 C24.4170754,38.9055754 24.6223711,38.2411233 24.3150224,37.565976 C23.6238513,37.1136131 20.0285322,34.7361017 20.0285322,34.7361017 L19.8209231,34.3144121 L27.9459014,38.8440271 C27.9459014,38.8440271 31.7858436,44.5713106 33.2038779,46.6599825 C34.6218461,48.7485871 36.086214,47.771887 36.086214,47.771887 C36.086214,47.771887 30.7242677,37.4383727 30.3740224,36.7806472 C29.9254254,35.9380079 29.8790257,35.8584324 29.1759572,35.2446315 C28.6471852,34.7829187 22.5690834,29.4763159 22.5690834,29.4763159 L22.6690874,29.2619396 C23.5718334,27.3382036 25.3105018,24.8692778 25.940798,23.9977815 L24.6102094,23.2100311 L24.6908471,22.9454746 C24.6908471,22.9454746 29.5857555,25.3155868 29.7572759,25.3985928 C29.9483609,25.4911506 30.2198192,25.5046711 30.3736258,25.4514638 C30.5056205,25.4057903 35.1188257,23.7715664 35.8803895,23.5076153 C36.6808181,23.2302109 36.9921987,22.1561771 36.8153245,21.7392633 C36.763637,21.5498427 36.4515294,21.1640058 36.1125865,21.0599455 L36.1125865,21.0599455 Z M23.3028206,17.1093549 C23.3028206,17.1093549 23.7939176,17.1517997 24.3415271,17.1994912 C24.8267415,17.2417341 25.2293353,17.3279689 25.3247786,16.9658769 C25.5483831,16.1164437 25.9847522,14.4600222 26.1084187,13.9899684 C26.494951,12.5223621 25.5694018,11.0606752 24.2897735,10.7115655 C23.0088234,10.3623212 21.4607773,11.0576483 21.0692877,12.5445599 C20.9335916,13.0596817 20.9182572,13.5778306 21.0406679,14.0649026 C21.224945,14.7993111 23.3028206,17.1093549 23.3028206,17.1093549 L23.3028206,17.1093549 Z M41.2707573,29.5416983 C41.1346646,29.3738027 41.0579927,29.161579 41.0579927,28.9369783 C41.0579927,28.7115032 41.1352595,28.4993467 41.2706912,28.332191 C41.4110141,28.4964542 41.4956837,28.7072654 41.4956837,28.9369783 C41.4956837,29.1666912 41.4110802,29.3774351 41.2707573,29.5416983 L41.2707573,29.5416983 Z M39.9966151,29.7354239 C40.1974163,29.5043657 40.3132834,29.2040237 40.3132834,28.8833001 C40.3132834,28.596344 40.2204179,28.32459 40.0552427,28.1038907 C40.1935166,28.0307055 40.352016,27.9890007 40.5202977,27.9890007 C40.7003445,27.9890007 40.8685601,28.0374994 41.0135758,28.1205727 C40.8314139,28.3464514 40.7275102,28.6326676 40.7275102,28.9369783 C40.7275102,29.2400782 40.8305546,29.5264962 41.013708,29.7533166 C40.8686923,29.8364572 40.7004106,29.8850232 40.5202977,29.8850232 C40.3274942,29.8850232 40.1481083,29.8296634 39.9966151,29.7354239 L39.9966151,29.7354239 Z M39.7925091,28.3079753 C39.914325,28.4709605 39.9828009,28.67148 39.9828009,28.8833001 C39.9828009,29.1207486 39.8968755,29.342995 39.7480262,29.5138502 C39.621187,29.3538248 39.5449116,29.1541125 39.5449116,28.9369783 C39.5449116,28.6955612 39.6390991,28.4755346 39.7925091,28.3079753 L39.7925091,28.3079753 Z M40.5202977,27.475695 C39.7043364,27.475695 39.0405293,28.1312679 39.0405293,28.9369783 C39.0405293,29.7427559 39.7043364,30.3982616 40.5202977,30.3982616 C41.3361929,30.3982616 42,29.7427559 42,28.9369783 C42,28.1312679 41.3361929,27.475695 40.5202977,27.475695 L40.5202977,27.475695 Z" id="picto" fill="#007DBC"></path>
    </g>
</svg>