<?xml version="1.0" encoding="UTF-8"?>
<svg width="55px" height="55px" viewBox="0 0 55 55" version="1.1" xmlns="http://www.w3.org/2000/svg" xmlns:xlink="http://www.w3.org/1999/xlink">
    <title>sports_picto/archery</title>
    <g id="sports_picto/archery" stroke="none" stroke-width="1" fill="none" fill-rule="evenodd">
        <path d="M17.2436857,19.2118356 C17.2446427,19.2118356 17.2455313,19.2118356 17.2464883,19.2117666 C17.6406918,19.2008635 23.9800062,18.8452019 24.8742951,18.7854419 C25.4877132,18.7445208 26.7518712,18.2280041 26.6424348,17.0038214 C26.6424348,17.0038214 21.2174374,16.9482019 19.6218941,16.9482019 C17.277248,16.9482019 16.8544721,19.2118356 17.2436857,19.2118356 M42.7325951,17.9552888 L40.7807854,17.9552888 C40.5159096,14.6173554 38.9344475,11.3814142 36.172699,8.55116473 C33.9341399,6.25716793 31.7456167,5.05016803 31.6535425,5 L31.3430056,5.61609372 C31.3509348,5.62051016 31.6473905,5.78412555 32.125329,6.09796899 L27.9303804,13.0479312 L27.9303804,14.094352 L32.5738747,6.40125437 C33.404115,6.97918726 34.5541201,7.86896239 35.7036467,9.04691039 C37.5678936,10.9575048 39.7810246,14.0110607 40.1110428,17.9552888 L27.0762159,17.9552888 C26.8345125,18.6025046 25.9143853,19.3230748 24.9064903,19.3913916 C24.1284733,19.4440439 18.3305991,19.7687904 17.3680235,19.8139899 C17.377935,19.8226848 17.3877098,19.8313797 17.3990567,19.8396605 C17.9446666,20.2401766 21.3103319,22.5703331 21.3103319,22.5703331 C21.3103319,22.5703331 22.257801,26.1185305 22.257801,27.3301539 C22.257801,28.5417772 22.1944359,29.9197073 22.1944359,29.9197073 C20.8123654,31.6348051 18.6803035,39.5043534 18.6803035,39.5043534 L13,49.1956842 C13.1877029,49.6216638 14.7891247,49.9778775 15.9143853,48.5236258 C17.0396459,47.0693052 26.2298438,35.1493961 26.2298438,35.1493961 L30.434157,39.6109 C30.434157,39.6109 31.2195564,46.2226594 31.4213404,47.8130617 C31.6230562,49.403533 32.7162582,50.2378266 33.6428108,49.9405448 C33.6428108,49.9405448 33.5422605,40.8630995 33.5422605,39.8649145 C33.5422605,38.2371104 33.4167607,37.9444521 32.8498923,36.9571702 C32.4926689,36.3351419 28.9651389,29.8396592 28.9651389,29.8396592 L28.9651389,22.709451 L29.4194265,21.0991057 L40.1427595,19.3134828 C39.9895759,22.9978999 37.733723,26.1483415 35.814792,28.1796289 C34.6804402,29.3804182 33.5338528,30.335957 32.6835845,30.9837938 L29.7689942,26.6035111 L29.7689942,27.58127 L32.2487098,31.3079883 C31.6913428,31.714094 31.3385625,31.9349161 31.3297447,31.9403677 L31.67193,32.5381746 C31.766465,32.4795877 34.0137052,31.075435 36.2803582,28.679239 C39.3050685,25.4817347 40.8747052,22.0476747 40.8198845,18.7481782 C40.8185857,18.6693723 40.8155781,18.5906354 40.8127756,18.5118295 L42.7325951,18.5118295 C42.880242,18.5118295 43,18.387341 43,18.2335936 C43,18.0799152 42.880242,17.9552888 42.7325951,17.9552888 M22.3904098,14.3170373 C22.2374312,13.8610396 22.2104993,13.3640518 22.2968317,12.8597493 C22.5455757,11.4040485 23.9392666,10.6086748 25.1653508,10.8354315 C26.3908199,11.0619122 27.37274,12.3829806 27.127072,13.8197045 C27.0580334,14.224085 26.8359479,15.5236232 26.6865922,16.3973887 L26.6481083,16.3969747 C26.6231587,16.3966986 25.4685054,16.3849675 24.075088,16.3723392 C23.4308418,15.7152554 22.5354592,14.7495036 22.3904098,14.3170373" id="picto" fill="#007DBC"></path>
    </g>
</svg>