<?xml version="1.0" encoding="UTF-8"?>
<svg width="55px" height="55px" viewBox="0 0 55 55" version="1.1" xmlns="http://www.w3.org/2000/svg" xmlns:xlink="http://www.w3.org/1999/xlink">
    <title>sports_picto/volleyball</title>
    <g id="sports_picto/volleyball" stroke="none" stroke-width="1" fill="none" fill-rule="evenodd">
        <path d="M42.1911542,13.6039109 C40.8202125,14.6406595 33.2484072,20.1280433 33.2484072,20.1280433 C33.4969719,21.253102 35.1635806,24.1491456 34.8172452,27.7901821 L34.3322949,30.0491971 C33.8863722,32.535229 32.3488907,36.522136 31.357996,39.2092895 C30.5585379,41.3772055 29.8631756,41.7522915 28.8430776,42.6792166 C27.8231141,43.6060754 20.7865911,50 20.7865911,50 C20.7865911,50 19.7131331,48.7715585 21.1527094,47.0794553 C22.592353,45.387352 26.8143879,40.4247832 26.8143879,40.4247832 L27.9908651,36.2313763 L29.5000853,34.2120605 L29.6247714,33.7661272 C29.6247714,33.7661272 26.2663208,36.7106418 24.4430638,38.1859535 C24.0093876,38.5368703 23.0491766,38.7429717 22.6333319,38.602273 C20.2374473,37.7918111 13,35.3175981 13,35.3175981 C13,35.3175981 13.3792396,33.7097547 16.2900852,34.2525637 C19.2009309,34.7953727 22.4492298,35.4020572 22.4492298,35.4020572 C22.4492298,35.4020572 25.6455144,30.582843 25.8290782,30.3406207 C26.4768674,29.4850077 27.9321893,28.1054429 27.9321893,28.1054429 L28.5946474,25.7112403 L26.1338964,21.895841 C26.1338964,21.895841 21.4052442,20.5478156 20.6894261,20.3191386 C19.9734734,20.090528 19.7946198,19.4357709 19.9219302,18.614154 C20.0492406,17.7926035 21.3808184,9.2221975 21.3808184,9.2221975 C21.3808184,9.2221975 22.6883068,9.13030176 22.6883068,10.9787738 C22.6883068,12.8273123 22.6332646,18.0328338 22.6332646,18.0328338 L28.0031789,18.9845921 L42.7752882,11.461824 C42.7752882,11.461824 43.562096,12.5671624 42.1911542,13.6039109 L42.1911542,13.6039109 Z M35.7912504,9.01576409 L35.3017245,8.7789201 L34.4700351,9.05971999 L34.7624049,9.90285008 C35.2015988,9.71235234 35.5543266,9.39788833 35.7912504,9.01576409 L35.7912504,9.01576409 Z M34.3946716,10.0271484 L34.1023019,9.18395187 L33.2706125,9.46468537 L33.0301223,9.94879794 C33.4678359,10.1129354 33.9402705,10.1399597 34.3946716,10.0271484 L34.3946716,10.0271484 Z M32.6798842,9.78273492 L32.8002638,9.54037984 C32.7058577,9.47265321 31.577963,8.62368005 31.9394384,7.15268431 L31.6980735,7.03602188 C31.5089247,7.52723911 31.4988314,8.06320903 31.6733785,8.56671 L31.6733785,8.56671 C31.8525686,9.08349071 32.2070459,9.50950446 32.6798842,9.78273492 L32.6798842,9.78273492 Z M31.8663628,6.6903505 L32.2952615,6.89777989 L33.2033237,6.59121731 L32.9176828,5.76734284 C32.4755282,5.95857096 32.1106211,6.27887805 31.8663628,6.6903505 L31.8663628,6.6903505 Z M33.8381261,5.57531794 C33.6548314,5.57531794 33.4693835,5.59736229 33.2852814,5.64284537 L33.5711242,6.46705183 L34.4791864,6.16048926 L34.6890601,5.73799463 C34.4211161,5.63215518 34.1325818,5.57531794 33.8381261,5.57531794 L33.8381261,5.57531794 Z M32.2800542,7.28063451 C32.2055655,7.61110061 32.2183504,7.9018603 32.2779683,8.15178483 L35.2690894,7.14192773 C35.1610909,6.90833727 34.9905811,6.6708293 34.7266072,6.45463528 L32.2800542,7.28063451 Z M35.3930354,8.37043559 C35.4270162,8.22044103 35.4790304,7.88884617 35.3925644,7.50559315 L32.4061534,8.51385668 C32.5756539,8.86889027 32.8224691,9.09955919 32.9427815,9.19776279 L35.3930354,8.37043559 Z M35.0361357,5.91049833 L34.9177747,6.1487367 C36.1106703,7.0894064 35.7535687,8.43444389 35.7187804,8.55362947 L35.9650574,8.67274865 C36.1616079,8.18823769 36.1909458,7.63500412 36.0067091,7.10368211 C35.8273845,6.58656941 35.475195,6.17569455 35.0361357,5.91049833 L35.0361357,5.91049833 Z M34.7700758,10.5175024 C34.465123,10.6204203 34.1506825,10.6715473 33.8375205,10.6715473 C33.4051227,10.6715473 32.975282,10.574074 32.5755193,10.3807876 C31.8864821,10.0474663 31.3701753,9.46939968 31.1218796,8.75289182 L31.1218796,8.75295822 C30.8733821,8.03645037 30.922503,7.26742118 31.26036,6.58743259 C31.5980824,5.90751039 32.1839658,5.39809994 32.9100119,5.15288971 C34.4092733,4.64679919 36.0454675,5.43847032 36.5582753,6.91743389 C37.0710831,8.39646386 36.2688662,10.0114783 34.7700758,10.5175024 L34.7700758,10.5175024 Z M28.7016365,17.7999737 C28.7016365,17.7999737 29.122326,17.5929427 29.6180425,17.3404287 C30.0618794,17.1144741 30.4553169,16.9597652 30.2971883,16.6257136 C29.9264943,15.8423423 29.0863265,14.0772669 28.8812303,13.6438165 C28.2409775,12.2900808 26.5852696,11.7868454 25.3676117,12.3490428 C24.1493482,12.9119042 23.3932914,14.4329645 24.0420899,15.8045615 C24.2668345,16.2797766 24.5870618,16.6792309 24.9937552,16.9670691 C25.6074963,17.4009178 28.7016365,17.7999737 28.7016365,17.7999737 L28.7016365,17.7999737 Z" id="picto" fill="#007DBC"></path>
    </g>
</svg>