<?xml version="1.0" encoding="UTF-8"?>
<svg width="55px" height="55px" viewBox="0 0 55 55" version="1.1" xmlns="http://www.w3.org/2000/svg" xmlns:xlink="http://www.w3.org/1999/xlink">
    <title>sports_picto/waterpolo</title>
    <g id="sports_picto/waterpolo" stroke="none" stroke-width="1" fill="none" fill-rule="evenodd">
        <path d="M49,44.0391554 L49,45 C38.4499832,45 33.0871522,43.8549135 27.9010006,42.7476202 C22.762897,41.6504958 17.4499435,40.5160587 7,40.5160587 L7,39.5552141 C13.3230733,39.5552141 17.7824605,39.9666958 21.4576484,40.534635 L22.6402316,38.7090303 L23.3650869,34.3453547 L20.4207204,29.571959 C20.4207204,29.571959 13.0542755,28.4018905 11.6100539,28.1735298 C10.1658323,27.945089 9.81438255,27.4001299 10.0372008,26.0000993 C10.1613776,25.220454 10.7445551,21.6451514 11.2371258,18.6292204 C12.1115341,18.9261214 13.0509344,18.95871 13.9356842,18.7329916 L13.9458665,24.950777 L22.9498383,24.5362526 C22.9498383,24.5362526 33.1480871,26.2940377 33.9816866,26.437764 C34.8390713,26.5854939 35.2619566,26.7742998 35.7723463,27.6240868 C36.3194084,28.5349675 39.5370275,34.0968963 39.5370275,34.0968963 L48.7117125,35.004414 C48.7117125,35.004414 48.658653,36.6828493 46.935133,36.7926258 C45.8213602,36.8635682 40.8965288,37.1075426 38.7547375,37.2061893 C37.6701593,37.2561533 37.4891841,37.2037872 36.9492815,36.5275929 C36.3781955,35.8124843 34.5514998,33.4773918 34.5514998,33.4773918 L34.7124285,31.8558064 L34.3104647,31.7906291 L33.3790194,36.758676 L32.2729628,42.6584218 C36.3817752,43.4222932 41.2941969,44.0391554 49,44.0391554 L49,44.0391554 Z M25.9335818,20.2451208 C25.8214966,19.5886237 25.8963527,18.9062639 26.131501,18.2408791 C26.8106949,16.3201508 28.9498611,15.5690105 30.622708,16.1680171 C32.2942025,16.7667834 33.3759965,18.796007 32.7058713,20.6919135 C32.4910876,21.2990071 31.7348103,23.438808 31.3469268,24.5360925 C31.1815434,25.0037035 30.6530959,24.8466855 30.0097789,24.7385104 C29.28381,24.6164832 28.6328562,24.5076675 28.6328562,24.5076675 C28.6328562,24.5076675 26.102545,21.2341501 25.9335818,20.2451208 L25.9335818,20.2451208 Z M15.1795205,16.2647421 C15.1671108,16.2786743 15.1539851,16.2918059 15.1414163,16.3054979 L13.5185265,13.3927777 L14.5198959,12.8274808 L15.8247467,15.1695394 C15.6855351,15.5686903 15.4682058,15.9400567 15.1795205,16.2647421 L15.1795205,16.2647421 Z M12.9412356,17.3476139 C12.607764,17.3657098 12.2795427,17.332961 11.9648448,17.2531309 L10.7003256,14.9833758 L11.6256456,14.4611568 L13.2181475,17.3196693 C13.1267451,17.3325607 13.0345472,17.3424093 12.9412356,17.3476139 L12.9412356,17.3476139 Z M10.3441824,11.9089934 C10.9221892,11.2588219 11.717048,10.874324 12.5822286,10.8260415 C12.6437204,10.8225985 12.7047349,10.820917 12.7657494,10.820917 C12.9954089,10.820917 13.2216477,10.8458189 13.442159,10.8930604 L13.5287884,11.0484771 L9.70921809,13.2043721 L9.66196567,13.1194975 C9.79799535,12.6767082 10.027973,12.264586 10.3441824,11.9089934 L10.3441824,11.9089934 Z M9.63460063,14.9576732 C9.57374525,14.7346772 9.53532283,14.5038343 9.52227671,14.2675466 C9.51710599,14.1719425 9.51654914,14.076899 9.51949247,13.9823359 L9.96035593,14.7737515 L9.63460063,14.9576732 Z M10.3712292,16.2950888 C10.1467405,16.0497531 9.96353791,15.774311 9.82488309,15.4774901 L10.2262104,15.250971 L10.703428,16.1075639 L10.3712292,16.2950888 Z M11.1598832,16.9268441 C11.0336381,16.8543804 10.9119273,16.7731089 10.7949895,16.6831098 L10.9692825,16.5847033 L11.1598832,16.9268441 Z M10.4343915,14.5061563 L9.97515214,13.6815915 L13.7945634,11.5256965 L14.2540414,12.3502613 L10.4343915,14.5061563 Z M13.0444114,13.6603729 L14.7292702,16.6841507 C14.4393122,16.9076272 14.1157048,17.0784974 13.7699826,17.1915567 L12.0998403,14.1935615 L13.0444114,13.6603729 Z M15.1303589,11.8555865 L14.728077,12.0826661 L14.2686785,11.2581814 L14.3271474,11.2251924 C14.5395446,11.3434563 14.7403276,11.4865421 14.9257576,11.6534888 C14.9975112,11.7181056 15.065367,11.7858452 15.1303589,11.8555865 L15.1303589,11.8555865 Z M14.9940906,12.5598856 L15.4719446,12.2901284 C15.6529993,12.5657307 15.7903018,12.8669555 15.8804314,13.1853153 L15.4711491,13.4163184 L14.9940906,12.5598856 Z M16.0015058,13.9061889 C16.0097789,14.0578422 16.0071538,14.2082144 15.9952213,14.3570653 L15.7370036,13.8936179 L15.9891756,13.7512528 C15.9944259,13.8026579 15.9985624,13.8543033 16.0015058,13.9061889 L16.0015058,13.9061889 Z M16.815536,13.8608691 C16.7554761,12.7710312 16.2774631,11.7699112 15.4694786,11.0419113 C14.661335,10.3139914 13.6203499,9.94518727 12.5372036,10.0066013 C11.4544551,10.0669743 10.4598474,10.5481172 9.73666267,11.3616323 C9.01347796,12.1749872 8.6482661,13.2231085 8.70816689,14.3128664 C8.76814723,15.4027044 9.24616032,16.4038243 10.0543039,17.1317442 L10.0542244,17.1316641 C10.8049332,17.8080987 11.7569023,18.1734598 12.7567603,18.1734598 C12.8329687,18.1734598 12.9095749,18.171378 12.9862607,18.1671343 C14.0690888,18.1067612 15.063776,17.6254581 15.7869607,16.8121032 C16.5103045,15.9988283 16.8755959,14.9507071 16.815536,13.8608691 L16.815536,13.8608691 Z" id="picto" fill="#007DBC"></path>
    </g>
</svg>