<?xml version="1.0" encoding="UTF-8"?>
<svg width="55px" height="55px" viewBox="0 0 55 55" version="1.1" xmlns="http://www.w3.org/2000/svg" xmlns:xlink="http://www.w3.org/1999/xlink">
    <title>sports_picto/yoga</title>
    <g id="sports_picto/yoga" stroke="none" stroke-width="1" fill="none" fill-rule="evenodd">
        <path d="M24.7722882,12.4654336 C24.1110084,12.8423177 23.6669866,13.537555 23.6669866,14.3334087 C23.6669866,14.5875726 23.7148144,14.8838221 23.7727459,15.0579999 C23.994428,15.7245907 24.9027985,17.3605646 24.9027985,17.3605646 C25.0031772,17.5414029 25.1084583,17.6286981 25.2901443,17.6286981 L26.5272117,17.6286981 C26.6986148,17.6286981 26.8269728,17.5164109 26.8978178,17.3858513 C26.8978178,17.3858513 27.8015848,15.7208183 28.03074,15.0579999 C28.0908836,14.8840579 28.150489,14.5875726 28.150489,14.3334087 C28.150489,13.537555 27.7064672,12.8423766 27.0451873,12.4654926 C27.0273715,11.8728168 26.526016,11.3973793 25.9087378,11.3973793 C25.2914596,11.3973793 24.7901041,11.8728168 24.7722882,12.4654336 M34.353044,34.7994392 C32.9364428,35.3728995 27.5663914,37.7179624 27.5663914,37.7179624 C27.5663914,37.7179624 27.1521424,36.5270112 28.3028207,35.7945216 C29.4534991,35.0619731 32.5594996,33.0847759 32.5594996,33.0847759 L27.0602531,29.7613705 L26.9995117,37.8387375 C26.9995117,37.8387375 27.7388108,43.8388213 27.9311385,45.4345369 C28.1115093,46.9313454 27.3591772,48.0039383 26.5773712,48 C26.5773712,48 22.8637178,32.1031916 22.6153119,30.6187022 C22.17685,27.9984326 23.3327297,25.5709668 23.3327297,25.5709668 L22.9540526,22.4555137 C22.9540526,22.4555137 20.2886662,16.4822491 20.0046883,12.6241682 C19.9733013,12.1973001 20.0970559,11.8632679 20.450145,11.6058621 L25.3971591,8 C25.3971591,8 25.7531777,9.02331626 25.0742016,9.63797797 C24.3952254,10.2526397 21.8327884,12.7975797 21.8327884,12.7975797 C21.8327884,12.7975797 22.1264514,14.550792 24.1733042,18.441056 L27.6178661,18.441056 C29.7197209,14.5170763 29.9928179,12.798228 29.9928179,12.798228 C29.9928179,12.798228 27.4552514,10.306455 26.7766937,9.65047397 C26.0981959,8.99449294 26.4537362,8.01243706 26.4537362,8.01243706 L31.4750628,11.6289679 C31.7327952,11.8168205 31.8626478,12.1226778 31.8274345,12.4328969 C31.5730501,14.6760467 30.5592192,18.3390839 30.0827342,19.5586817 C29.1150572,22.0354831 28.2675477,23.8360269 28.2675477,23.8360269 L28.8434548,25.6559631 C28.8434548,25.6559631 33.7904091,29.9621907 34.7540208,30.7158999 C36.1431808,31.8025213 36.8163578,33.8022938 34.353044,34.7994392" id="picto" fill="#007DBC"></path>
    </g>
</svg>