<?xml version="1.0" encoding="UTF-8"?>
<svg width="32px" height="32px" viewBox="0 0 32 32" version="1.1" xmlns="http://www.w3.org/2000/svg" xmlns:xlink="http://www.w3.org/1999/xlink">
    <title>icons/services/chat</title>
    <g id="icons/services/chat" stroke="none" stroke-width="1" fill="none" fill-rule="evenodd">
        <path d="M28,4 L4,7.62575677 L4,22.742707 L7.29522136,22.2448372 C7.95962053,22.1444541 8.56376567,22.6133531 8.56376567,23.2294004 L8.56376567,26 L13.9420779,21.410007 C14.099283,21.2758441 14.2963194,21.1871711 14.5084364,21.1551267 L28,19.116966 L28,4 Z M6.5053242,25.0157555 L3.25229991,25.5232339 C2.59640874,25.6255542 2,25.1476058 2,24.5196692 L2,7.04908102 C2,6.55128135 2.3814216,6.12662064 2.90138375,6.04551366 L28.7477173,2.01383946 C29.4036033,1.91153023 30,2.38947686 30,3.01740683 L30,20.487995 C30,20.9857963 29.618576,21.4104579 29.0986118,21.4915631 L15.1995446,23.659571 L8.31670851,29.7245946 C7.62830986,30.3311984 6.5053242,29.8700916 6.5053242,28.9808259 L6.5053242,25.0157555 Z M9,17 C10.1045695,17 11,16.1045695 11,15 C11,13.8954305 10.1045695,13 9,13 C7.8954305,13 7,13.8954305 7,15 C7,16.1045695 7.8954305,17 9,17 Z M16,16 C17.1045695,16 18,15.1045695 18,14 C18,12.8954305 17.1045695,12 16,12 C14.8954305,12 14,12.8954305 14,14 C14,15.1045695 14.8954305,16 16,16 Z M23,15 C24.1045695,15 25,14.1045695 25,13 C25,11.8954305 24.1045695,11 23,11 C21.8954305,11 21,11.8954305 21,13 C21,14.1045695 21.8954305,15 23,15 Z" id="Atoms/New_Icons/Standard/opinion_blue" fill="#001018" fill-rule="nonzero"></path>
    </g>
</svg>