<svg width="32" height="32" viewBox="0 0 32 32" fill="none" xmlns="http://www.w3.org/2000/svg">
<path fill-rule="evenodd" clip-rule="evenodd" d="M25.2612 15.4604V15.8972H25.5892V15.1883L26.0887 15.8972H26.3764V14.6248H26.0488V15.3314L25.5571 14.6248H25.2612V15.0578C25.2293 14.9577 25.1723 14.8654 25.0918 14.7867C24.966 14.6645 24.8028 14.598 24.6306 14.598C24.447 14.598 24.2874 14.6609 24.1606 14.7851C24.0331 14.909 23.9647 15.0713 23.9647 15.2476C23.9647 15.3871 23.9982 15.5097 24.0646 15.6157H23.7706V14.625H23.4449V15.897H24.1523V15.7273C24.2788 15.8574 24.4403 15.9241 24.6286 15.9241C24.8087 15.9241 24.9793 15.8538 25.1045 15.7244C25.178 15.6493 25.2309 15.5599 25.2612 15.4604ZM18.8163 15.3916V15.8967H19.5445V15.6177H19.1439V15.387L19.491 15.3867V15.1132L19.1439 15.1136V14.9056L19.5445 14.9053V14.6253H18.8163V15.1349C18.8228 15.1768 18.8262 15.2209 18.8262 15.2671C18.8262 15.3103 18.8229 15.3519 18.8163 15.3916ZM26 26.4184L28 26.1327V13H16V27.847L18 27.5613V22C18 21.4477 18.4477 21 19 21H25C25.5523 21 26 21.4477 26 22V26.4184ZM24 26.7041V23H20V27.2756L24 26.7041ZM13 8V4H9.41421L5.41421 8H13ZM15 8H22.5791L18.5635 4H15V8ZM2.29289 8.29289L8.29289 2.29289C8.48043 2.10536 8.73478 2 9 2H18.9766C19.2411 2 19.4949 2.10482 19.6823 2.29152L25.7057 8.29152C25.8875 8.47259 26 8.72316 26 9V11H29C29.5523 11 30 11.4477 30 12V27C30 27.4977 29.6341 27.9196 29.1414 27.99L15.1414 29.99C14.539 30.076 14 29.6085 14 29V27H3C2.44772 27 2 26.5523 2 26V9C2 8.72386 2.11193 8.47386 2.29289 8.29289ZM24 11V10H4V25H14V12C14 11.4477 14.4477 11 15 11H24ZM17 16.5V14H27V16.5H17ZM21.0398 14.6238C21.0398 14.6238 20.6185 15.3407 20.5773 15.4053C20.5293 15.4812 20.4245 15.6015 20.2666 15.5998C20.009 15.5956 19.912 15.418 19.912 15.258C19.912 15.0764 20.0567 14.9203 20.2461 14.9167C20.4599 14.9125 20.6195 15.1172 20.6195 15.1172L20.7865 14.8477C20.7865 14.8477 20.5971 14.5905 20.2494 14.5983C19.7255 14.6101 19.5731 15.0487 19.5731 15.2521C19.5731 15.6803 19.9029 15.8941 20.1722 15.9202C20.5598 15.9577 20.7719 15.7045 20.7719 15.7045C20.7719 15.7045 20.7693 15.7038 20.7826 15.7035C20.8608 15.7028 21.0668 15.7045 21.0668 15.7045V15.8951H21.3821V14.6238H21.0398ZM21.7049 15.8973H22.0322V14.9287H22.2862V14.6247H21.4506V14.9287H21.7049V15.8973ZM23.0176 15.4104V15.8973H23.3452V14.6249H23.0176V15.1079H22.6809V14.6249H22.3536V15.8973H22.6809V15.4104H23.0176ZM18.8163 15.3916V15.1349C18.7932 14.9869 18.7298 14.866 18.6302 14.7769C18.4911 14.6517 18.3429 14.625 18.1301 14.625H17.6727V15.897H18.1748C18.363 15.897 18.4891 15.8719 18.6319 15.7396C18.7316 15.6463 18.7936 15.5296 18.8163 15.3916ZM24.6286 15.607C24.4509 15.607 24.2894 15.4529 24.2894 15.2512C24.2894 15.0641 24.4402 14.9145 24.6325 14.9145C24.8139 14.9145 24.9647 15.0641 24.9647 15.2512C24.9647 15.4597 24.8139 15.607 24.6286 15.607ZM21.0736 15.4385H20.9046L21.0736 15.1504V15.4385ZM18.5005 15.2566C18.5005 15.5069 18.3821 15.6177 18.1314 15.6177H18V14.8985H18.1301C18.3708 14.8985 18.5005 15.0275 18.5005 15.2566Z" fill="#001018"/>
</svg>
