<svg width="32" height="32" viewBox="0 0 32 32" fill="none" xmlns="http://www.w3.org/2000/svg">
<path fill-rule="evenodd" clip-rule="evenodd" d="M15.6782 19.0999C16.6982 19.8897 17.4325 20.6946 17.8804 21.5258C18.1423 22.012 17.9605 22.6185 17.4743 22.8804C16.9881 23.1424 16.3816 22.9606 16.1196 22.4744C15.6549 21.6119 14.6243 20.6798 13.0249 19.7122L13 19.718V26.0587L28 23.1741V16.2564L15.6782 19.0999ZM8.50017 20.7564L4 21.7949V27.7894L11 26.4433V20.6722C10.0508 21.9138 9.36618 23.1348 8.94291 24.3331C8.75897 24.8539 8.1877 25.1269 7.66695 24.943C7.14619 24.759 6.87315 24.1878 7.05709 23.667C7.40011 22.6959 7.88152 21.7259 8.50017 20.7564ZM9.60983 18.4491C5.04091 17.1481 3.56039 14.9846 6.25886 12.2708C7.73456 10.7867 9.33176 10.5444 10.6108 11.8235C10.7452 11.9578 10.8748 12.1089 11 12.2768V7.47994L4 8.82609V19.7437L9.60983 18.4491ZM15.963 16.983L28 14.2053V4.2107L13 7.09532V10.722C13.0597 10.6265 13.1204 10.5356 13.182 10.4493C14.3935 8.75317 16.0999 8.72139 17.6405 10.2708C19.9069 12.55 19.1789 14.8463 15.963 16.983ZM30 14.982C30.0002 14.9948 30.0002 15.0076 30 15.0204V24.0001C30 24.4795 29.6597 24.8915 29.1888 24.9821L3.18885 29.9821C2.57212 30.1007 2 29.6281 2 29.0001V21.0182C1.99975 21.0053 1.99976 20.9925 2 20.9798L2 8.00007C2 7.52061 2.34031 7.10861 2.81115 7.01807L28.8112 2.01807C29.4279 1.89947 30 2.37205 30 3.00007V14.982ZM14.8094 11.6118C14.2364 12.4141 13.7047 13.9766 13.2487 16.265C16.826 14.4721 17.5656 13.0319 16.2223 11.681C15.5153 10.97 15.2645 10.9746 14.8094 11.6118ZM9.19659 13.2377C8.80897 12.8501 8.44902 12.9047 7.67708 13.681C6.42595 14.9392 7.03699 15.8285 10.6592 16.6775C10.2193 14.9124 9.71477 13.7559 9.19659 13.2377Z" fill="#001018"/>
</svg>
