<?xml version="1.0" encoding="utf-8"?>
<!-- Generator: Adobe Illustrator 23.0.3, SVG Export Plug-In . SVG Version: 6.00 Build 0)  -->
<svg version="1.1" id="Layer_1" xmlns="http://www.w3.org/2000/svg" xmlns:xlink="http://www.w3.org/1999/xlink" x="0px" y="0px"
	 viewBox="0 0 9 11.9" style="enable-background:new 0 0 9 11.9;" xml:space="preserve">
<style type="text/css">
	.st0{clip-path:url(#SVGID_2_);}
	.st1{fill:#0082C3;}
</style>
<g>
	<defs>
		<rect id="SVGID_1_" width="9" height="11.9"/>
	</defs>
	<clipPath id="SVGID_2_">
		<use xlink:href="#SVGID_1_"  style="overflow:visible;"/>
	</clipPath>
	<g class="st0">
		<path class="st1" d="M4.6,11.9L4.6,11.9c0,0-3.1-4.6-3.9-6.2C0.1,4.4,0,2.9,0.6,1.6c0.7-1.1,2-1.6,4-1.6c1.9,0,3.2,0.5,3.8,1.5
			c0.8,1.4,0.2,3.3-0.2,4.1C7.6,7,4.7,11.8,4.6,11.9L4.6,11.9z M4.5,1.5C3.1,1.5,2,2.6,2,4s1.1,2.5,2.5,2.5C5.8,6.5,7,5.4,7,4
			c0,0,0,0,0,0C7,2.6,5.9,1.5,4.5,1.5z"/>
	</g>
</g>
</svg>
