<?xml version="1.0" encoding="utf-8"?>
<!-- Generator: Adobe Illustrator 23.0.3, SVG Export Plug-In . SVG Version: 6.00 Build 0)  -->
<svg version="1.1" id="Layer_1" xmlns="http://www.w3.org/2000/svg" xmlns:xlink="http://www.w3.org/1999/xlink" x="0px" y="0px"
	 viewBox="0 0 15 15" style="enable-background:new 0 0 15 15;" xml:space="preserve">
<style type="text/css">
	.st0{clip-path:url(#SVGID_2_);}
	.st1{fill:#0082C3;}
</style>
<g>
	<defs>
		<rect id="SVGID_1_" width="15" height="15"/>
	</defs>
	<clipPath id="SVGID_2_">
		<use xlink:href="#SVGID_1_"  style="overflow:visible;"/>
	</clipPath>
	<g class="st0">
		<path class="st1" d="M1.9,6.6c0-2.6,2-4.7,4.6-4.7c0,0,0.1,0,0.1,0c2.6,0,4.7,2,4.7,4.6c0,0,0,0.1,0,0.1c0,2.6-2,4.7-4.6,4.7
			c0,0-0.1,0-0.1,0c-2.6,0-4.7-2-4.7-4.6C1.9,6.6,1.9,6.6,1.9,6.6z M13.4,14.7c0.4,0.4,1,0.3,1.3,0c0.3-0.4,0.3-0.9,0-1.3l-2.9-2.9
			c0.9-1.1,1.3-2.5,1.3-3.9C13.2,3,10.3,0,6.7,0c0,0-0.1,0-0.1,0C3,0,0,2.9,0,6.5c0,0,0,0.1,0,0.1c0,3.6,2.9,6.6,6.5,6.6
			c0,0,0.1,0,0.1,0c1.4,0,2.8-0.5,3.9-1.3L13.4,14.7z"/>
	</g>
</g>
</svg>
