<svg id="Layer_1" data-name="Layer 1" xmlns="http://www.w3.org/2000/svg" viewBox="0 0 156.4 40.05"><defs><style>.cls-1{fill:#0082c3;}.cls-2{fill:#0072b4;}.cls-3{fill:#fff;}</style></defs><rect class="cls-1" width="156.4" height="40.05"/><polyline class="cls-2" points="58.95 21.09 61.58 21.09 61.58 16.61"/><polygon class="cls-2" points="61.68 22.32 61.68 17.73 59.11 22.32 61.68 22.32"/><path class="cls-1" d="M17.14,13.63h-2V25.11h2c3.83,0,5.63-1.77,5.63-5.77C22.79,15.68,20.82,13.63,17.14,13.63Z" transform="translate(0.02 0.07)"/><path class="cls-1" d="M115.63,13.91a5.34,5.34,0,0,0-5.43,5.35,5.56,5.56,0,0,0,5.36,5.65,5.38,5.38,0,0,0,5.32-5.65A5.3,5.3,0,0,0,115.63,13.91Z" transform="translate(0.02 0.07)"/><path class="cls-3" d="M27.62,17.53a9.54,9.54,0,0,0-2.84-5.84c-2.13-2-4.4-2.43-7.64-2.43h-7V29.57h7.67c2.87,0,4.79-.4,7-2.51a9.74,9.74,0,0,0,2.81-5.68v8.07H38.74V25.09h-6.2V21.31h5.37V17H32.54v-3.3h6.2V9.17H27.62ZM17.16,25.11h-2V13.63h2c3.68,0,5.65,2,5.65,5.71C22.79,23.34,21,25.11,17.16,25.11Z" transform="translate(0.02 0.07)"/><path class="cls-3" d="M53.83,22.14a5.93,5.93,0,0,1-4.56,2.71c-2.94.14-5.44-2.65-5.39-5.66a5.41,5.41,0,0,1,5.27-5.42,6.65,6.65,0,0,1,4.32,2,6.06,6.06,0,0,1,1.3,1.42l2.68-4.72a8.07,8.07,0,0,0-1.28-1.18,10.53,10.53,0,0,0-6.9-2.59A10.19,10.19,0,0,0,40.84,13a9.88,9.88,0,0,0-2.1,6.24,10.73,10.73,0,0,0,2.68,7.2,11.09,11.09,0,0,0,7.73,3.53A11.17,11.17,0,0,0,55.23,28,11.57,11.57,0,0,0,57,26.5h4.67v2.95h4.8V9.17H61.2Z" transform="translate(0.02 0.07)"/><polygon class="cls-1" points="61.68 22.32 59.11 22.32 61.68 17.73 61.68 22.32"/><polygon class="cls-3" points="67.43 14.04 71.21 14.04 71.21 29.64 76.2 29.64 76.2 14.04 80.08 14.04 80.08 9.32 67.43 9.32 67.43 14.04"/><polygon class="cls-3" points="90.95 17.04 85.84 17.04 85.84 9.32 80.85 9.32 80.85 29.64 85.84 29.64 85.84 21.87 90.95 21.87 90.95 29.64 95.98 29.64 95.98 9.32 90.95 9.32 90.95 17.04"/><path class="cls-3" d="M137.55,20.54l-7.5-11.28h-4.52v6.86a10.52,10.52,0,0,0-9.93-7.24,10.25,10.25,0,0,0-7.44,3,10.11,10.11,0,0,0-3.11,7.34,10.84,10.84,0,0,0,1.61,5.88h-3.82V9.26h-5V29.57h10.8V27.42a10.16,10.16,0,0,0,6.89,2.52,10.4,10.4,0,0,0,7.53-3.17,10.1,10.1,0,0,0,2.44-4.13v6.93h5V18.25l7.62,11.32h4.39V9.26h-5Zm-22,4.37a5.56,5.56,0,0,1-5.36-5.65,5.34,5.34,0,1,1,10.68,0A5.38,5.38,0,0,1,115.56,24.91Z" transform="translate(0.02 0.07)"/></svg>