<?xml version="1.0" encoding="utf-8"?>
<!-- Generator: Adobe Illustrator 24.1.2, SVG Export Plug-In . SVG Version: 6.00 Build 0)  -->
<svg version="1.1" id="Layer_1" xmlns="http://www.w3.org/2000/svg" xmlns:xlink="http://www.w3.org/1999/xlink" x="0px" y="0px"
	 viewBox="0 0 156.4 40" style="enable-background:new 0 0 156.4 40;" xml:space="preserve">
<style type="text/css">
	.st0{fill:#FFFFFF;}
</style>
<g>
	<path class="st0" d="M17.2,25.1L17.2,25.1h-2h0V13.6h0h2h0c3.7,0,5.7,2,5.7,5.7C22.8,23.3,21,25.1,17.2,25.1z"/>
	<polygon class="st0" points="61.6,21 61.6,17.9 59.8,21 	"/>
	<path class="st0" d="M120.9,19.2c0-2.9-2.4-5.3-5.3-5.3c-0.4,0-0.7,0-1.1,0.1c0,0,0,0-0.1,0c-0.3,0.1-0.6,0.2-0.9,0.3
		c-0.1,0-0.1,0.1-0.2,0.1c-0.2,0.1-0.5,0.2-0.7,0.4c-0.1,0.1-0.2,0.2-0.3,0.3c-0.2,0.1-0.3,0.2-0.5,0.4c-0.1,0.1-0.3,0.3-0.4,0.4
		c-0.1,0.1-0.2,0.2-0.3,0.3c-0.1,0.2-0.3,0.4-0.4,0.7c0,0.1-0.1,0.2-0.1,0.2c-0.1,0.3-0.2,0.6-0.3,0.9c0,0,0,0.1,0,0.1
		c-0.1,0.3-0.1,0.7-0.1,1.1c0,0,0,0.1,0,0.1c-0.1,3,2.3,5.5,5.4,5.6c0.1,0,0.2,0,0.3,0c0.2,0,0.5,0,0.7-0.1c0.1,0,0.1,0,0.2,0
		c0.3-0.1,0.6-0.2,0.8-0.3c0.1,0,0.1-0.1,0.2-0.1c0.2-0.1,0.5-0.2,0.7-0.4c0.1,0,0.1-0.1,0.2-0.1c0.2-0.2,0.4-0.3,0.6-0.5
		c0.1-0.1,0.1-0.1,0.2-0.2c0.2-0.2,0.3-0.4,0.5-0.6c0.1-0.1,0.1-0.2,0.2-0.3c0.1-0.2,0.2-0.4,0.3-0.6c0-0.1,0.1-0.2,0.1-0.3
		c0.1-0.2,0.2-0.5,0.2-0.7c0-0.1,0-0.2,0.1-0.3c0-0.2,0.1-0.5,0.1-0.8C120.9,19.5,120.9,19.4,120.9,19.2
		C120.9,19.2,120.9,19.2,120.9,19.2z"/>
	<g>
		<path class="st0" d="M119.4,23.2c0.2-0.2,0.3-0.4,0.5-0.6C119.8,22.8,119.6,23,119.4,23.2z"/>
		<path class="st0" d="M114.4,14C114.4,14,114.5,14,114.4,14C114.5,14,114.4,14,114.4,14z"/>
		<path class="st0" d="M112.3,15.1c0.1-0.1,0.2-0.2,0.3-0.3C112.5,14.9,112.4,15,112.3,15.1z"/>
		<path class="st0" d="M113.3,14.4c0.1,0,0.1-0.1,0.2-0.1C113.4,14.4,113.3,14.4,113.3,14.4z"/>
		<path class="st0" d="M120.8,20.4c0-0.2,0.1-0.5,0.1-0.8C120.9,19.9,120.9,20.2,120.8,20.4z"/>
		<path class="st0" d="M17.2,13.6L17.2,13.6c3.7,0,5.6,2,5.6,5.7c0,4-1.8,5.8-5.6,5.8h0c3.8,0,5.6-1.8,5.7-5.8
			C22.8,15.6,20.9,13.6,17.2,13.6z"/>
		<path class="st0" d="M111.8,15.4c-0.1,0.1-0.3,0.3-0.4,0.4C111.6,15.7,111.7,15.6,111.8,15.4z"/>
		<path class="st0" d="M120.5,21.4c0.1-0.2,0.2-0.5,0.2-0.7C120.7,21,120.6,21.2,120.5,21.4z"/>
		<path class="st0" d="M120.1,22.4c0.1-0.2,0.2-0.4,0.3-0.6C120.3,21.9,120.2,22.2,120.1,22.4z"/>
		<path class="st0" d="M117.6,24.5c-0.3,0.1-0.5,0.2-0.8,0.3C117,24.7,117.3,24.6,117.6,24.5z"/>
		<path class="st0" d="M118.5,24c-0.2,0.1-0.5,0.3-0.7,0.4C118,24.3,118.2,24.2,118.5,24z"/>
		<path class="st0" d="M0-0.1V40h156.4V-0.1H0z M38.8,29.4H27.6v-8.1c-0.3,2.2-1.3,4.2-2.8,5.7c-2.2,2.1-4.1,2.5-7,2.5h-7.7V9.2h7
			c3.2,0,5.5,0.4,7.6,2.4c1.6,1.6,2.6,3.6,2.8,5.8V9.2h11.1v4.5h-6.2V17h5.4v4.3h-5.4v3.8h6.2V29.4z M66.5,29.4h-4.8v-3H57
			c-0.5,0.6-1.1,1.1-1.8,1.5c-1.8,1.2-3.9,1.9-6.1,2c-2.9-0.1-5.7-1.4-7.7-3.5c-1.8-2-2.7-4.6-2.7-7.2c0-2.3,0.7-4.5,2.1-6.2
			c1.9-2.7,5.1-4.3,8.4-4.3c2.5,0,5,0.9,6.9,2.6c0.5,0.3,0.9,0.7,1.3,1.2l-2.7,4.7c-0.4-0.5-0.8-1-1.3-1.4c-1.1-1.2-2.7-1.9-4.3-2
			c-2.9,0.1-5.3,2.5-5.3,5.4c-0.1,3,2.4,5.8,5.4,5.7c1.9-0.1,3.6-1.1,4.6-2.7l7.4-13h5.3V29.4z M80.1,14h-3.9v15.6h-5V14h-3.8V9.2
			h12.7V14z M96,29.6h-5v-7.8h-5.1v7.8h-5V9.2h5V17h5.1V9.2h5V29.6z M142.5,29.6h-4.4l-7.6-11.3v11.3h-5v-6.9
			c-0.5,1.6-1.3,3-2.4,4.1c-2,2-4.7,3.2-7.5,3.2c-2.5,0-5-0.9-6.9-2.5v2.1H97.9V9.2h5v15.8h3.8c-1.1-1.8-1.6-3.8-1.6-5.9
			c0-2.8,1.1-5.4,3.1-7.3c2-2,4.7-3.1,7.4-3c4.5,0,8.5,2.9,9.9,7.2V9.2h4.5l7.5,11.3l0-11.3h5V29.6z"/>
		<path class="st0" d="M118.7,23.9c0.2-0.2,0.4-0.3,0.6-0.5C119.1,23.6,118.9,23.7,118.7,23.9z"/>
		<path class="st0" d="M110.8,16.9c0.1-0.2,0.2-0.4,0.4-0.7C111,16.4,110.9,16.6,110.8,16.9z"/>
		<path class="st0" d="M110.4,18c0.1-0.3,0.2-0.6,0.3-0.9C110.5,17.4,110.5,17.7,110.4,18z"/>
		<path class="st0" d="M115.6,24.9c0.1,0,0.1,0,0.2,0c0.3,0,0.5-0.1,0.8-0.1C116.2,24.9,115.9,24.9,115.6,24.9z"/>
		<path class="st0" d="M110.2,19.2c0,0,0-0.1,0-0.1c0-0.4,0-0.7,0.1-1.1C110.3,18.5,110.2,18.8,110.2,19.2c-0.1,3,2.3,5.5,5.4,5.7h0
			C112.6,24.8,110.2,22.3,110.2,19.2z"/>
	</g>
</g>
</svg>
