<svg xmlns="http://www.w3.org/2000/svg" width="114" height="26.14" viewBox="0 0 114 26.14"><defs><style>.a{fill:none;stroke:#0082c3;stroke-width:2px;}.b{fill:#0082c3;}</style></defs><g transform="translate(0.039 0.078)"><g transform="translate(0.961 0.1)"><g transform="translate(0 0.822)"><path class="a" d="M.6-1.9H101.573l2.958,22.922L.6,20.694Z" transform="translate(-0.6 1.9)"/></g><path class="b" d="M113.257,14.313H117.2L112.6.1h14.46l3.286,14.213h3.533l-7.394,11.749Z" transform="translate(-20.879 -0.1)"/></g><g transform="translate(6.826 8.891)"><path class="b" d="M8.1,19.034V10.9h2.793a3.3,3.3,0,0,1,2.136.575,1.959,1.959,0,0,1,.739,1.643,1.31,1.31,0,0,1-.329.986,2.575,2.575,0,0,1-.9.657,1.431,1.431,0,0,1,.986.657,1.98,1.98,0,0,1,.329,1.232,2.294,2.294,0,0,1-.739,1.807,3.314,3.314,0,0,1-2.136.657H8.1Zm1.4-4.683h1.4a1.515,1.515,0,0,0,1.068-.329,1.011,1.011,0,0,0,.411-.822,1.122,1.122,0,0,0-.329-.9c-.246-.246-.575-.246-1.068-.246h-1.4v2.3Zm0,.986v2.547h1.561a1.515,1.515,0,0,0,1.068-.329,1.279,1.279,0,0,0-.9-2.218Z" transform="translate(-8.1 -10.818)"/><path class="b" d="M21.34,17.126h-3.2l-.657,1.89H16L19.122,10.8h1.315l3.122,8.216H22.08Zm-2.793-1.15H20.93l-1.15-3.368Z" transform="translate(-9.509 -10.8)"/><path class="b" d="M27.7,19.034H26.3V10.9h1.4Z" transform="translate(-11.347 -10.818)"/><path class="b" d="M34.365,16.962a1.011,1.011,0,0,0-.411-.822,4.721,4.721,0,0,0-1.4-.575A5.571,5.571,0,0,1,31,14.908a2.157,2.157,0,0,1-1.15-1.807,1.918,1.918,0,0,1,.822-1.643,3.407,3.407,0,0,1,2.054-.657,3.334,3.334,0,0,1,1.561.329,2.341,2.341,0,0,1,1.068.9,2.483,2.483,0,0,1,.411,1.315h-1.4a1.361,1.361,0,0,0-.411-.986,1.606,1.606,0,0,0-1.15-.329,1.394,1.394,0,0,0-1.068.329,1.141,1.141,0,0,0-.411.822.863.863,0,0,0,.411.739,4.721,4.721,0,0,0,1.4.575,5.571,5.571,0,0,1,1.561.657,1.97,1.97,0,0,1,.822.822,2.274,2.274,0,0,1,.246,1.068,1.918,1.918,0,0,1-.822,1.643,3.3,3.3,0,0,1-2.136.575,3.678,3.678,0,0,1-1.643-.329,2.581,2.581,0,0,1-1.15-.9,2.483,2.483,0,0,1-.411-1.315H31a1.221,1.221,0,0,0,.493,1.068,2.091,2.091,0,0,0,1.315.411,1.606,1.606,0,0,0,1.15-.329A1.5,1.5,0,0,0,34.365,16.962Z" transform="translate(-11.936 -10.8)"/><path class="b" d="M42.765,16.962a1.011,1.011,0,0,0-.411-.822,4.721,4.721,0,0,0-1.4-.575,5.571,5.571,0,0,1-1.561-.657,2.157,2.157,0,0,1-1.15-1.807,1.918,1.918,0,0,1,.822-1.643,3.407,3.407,0,0,1,2.054-.657,3.334,3.334,0,0,1,1.561.329,2.341,2.341,0,0,1,1.068.9,2.483,2.483,0,0,1,.411,1.315h-1.4a1.361,1.361,0,0,0-.411-.986,1.606,1.606,0,0,0-1.15-.329,1.394,1.394,0,0,0-1.068.329,1.141,1.141,0,0,0-.411.822.863.863,0,0,0,.411.739,4.721,4.721,0,0,0,1.4.575,5.571,5.571,0,0,1,1.561.657,1.97,1.97,0,0,1,.822.822,2.274,2.274,0,0,1,.246,1.068,1.918,1.918,0,0,1-.822,1.643,3.3,3.3,0,0,1-2.136.575,3.678,3.678,0,0,1-1.643-.329,2.581,2.581,0,0,1-1.15-.9A2.483,2.483,0,0,1,38,16.715h1.4a1.221,1.221,0,0,0,.493,1.068,2.091,2.091,0,0,0,1.315.411,1.606,1.606,0,0,0,1.15-.329A1.144,1.144,0,0,0,42.765,16.962Z" transform="translate(-13.435 -10.8)"/><path class="b" d="M51.865,15.419H48.5v2.547H52.44v1.15H47.1V10.9h5.34v1.15H48.579v2.218h3.286Z" transform="translate(-15.058 -10.818)"/><path class="b" d="M58.5,19.034V10.9h2.383a3.4,3.4,0,0,1,1.89.493,3.612,3.612,0,0,1,1.315,1.4,4.219,4.219,0,0,1,.493,2.054v.411a4.219,4.219,0,0,1-.493,2.054,3.585,3.585,0,0,1-1.315,1.4A3.9,3.9,0,0,1,60.8,19.2H58.5Zm1.4-6.983v5.915h.9a2.122,2.122,0,0,0,1.725-.739,2.968,2.968,0,0,0,.575-1.972v-.493a3.062,3.062,0,0,0-.575-2.054,2.068,2.068,0,0,0-1.643-.739H59.9v.082Z" transform="translate(-17.092 -10.818)"/><path class="b" d="M72.365,15.419H69v2.547H72.94v1.15H67.6V10.9h5.34v1.15H69.079v2.218h3.368v1.15Z" transform="translate(-18.716 -10.818)"/><path class="b" d="M80.4,15.994v3.04H79V10.9h3.122a2.935,2.935,0,0,1,2.136.739,2.272,2.272,0,0,1,.822,1.89,2.272,2.272,0,0,1-.822,1.89,3.4,3.4,0,0,1-2.218.657L80.4,15.994Zm0-1.068h1.725a1.606,1.606,0,0,0,1.15-.329,1.419,1.419,0,0,0,.411-1.068,1.562,1.562,0,0,0-.411-1.068,1.625,1.625,0,0,0-1.15-.411H80.4Z" transform="translate(-20.75 -10.818)"/><path class="b" d="M90.958,15.912H89.4v3.122H88V10.9h2.876a3.739,3.739,0,0,1,2.218.657,2.057,2.057,0,0,1,.739,1.807,2.546,2.546,0,0,1-.411,1.4,2.669,2.669,0,0,1-1.068.822l1.807,3.368v.082H92.6ZM89.4,14.761h1.479a1.739,1.739,0,0,0,1.15-.329,1.388,1.388,0,0,0,0-1.972,2.113,2.113,0,0,0-1.15-.411H89.4Z" transform="translate(-22.355 -10.818)"/><path class="b" d="M98.2,19.034H96.8V10.9h1.4Z" transform="translate(-23.925 -10.818)"/><path class="b" d="M103.386,13.858l1.725-2.958h1.643l-2.465,4.026,2.547,4.108h-1.643l-1.725-3.04-1.725,3.04H100.1l2.547-4.108L100.182,10.9h1.643Z" transform="translate(-24.514 -10.818)"/></g></g></svg>