<svg enable-background="new 0 0 140 32" viewBox="0 0 140 32" xmlns="http://www.w3.org/2000/svg"><path d="m.6-1.9h122.9l3.6 27.9-126.5-.4z" fill="none" stroke="#0082c3" stroke-width="2" transform="translate(.361 3)"/><g fill="#0082c3"><path d="m113.4 17.4h4.8l-5.6-17.3h17.6l4 17.3h4.3l-9 14.3z"/><path d="m22.7 16.9v3.7h-1.7v-10h3.8c1.1 0 2 .3 2.6.9s1 1.3 1 2.3-.3 1.7-1 2.3-1.5.8-2.7.8zm0-1.4h2.1c.6 0 1.1-.1 1.4-.4s.5-.7.5-1.3c0-.5-.2-1-.5-1.3s-.8-.5-1.3-.5h-2.1v3.5z"/><path d="m33.6 16.7h-1.9v3.8h-1.7v-10h3.5c1.1 0 2 .3 2.7.8.6.5.9 1.3.9 2.2 0 .7-.2 1.2-.5 1.7s-.8.8-1.3 1l2.2 4.1v.1h-1.9zm-1.9-1.4h1.8c.6 0 1-.1 1.4-.4s.5-.7.5-1.2-.2-.9-.5-1.2-.8-.5-1.4-.5h-1.8z"/><path d="m40.5 20.6h-1.7v-10h1.7z"/><path d="m50.2 17.3c-.1 1.1-.5 1.9-1.2 2.5s-1.6.9-2.7.9c-.8 0-1.5-.2-2.1-.6s-1.1-.9-1.4-1.6-.5-1.5-.5-2.4v-.9c0-.9.2-1.8.5-2.5s.8-1.3 1.4-1.7 1.3-.6 2.2-.6c1.1 0 2 .3 2.7.9s1.1 1.4 1.2 2.5h-1.7c-.1-.7-.3-1.2-.6-1.5s-.8-.5-1.5-.5c-.8 0-1.3.3-1.7.8s-.6 1.4-.6 2.4v1c0 1.1.2 1.9.6 2.5s.9.8 1.7.8c.7 0 1.2-.2 1.5-.5s.6-.8.6-1.5z"/><path d="m57.6 16.1h-4.1v3.1h4.8v1.4h-6.5v-10h6.5v1.4h-4.7v2.7h4.1v1.4z"/><path d="m63.2 20.6v-10h2.9c.9 0 1.7.2 2.3.6.7.4 1.2.9 1.6 1.7s.6 1.5.6 2.5v.5c0 .9-.2 1.8-.6 2.5s-.9 1.3-1.6 1.7-1.5.6-2.4.6h-2.8zm1.7-8.6v7.2h1.1c.9 0 1.6-.3 2.1-.9s.7-1.4.7-2.4v-.6c0-1.1-.2-1.9-.7-2.5s-1.1-.8-2-.8z"/><path d="m76 16.7h-1.9v3.8h-1.7v-10h3.5c1.1 0 2 .3 2.7.8.6.5.9 1.3.9 2.2 0 .7-.2 1.2-.5 1.7-.3.4-.8.8-1.3 1l2.2 4.1v.1h-1.9zm-1.9-1.4h1.8c.6 0 1-.1 1.4-.4s.5-.7.5-1.2-.2-.9-.5-1.2-.8-.4-1.4-.5h-1.8z"/><path d="m89 15.8c0 1-.2 1.8-.5 2.6-.3.7-.8 1.3-1.4 1.7s-1.3.6-2.2.6c-.8 0-1.5-.2-2.2-.6-.6-.4-1.1-1-1.5-1.7-.3-.7-.5-1.6-.5-2.5v-.6c0-1 .2-1.8.5-2.6.3-.7.8-1.3 1.5-1.7.6-.4 1.3-.6 2.2-.6s1.5.2 2.2.6c.6.4 1.1 1 1.5 1.7s.5 1.6.5 2.6v.5zm-1.7-.5c0-1.1-.2-1.9-.6-2.5s-1-.9-1.8-.9c-.7 0-1.3.3-1.8.9-.4.6-.6 1.4-.6 2.5v.6c0 1.1.2 1.9.6 2.5s1 .9 1.8.9 1.4-.3 1.8-.9.6-1.4.6-2.6z"/><path d="m92.5 16.9v3.7h-1.7v-10h3.8c1.1 0 2 .3 2.6.9.7.6 1 1.3 1 2.3s-.3 1.7-1 2.3c-.6.5-1.5.8-2.7.8zm0-1.4h2.1c.6 0 1.1-.1 1.4-.4s.5-.7.5-1.3c0-.5-.2-1-.5-1.3s-.8-.5-1.4-.5h-2.1z"/></g></svg>